<?xml version="1.0" encoding="UTF-8"?>
<svg width="164px" height="129px" viewBox="0 0 164 129" version="1.1" xmlns="http://www.w3.org/2000/svg" xmlns:xlink="http://www.w3.org/1999/xlink" xmlns:sketch="http://www.bohemiancoding.com/sketch/ns">
    <!-- Generator: Sketch 3.3.3 (12081) - http://www.bohemiancoding.com/sketch -->
    <title>Imported Layers</title>
    <desc>Created with Sketch.</desc>
    <defs></defs>
    <g id="Page-1" stroke="none" stroke-width="1" fill="none" fill-rule="evenodd" sketch:type="MSPage">
        <g id="Imported-Layers" sketch:type="MSLayerGroup">
            <path d="M140.676,121.482 C103.728,104.055 61.089,103.812 24.265,120.752 C21.695,104.625 19.153,88.581 16.644,72.621 C58.007,49.881 108.128,49.881 149.491,72.621 C146.593,88.796 143.653,105.084 140.676,121.482" id="Fill-1" fill="#1DAA95" sketch:type="MSShapeGroup"></path>
            <path d="M140.676,122.232 C140.566,122.232 140.457,122.209 140.355,122.161 C103.531,104.79 61.331,104.526 24.578,121.434 C24.364,121.532 24.117,121.524 23.911,121.413 C23.704,121.303 23.561,121.102 23.524,120.87 C20.954,104.742 18.412,88.698 15.903,72.737 C15.855,72.426 16.006,72.116 16.283,71.964 C58.102,48.974 108.033,48.974 149.852,71.964 C150.134,72.119 150.285,72.437 150.229,72.753 C147.332,88.93 144.391,105.218 141.414,121.616 C141.372,121.846 141.227,122.043 141.019,122.149 C140.911,122.205 140.794,122.232 140.676,122.232 L140.676,122.232 Z M81.581,107.441 C101.517,107.441 121.48,111.76 140.111,120.391 C142.996,104.495 145.848,88.706 148.657,73.02 C107.541,50.62 58.58,50.622 17.468,73.025 C19.899,88.492 22.361,104.038 24.851,119.661 C42.901,111.512 62.231,107.441 81.581,107.441 L81.581,107.441 Z" id="Fill-2" fill="#067B75" sketch:type="MSShapeGroup"></path>
            <path d="M7.635,68.15 C3.895,69.545 1.498,72.379 2.282,74.479 L19.9,121.704 C20.684,123.804 24.351,124.376 28.09,122.981 C31.83,121.586 34.227,118.751 33.443,116.651 L15.825,69.427 C15.041,67.327 11.375,66.755 7.635,68.15" id="Fill-3" fill="#1DAA95" sketch:type="MSShapeGroup"></path>
            <path d="M33.13,116.612 C33.725,117.954 31.707,120.151 29.32,121.21 C26.934,122.269 23.905,122.31 23.309,120.968 C22.714,119.626 24.777,117.408 27.164,116.349 C29.551,115.291 32.534,115.269 33.13,116.612" id="Fill-4" fill="#128382" sketch:type="MSShapeGroup"></path>
            <path d="M22.678,122.956 C22.29,122.956 21.961,122.657 21.931,122.264 C21.744,119.84 22.947,117.746 25.318,116.368 C28.014,114.801 31.665,114.511 33.451,115.72 C33.795,115.952 33.885,116.418 33.653,116.761 C33.421,117.104 32.953,117.194 32.611,116.962 C31.446,116.175 28.405,116.31 26.071,117.665 C24.766,118.424 23.247,119.817 23.427,122.149 C23.458,122.561 23.149,122.922 22.736,122.954 L22.678,122.956" id="Fill-5" fill="#067B75" sketch:type="MSShapeGroup"></path>
            <path d="M24.115,124.494 C23.651,124.494 23.201,124.461 22.772,124.394 C20.944,124.11 19.676,123.247 19.197,121.966 L1.579,74.741 C1.102,73.461 1.495,71.977 2.689,70.565 C3.782,69.274 5.445,68.166 7.373,67.446 C9.3,66.727 11.282,66.473 12.954,66.736 C14.781,67.022 16.05,67.884 16.528,69.165 L34.147,116.39 C35.089,118.915 32.543,122.119 28.352,123.684 C26.921,124.218 25.458,124.494 24.115,124.494 L24.115,124.494 Z M7.897,68.853 C6.206,69.483 4.764,70.436 3.835,71.534 C3.007,72.514 2.705,73.467 2.985,74.217 L20.604,121.442 C20.879,122.182 21.753,122.717 23.002,122.912 C24.425,123.133 26.137,122.908 27.827,122.277 C31.458,120.923 33.299,118.41 32.74,116.913 L15.122,69.689 C14.745,68.676 13.457,68.333 12.723,68.219 C11.301,67.995 9.587,68.221 7.897,68.853 L7.897,68.853 Z" id="Fill-6" fill="#067B75" sketch:type="MSShapeGroup"></path>
            <path d="M154.613,61.785 L160.215,64.187 L156.405,73.072 L150.803,70.669 L154.613,61.785" id="Fill-7" fill="#009B87" sketch:type="MSShapeGroup"></path>
            <path d="M154.546,61.94 C154.803,61.341 156.265,61.394 157.812,62.057 C159.359,62.721 160.405,63.743 160.148,64.342 C159.891,64.941 158.429,64.889 156.882,64.225 C155.336,63.562 154.29,62.539 154.546,61.94" id="Fill-8" fill="#009B87" sketch:type="MSShapeGroup"></path>
            <path d="M132.325,121.792 C137.075,123.829 141.643,123.811 142.527,121.75 L162.391,75.426 C163.275,73.366 160.14,70.044 155.389,68.006 C150.637,65.969 146.069,65.988 145.186,68.048 L125.321,114.372 C124.438,116.433 127.573,119.755 132.325,121.792" id="Fill-9" fill="#1DAA95" sketch:type="MSShapeGroup"></path>
            <path d="M138.807,124.067 C136.875,124.067 134.505,123.543 132.028,122.482 C126.732,120.21 123.552,116.597 124.632,114.077 L144.496,67.752 C145.578,65.232 150.388,65.046 155.685,67.317 C158.074,68.343 160.157,69.719 161.548,71.192 C163.089,72.825 163.633,74.434 163.08,75.722 L143.216,122.046 C142.641,123.388 141.008,124.067 138.807,124.067 L138.807,124.067 Z M148.864,67.23 C147.274,67.23 146.177,67.64 145.875,68.344 L126.011,114.668 C125.395,116.107 127.957,119.104 132.62,121.102 C137.283,123.104 141.222,122.894 141.837,121.454 L161.701,75.13 C161.995,74.445 161.53,73.358 160.457,72.223 C159.204,70.895 157.299,69.642 155.093,68.696 C152.713,67.675 150.521,67.23 148.864,67.23 L148.864,67.23 Z" id="Fill-10" fill="#067B75" sketch:type="MSShapeGroup"></path>
            <path d="M127.791,114.743 C128.458,113.188 132.344,113.363 135.537,114.732 C138.731,116.101 141.597,118.822 140.93,120.378 C140.264,121.932 136.316,121.732 133.123,120.363 C129.93,118.993 127.124,116.298 127.791,114.743" id="Fill-11" fill="#128382" sketch:type="MSShapeGroup"></path>
            <path d="M134.282,116.931 C132.735,116.268 131.273,116.215 131.016,116.814 L127.206,125.699 C126.949,126.297 127.995,127.321 129.542,127.984 C131.089,128.647 132.551,128.7 132.808,128.101 L136.617,119.216 C136.874,118.617 135.829,117.594 134.282,116.931" id="Fill-12" fill="#009B87" sketch:type="MSShapeGroup"></path>
            <path d="M79.49,128.897 C79.36,128.897 79.231,128.863 79.115,128.796 L35.838,103.81 C35.606,103.676 35.463,103.428 35.463,103.16 L35.463,53.188 C35.463,52.92 35.606,52.672 35.838,52.538 L79.115,27.552 C79.348,27.417 79.633,27.417 79.865,27.552 L123.143,52.538 C123.375,52.672 123.518,52.92 123.518,53.188 L123.518,103.16 C123.518,103.428 123.375,103.676 123.143,103.81 L79.865,128.796 C79.749,128.863 79.62,128.897 79.49,128.897 L79.49,128.897 Z M36.963,102.727 L79.49,127.28 L122.018,102.727 L122.018,53.62 L79.49,29.067 L36.963,53.62 L36.963,102.727 L36.963,102.727 Z" id="Fill-13" fill="#067B75" sketch:type="MSShapeGroup"></path>
            <path d="M124.855,78.174 C124.855,103.228 104.544,123.539 79.49,123.539 C54.436,123.539 34.125,103.228 34.125,78.174 C34.125,53.119 54.436,32.809 79.49,32.809 C104.544,32.809 124.855,53.119 124.855,78.174" id="Fill-14" fill="#1DAA95" sketch:type="MSShapeGroup"></path>
            <path d="M105.374,29.171 C105.374,29.725 104.924,30.175 104.37,30.175 C103.816,30.175 103.366,29.725 103.366,29.171 C103.366,28.617 103.816,28.168 104.37,28.168 C104.924,28.168 105.374,28.617 105.374,29.171" id="Fill-15" fill="#067B75" sketch:type="MSShapeGroup"></path>
            <path d="M33.427,46.401 C33.427,46.955 32.977,47.405 32.423,47.405 C31.869,47.405 31.419,46.955 31.419,46.401 C31.419,45.847 31.869,45.397 32.423,45.397 C32.977,45.397 33.427,45.847 33.427,46.401" id="Fill-16" fill="#067B75" sketch:type="MSShapeGroup"></path>
            <path d="M82.182,32.29 C82.136,32.157 82.018,32.06 81.877,32.039 L80.495,31.834 L79.895,30.587 C79.832,30.456 79.696,30.372 79.548,30.372 C79.399,30.372 79.264,30.456 79.2,30.587 L78.6,31.834 L77.219,32.039 C77.077,32.06 76.959,32.157 76.913,32.29 C76.868,32.422 76.902,32.569 77.002,32.669 L78.015,33.679 L77.78,35.081 C77.756,35.223 77.817,35.364 77.937,35.447 L78.158,35.515 L78.343,35.469 L79.548,34.82 L80.752,35.469 L80.937,35.515 L81.158,35.447 C81.278,35.364 81.339,35.223 81.315,35.081 L81.081,33.679 L82.093,32.669 C82.193,32.569 82.228,32.422 82.182,32.29" id="Fill-17" fill="#067B75" sketch:type="MSShapeGroup"></path>
            <path d="M126.935,77.52 C126.889,77.388 126.771,77.291 126.629,77.269 L125.248,77.064 L124.647,75.817 C124.584,75.686 124.449,75.603 124.3,75.603 C124.152,75.603 124.017,75.686 123.953,75.817 L123.353,77.064 L121.972,77.269 C121.83,77.291 121.711,77.388 121.666,77.52 C121.62,77.653 121.655,77.799 121.755,77.899 L122.767,78.91 L122.532,80.312 C122.509,80.453 122.57,80.595 122.69,80.677 L122.911,80.746 L123.096,80.699 L124.3,80.051 L125.505,80.699 L125.69,80.746 L125.911,80.677 C126.031,80.595 126.092,80.453 126.068,80.312 L125.833,78.91 L126.846,77.899 C126.946,77.799 126.981,77.653 126.935,77.52" id="Fill-18" fill="#067B75" sketch:type="MSShapeGroup"></path>
            <path d="M36.688,77.52 C36.642,77.388 36.524,77.291 36.382,77.269 L35.001,77.064 L34.4,75.817 C34.337,75.686 34.202,75.603 34.054,75.603 C33.905,75.603 33.77,75.686 33.706,75.817 L33.106,77.064 L31.725,77.269 C31.583,77.291 31.465,77.388 31.419,77.52 C31.373,77.653 31.408,77.799 31.508,77.899 L32.52,78.91 L32.285,80.312 C32.261,80.453 32.323,80.595 32.443,80.677 L32.664,80.746 L32.849,80.699 L34.054,80.051 L35.258,80.699 L35.443,80.746 L35.664,80.677 C35.784,80.595 35.845,80.453 35.821,80.312 L35.587,78.91 L36.599,77.899 C36.699,77.799 36.733,77.653 36.688,77.52" id="Fill-19" fill="#067B75" sketch:type="MSShapeGroup"></path>
            <path d="M21.269,53.876 C19.925,53.876 18.832,52.783 18.832,51.439 C18.832,50.096 19.925,49.003 21.269,49.003 C22.612,49.003 23.705,50.096 23.705,51.439 C23.705,52.783 22.612,53.876 21.269,53.876 L21.269,53.876 Z M21.269,49.804 C20.366,49.804 19.633,50.537 19.633,51.439 C19.633,52.342 20.366,53.075 21.269,53.075 C22.171,53.075 22.904,52.342 22.904,51.439 C22.904,50.537 22.171,49.804 21.269,49.804 L21.269,49.804 Z" id="Fill-20" fill="#DAF6F2" sketch:type="MSShapeGroup"></path>
            <path d="M108.37,59.991 L51.296,59.991 C50.414,59.991 49.698,60.708 49.698,61.589 L49.698,112.942 C57.579,119.552 67.737,123.539 78.829,123.539 C90.889,123.539 102.131,119.113 110.257,111.436 L109.967,61.589 C109.967,60.708 109.251,59.991 108.37,59.991" id="Fill-21" fill="#FFFFFF" sketch:type="MSShapeGroup"></path>
            <path d="M105.109,85.722 L82.337,85.722 C82.061,85.722 81.837,85.498 81.837,85.222 C81.837,84.945 82.061,84.722 82.337,84.722 L105.109,84.722 C105.386,84.722 105.609,84.945 105.609,85.222 C105.609,85.498 105.386,85.722 105.109,85.722" id="Fill-22" fill="#067B75" sketch:type="MSShapeGroup"></path>
            <path d="M50.053,60.506 L109.772,60.506 L109.772,71.098 L50.053,71.098 L50.053,60.506 Z" id="Fill-23" fill="#24C6A9" sketch:type="MSShapeGroup"></path>
            <path d="M107.669,71.589 L50.339,71.589 C50.063,71.589 49.839,71.365 49.839,71.089 C49.839,70.813 50.063,70.589 50.339,70.589 L107.669,70.589 C107.945,70.589 108.169,70.813 108.169,71.089 C108.169,71.365 107.945,71.589 107.669,71.589" id="Fill-24" fill="#067B75" sketch:type="MSShapeGroup"></path>
            <path d="M60.023,75.579 C59.452,74.86 58.205,74.655 57.699,74.674 C57.311,74.689 56.97,74.755 56.664,74.924 C56.324,74.639 55.789,74.491 55.739,74.584 C55.677,74.698 55.818,75.302 55.966,75.63 C55.856,75.842 55.758,76.263 55.758,76.604 C55.758,76.924 55.833,77.18 55.956,77.391 C55.563,77.44 55.146,77.564 54.75,77.829 C55.037,77.836 55.275,77.874 55.44,77.92 L55.405,77.951 L55.333,78.015 L55.163,78.181 L55.153,78.191 L54.959,78.431 C55.436,78.266 55.811,78.24 55.897,78.296 C55.983,78.352 56.304,78.317 56.441,78.112 L56.54,77.996 C56.551,78.535 56.737,79.155 56.737,79.155 L56.738,79.155 L56.743,79.178 L56.856,79.529 L56.881,79.581 L56.878,79.582 L56.904,79.627 L56.92,79.652 L56.983,79.689 L56.993,79.685 L57.046,79.656 L57.091,79.596 L57.086,79.593 L57.118,79.534 L57.142,79.469 L57.244,79.271 L58.093,79.286 L58.186,79.552 L58.212,79.605 L58.208,79.606 L58.234,79.651 L58.25,79.676 L58.313,79.713 L58.323,79.709 L58.376,79.68 L58.399,79.65 L58.421,79.62 L58.417,79.616 L58.448,79.557 L58.472,79.493 L58.571,79.205 L58.574,79.194 L58.576,79.188 C58.576,79.188 58.625,79.029 58.677,78.802 L58.774,78.877 L58.838,78.917 L58.857,78.926 L58.868,78.933 L58.909,78.951 L58.914,78.954 L58.917,78.955 L58.951,78.969 L58.957,78.971 L59.003,78.986 L59.021,78.99 L59.07,79.001 L59.104,79.009 L59.121,79.009 L59.295,79.01 L59.231,79.008 L59.331,79.007 L59.57,78.923 L59.628,78.885 L59.655,78.863 L59.681,78.84 L59.7,78.823 L59.726,78.795 L59.771,78.741 C59.824,78.667 59.873,78.582 59.885,78.486 C59.945,78.014 59.61,77.815 59.399,77.799 C59.066,77.774 58.934,77.923 58.883,78.016 L58.818,78.217 C58.814,78.416 58.974,78.581 59.176,78.585 L59.179,78.584 L59.301,78.562 L59.349,78.54 L59.388,78.515 L59.439,78.481 L59.424,78.517 L59.412,78.54 L59.409,78.546 L59.398,78.561 L59.358,78.604 L59.254,78.661 L59.135,78.68 L59.077,78.676 L59.049,78.672 L59.021,78.665 L58.97,78.649 L58.924,78.629 L58.855,78.591 L58.737,78.508 C58.769,78.323 58.793,78.123 58.794,77.936 C59.263,77.717 59.572,77.317 59.579,76.672 C59.581,76.416 59.535,76.085 59.46,75.871 L59.512,75.858 L59.642,75.817 L59.707,75.793 L59.77,75.768 L59.878,75.719 L59.921,75.696 L59.953,75.678 L59.973,75.664 L59.979,75.659 L59.978,75.656 L59.97,75.66 L59.959,75.667 L60.023,75.579" id="Fill-25" fill="#067B75" sketch:type="MSShapeGroup"></path>
            <path d="M91.523,78.092 L87.773,78.092 C87.49,78.092 87.26,77.862 87.26,77.579 C87.26,77.296 87.49,77.067 87.773,77.067 L91.523,77.067 C91.807,77.067 92.036,77.296 92.036,77.579 C92.036,77.862 91.807,78.092 91.523,78.092" id="Fill-26" fill="#067B75" sketch:type="MSShapeGroup"></path>
            <path d="M98.679,78.092 L94.928,78.092 C94.645,78.092 94.416,77.862 94.416,77.579 C94.416,77.296 94.645,77.067 94.928,77.067 L98.679,77.067 C98.962,77.067 99.191,77.296 99.191,77.579 C99.191,77.862 98.962,78.092 98.679,78.092" id="Fill-27" fill="#067B75" sketch:type="MSShapeGroup"></path>
            <path d="M105.835,78.092 L102.083,78.092 C101.801,78.092 101.571,77.862 101.571,77.579 C101.571,77.296 101.801,77.067 102.083,77.067 L105.835,77.067 C106.118,77.067 106.347,77.296 106.347,77.579 C106.347,77.862 106.118,78.092 105.835,78.092" id="Fill-28" fill="#067B75" sketch:type="MSShapeGroup"></path>
            <path d="M105.109,90.099 L82.337,90.099 C82.061,90.099 81.837,89.875 81.837,89.599 C81.837,89.322 82.061,89.099 82.337,89.099 L105.109,89.099 C105.386,89.099 105.609,89.322 105.609,89.599 C105.609,89.875 105.386,90.099 105.109,90.099" id="Fill-29" fill="#067B75" sketch:type="MSShapeGroup"></path>
            <path d="M94.452,94.475 L82.337,94.475 C82.061,94.475 81.837,94.251 81.837,93.975 C81.837,93.698 82.061,93.475 82.337,93.475 L94.452,93.475 C94.729,93.475 94.952,93.698 94.952,93.975 C94.952,94.251 94.729,94.475 94.452,94.475" id="Fill-30" fill="#067B75" sketch:type="MSShapeGroup"></path>
            <path d="M55.439,85.053 L74.584,85.053 L74.584,96.285 L55.439,96.285 L55.439,85.053 Z" id="Fill-31" fill="#DAF6F2" sketch:type="MSShapeGroup"></path>
            <path d="M76.609,96.785 L55.439,96.785 C55.162,96.785 54.938,96.562 54.938,96.285 L54.938,83.052 C54.938,82.775 55.162,82.552 55.439,82.552 L76.609,82.552 C76.885,82.552 77.108,82.775 77.108,83.052 L77.108,96.285 C77.108,96.562 76.885,96.785 76.609,96.785 L76.609,96.785 Z M55.939,95.785 L76.109,95.785 L76.109,83.552 L55.939,83.552 L55.939,95.785 Z" id="Fill-32" fill="#067B75" sketch:type="MSShapeGroup"></path>
            <path d="M55.439,101.805 L103.085,101.805 L103.085,113.037 L55.439,113.037 L55.439,101.805 Z" id="Fill-33" fill="#24C6A9" sketch:type="MSShapeGroup"></path>
            <path d="M56.254,65.516 C56.254,66.07 55.799,66.519 55.239,66.519 C54.678,66.519 54.224,66.07 54.224,65.516 C54.224,64.961 54.678,64.512 55.239,64.512 C55.799,64.512 56.254,64.961 56.254,65.516" id="Fill-34" fill="#00B29E" sketch:type="MSShapeGroup"></path>
            <path d="M55.238,66.92 C54.458,66.92 53.823,66.29 53.823,65.516 C53.823,64.741 54.458,64.111 55.238,64.111 C56.019,64.111 56.654,64.741 56.654,65.516 C56.654,66.29 56.019,66.92 55.238,66.92 L55.238,66.92 Z M55.238,64.912 C54.9,64.912 54.624,65.183 54.624,65.516 C54.624,65.849 54.9,66.119 55.238,66.119 C55.578,66.119 55.854,65.849 55.854,65.516 C55.854,65.183 55.578,64.912 55.238,64.912 L55.238,64.912 Z" id="Fill-35" fill="#067B75" sketch:type="MSShapeGroup"></path>
            <path d="M60.186,65.516 C60.186,66.07 59.732,66.519 59.171,66.519 C58.611,66.519 58.157,66.07 58.157,65.516 C58.157,64.961 58.611,64.512 59.171,64.512 C59.732,64.512 60.186,64.961 60.186,65.516" id="Fill-36" fill="#00B29E" sketch:type="MSShapeGroup"></path>
            <path d="M59.171,66.92 C58.391,66.92 57.756,66.29 57.756,65.516 C57.756,64.741 58.391,64.111 59.171,64.111 C59.951,64.111 60.587,64.741 60.587,65.516 C60.587,66.29 59.951,66.92 59.171,66.92 L59.171,66.92 Z M59.171,64.912 C58.832,64.912 58.557,65.183 58.557,65.516 C58.557,65.849 58.832,66.119 59.171,66.119 C59.511,66.119 59.786,65.849 59.786,65.516 C59.786,65.183 59.511,64.912 59.171,64.912 L59.171,64.912 Z" id="Fill-37" fill="#067B75" sketch:type="MSShapeGroup"></path>
            <path d="M64.119,65.516 C64.119,66.07 63.665,66.519 63.104,66.519 C62.543,66.519 62.089,66.07 62.089,65.516 C62.089,64.961 62.543,64.512 63.104,64.512 C63.665,64.512 64.119,64.961 64.119,65.516" id="Fill-38" fill="#00B29E" sketch:type="MSShapeGroup"></path>
            <path d="M63.105,66.92 C62.324,66.92 61.688,66.29 61.688,65.516 C61.688,64.741 62.324,64.111 63.105,64.111 C63.885,64.111 64.52,64.741 64.52,65.516 C64.52,66.29 63.885,66.92 63.105,66.92 L63.105,66.92 Z M63.105,64.912 C62.765,64.912 62.489,65.183 62.489,65.516 C62.489,65.849 62.765,66.119 63.105,66.119 C63.443,66.119 63.719,65.849 63.719,65.516 C63.719,65.183 63.443,64.912 63.105,64.912 L63.105,64.912 Z" id="Fill-39" fill="#067B75" sketch:type="MSShapeGroup"></path>
            <path d="M105.086,113.538 L55.439,113.538 C55.162,113.538 54.938,113.314 54.938,113.038 L54.938,99.804 C54.938,99.527 55.162,99.304 55.439,99.304 L105.086,99.304 C105.362,99.304 105.586,99.527 105.586,99.804 L105.586,113.038 C105.586,113.314 105.362,113.538 105.086,113.538 L105.086,113.538 Z M55.939,112.538 L104.587,112.538 L104.587,100.304 L55.939,100.304 L55.939,112.538 Z" id="Fill-40" fill="#067B75" sketch:type="MSShapeGroup"></path>
            <path d="M78.829,124.038 C68.452,124.038 57.992,120.058 49.376,112.83 C49.263,112.735 49.197,112.595 49.197,112.447 L49.197,61.589 C49.197,60.433 50.139,59.491 51.295,59.491 L108.37,59.491 C109.526,59.491 110.468,60.433 110.468,61.589 L110.468,111.474 C110.468,111.611 110.411,111.742 110.312,111.837 C101.981,119.705 90.801,124.038 78.829,124.038 L78.829,124.038 Z M50.197,112.213 C58.6,119.196 68.758,123.038 78.829,123.038 C90.47,123.038 101.342,118.856 109.468,111.258 L109.468,61.589 C109.468,60.983 108.976,60.491 108.37,60.491 L51.295,60.491 C50.689,60.491 50.197,60.983 50.197,61.589 L50.197,112.213 L50.197,112.213 Z" id="Fill-41" fill="#067B75" sketch:type="MSShapeGroup"></path>
            <path d="M34.696,71.836 L34.579,71.827 C34.17,71.763 33.891,71.379 33.954,70.97 C37.04,51.303 52.311,35.914 71.952,32.675 C72.356,32.605 72.747,32.884 72.814,33.293 C72.882,33.702 72.604,34.088 72.196,34.155 C53.194,37.288 38.422,52.177 35.437,71.202 C35.378,71.572 35.06,71.836 34.696,71.836" id="Fill-42" fill="#067B75" sketch:type="MSShapeGroup"></path>
            <path d="M79.51,124.288 C56.649,124.288 37.018,107.243 33.845,84.64 C33.788,84.229 34.073,83.85 34.483,83.792 C34.885,83.742 35.273,84.021 35.331,84.431 C38.4,106.298 57.393,122.788 79.51,122.788 C101.479,122.788 119.994,107.079 123.537,85.436 C123.604,85.027 123.994,84.748 124.399,84.817 C124.808,84.884 125.084,85.269 125.018,85.678 C121.356,108.05 102.217,124.288 79.51,124.288" id="Fill-43" fill="#067B75" sketch:type="MSShapeGroup"></path>
            <path d="M124.392,72.281 C124.025,72.281 123.705,72.013 123.65,71.64 C120.815,52.322 105.961,37.249 86.686,34.133 C86.277,34.066 85.999,33.682 86.066,33.273 C86.132,32.863 86.512,32.585 86.926,32.652 C106.85,35.873 122.204,51.453 125.135,71.423 C125.194,71.832 124.911,72.213 124.502,72.274 L124.392,72.281" id="Fill-44" fill="#067B75" sketch:type="MSShapeGroup"></path>
            <path d="M151.08,44.337 L150.979,44.323 L150.751,44.264 C150.592,44.223 150.474,44.087 150.455,43.924 L150.409,43.532 C150.397,43.409 150.351,43.087 150.199,42.649 C150.142,42.468 150.067,42.294 149.974,42.119 C149.911,41.973 149.834,41.858 149.761,41.744 L149.642,41.555 C149.408,41.24 149.102,40.931 148.782,40.693 C148.621,40.581 148.443,40.482 148.236,40.389 L148.147,40.474 C147.956,40.661 147.711,40.843 147.464,41.024 L147.278,41.159 C146.602,41.605 145.871,41.949 145.147,42.17 C144.444,42.37 143.715,42.46 142.971,42.469 L142.707,42.453 C142.453,42.436 142.214,42.421 141.983,42.372 C141.71,42.332 141.43,42.266 141.176,42.184 C140.754,42.057 140.352,41.894 140.056,41.727 L139.697,41.528 C139.537,41.44 139.457,41.255 139.502,41.078 L139.561,40.85 C139.602,40.689 139.737,40.572 139.902,40.552 L140.295,40.507 C140.417,40.494 140.739,40.449 141.175,40.296 C141.356,40.238 141.532,40.165 141.705,40.072 C141.854,40.008 141.967,39.933 142.08,39.859 L142.272,39.74 C142.585,39.506 142.894,39.201 143.133,38.879 C143.245,38.719 143.345,38.54 143.437,38.335 L143.352,38.244 C143.164,38.054 142.983,37.807 142.802,37.56 L142.667,37.376 C142.222,36.7 141.878,35.969 141.656,35.243 C141.455,34.538 141.353,33.788 141.358,33.068 L141.373,32.813 C141.387,32.557 141.404,32.313 141.453,32.08 C141.493,31.809 141.559,31.529 141.642,31.273 C141.767,30.855 141.93,30.454 142.1,30.152 L142.299,29.792 C142.387,29.633 142.574,29.558 142.748,29.599 L142.975,29.657 C143.136,29.699 143.254,29.834 143.274,29.999 L143.319,30.39 C143.332,30.514 143.377,30.836 143.53,31.274 C143.587,31.455 143.662,31.629 143.754,31.804 C143.818,31.95 143.895,32.064 143.968,32.179 L144.087,32.367 C144.321,32.683 144.626,32.992 144.946,33.229 C145.107,33.342 145.286,33.441 145.492,33.534 L145.581,33.449 C145.772,33.262 146.017,33.081 146.264,32.901 L146.45,32.764 C147.127,32.319 147.856,31.974 148.581,31.753 C149.27,31.557 150.004,31.454 150.713,31.454 L150.758,31.454 L151.022,31.471 C151.276,31.487 151.515,31.502 151.745,31.551 C152.02,31.592 152.3,31.656 152.553,31.74 C152.974,31.866 153.376,32.029 153.673,32.196 L154.032,32.395 C154.192,32.483 154.271,32.668 154.227,32.845 L154.168,33.073 C154.127,33.233 153.991,33.352 153.826,33.371 L153.434,33.416 C153.311,33.429 152.99,33.474 152.554,33.627 C152.372,33.685 152.197,33.758 152.023,33.851 C151.874,33.915 151.76,33.991 151.646,34.066 L151.459,34.183 C151.144,34.417 150.835,34.722 150.596,35.044 C150.483,35.205 150.384,35.383 150.291,35.588 L150.377,35.679 C150.565,35.869 150.746,36.116 150.926,36.363 L151.062,36.547 C151.507,37.224 151.851,37.954 152.073,38.678 C152.272,39.381 152.375,40.131 152.371,40.855 L152.355,41.108 C152.341,41.363 152.325,41.601 152.278,41.829 C152.234,42.12 152.169,42.396 152.086,42.651 C151.962,43.068 151.799,43.47 151.629,43.77 L151.43,44.131 C151.358,44.26 151.223,44.337 151.08,44.337 M148.137,39.515 L148.279,39.541 C148.65,39.683 148.968,39.848 149.249,40.044 C149.642,40.335 150.004,40.702 150.307,41.112 L150.432,41.31 C150.531,41.462 150.63,41.618 150.697,41.777 C150.799,41.968 150.892,42.187 150.958,42.398 C151.023,42.587 151.081,42.785 151.124,42.977 C151.188,42.824 151.256,42.637 151.322,42.412 C151.395,42.191 151.45,41.956 151.488,41.7 L151.493,41.674 C151.534,41.48 151.544,41.277 151.556,41.063 L151.571,40.823 C151.574,40.201 151.483,39.529 151.305,38.905 C151.108,38.259 150.796,37.599 150.406,37.006 L150.28,36.835 C150.123,36.619 149.968,36.403 149.79,36.223 L149.651,36.083 L149.531,35.968 C149.422,35.857 149.388,35.692 149.443,35.546 C149.585,35.175 149.75,34.857 149.946,34.576 C150.24,34.181 150.608,33.819 151.016,33.518 L151.212,33.394 C151.365,33.294 151.522,33.196 151.681,33.129 C151.869,33.027 152.089,32.934 152.302,32.868 C152.489,32.802 152.688,32.745 152.879,32.701 C152.727,32.639 152.539,32.569 152.315,32.502 C152.094,32.43 151.858,32.376 151.602,32.338 C151.386,32.292 151.186,32.282 150.974,32.269 L150.725,32.253 C150.087,32.297 149.433,32.343 148.808,32.52 C148.162,32.718 147.503,33.029 146.909,33.419 L146.735,33.547 C146.52,33.705 146.305,33.859 146.125,34.036 L145.985,34.175 L145.871,34.294 C145.76,34.403 145.593,34.438 145.45,34.382 C145.078,34.24 144.761,34.075 144.479,33.879 C144.086,33.588 143.724,33.221 143.422,32.811 L143.297,32.613 C143.197,32.461 143.098,32.305 143.032,32.146 C142.93,31.955 142.837,31.736 142.77,31.524 C142.705,31.336 142.647,31.137 142.605,30.947 C142.541,31.099 142.473,31.286 142.406,31.511 C142.334,31.732 142.278,31.967 142.241,32.224 C142.195,32.443 142.184,32.646 142.172,32.861 L142.157,33.1 C142.153,33.719 142.245,34.391 142.424,35.018 C142.621,35.664 142.933,36.324 143.322,36.917 L143.448,37.088 C143.605,37.304 143.761,37.52 143.939,37.7 L144.078,37.84 L144.197,37.955 C144.307,38.066 144.341,38.231 144.285,38.377 C144.144,38.748 143.979,39.065 143.783,39.347 C143.49,39.742 143.122,40.104 142.714,40.405 L142.514,40.531 C142.362,40.63 142.206,40.727 142.048,40.794 C141.86,40.896 141.64,40.988 141.427,41.055 C141.239,41.121 141.041,41.178 140.85,41.222 C141.002,41.284 141.189,41.354 141.414,41.421 C141.635,41.493 141.869,41.547 142.126,41.585 C142.343,41.631 142.543,41.641 142.755,41.653 L143.004,41.67 C143.658,41.698 144.297,41.58 144.92,41.402 C145.567,41.205 146.226,40.894 146.82,40.504 L146.992,40.377 C147.207,40.22 147.422,40.064 147.602,39.888 L147.744,39.746 L147.858,39.629 C147.934,39.555 148.034,39.515 148.137,39.515" id="Fill-45" fill="#067B75" sketch:type="MSShapeGroup"></path>
            <path d="M150.777,34.819 C150.713,34.893 150.652,34.968 150.596,35.044 C150.483,35.205 150.384,35.383 150.291,35.588 L150.377,35.679 C150.565,35.869 150.746,36.116 150.926,36.363 L151.062,36.547 C151.507,37.224 151.851,37.954 152.073,38.678 C152.272,39.381 152.375,40.131 152.371,40.855 L152.355,41.108 C152.341,41.363 152.325,41.601 152.278,41.829 C152.234,42.12 152.169,42.396 152.086,42.651 C152.043,42.796 151.995,42.939 151.944,43.077 C151.954,43.141 151.963,43.204 151.969,43.263 L151.972,43.284 L151.985,43.259 C152.071,43.106 152.238,42.777 152.393,42.258 C152.467,42.028 152.523,41.782 152.562,41.524 L152.565,41.51 C152.606,41.317 152.618,41.106 152.632,40.883 L152.648,40.636 C152.651,39.989 152.557,39.302 152.374,38.666 C152.174,38.006 151.857,37.332 151.457,36.723 L151.322,36.539 C151.155,36.311 150.997,36.095 150.822,35.916 L150.672,35.767 L150.563,35.663 L150.509,35.403 C150.592,35.187 150.68,34.995 150.777,34.819 M154.149,32.492 C154.172,32.522 154.192,32.554 154.207,32.588 C154.232,32.585 154.258,32.582 154.282,32.579 L154.306,32.576 L154.28,32.561 C154.245,32.542 154.201,32.519 154.149,32.492 M142.992,32.07 C142.959,32.255 142.948,32.444 142.937,32.643 L142.92,32.893 C142.917,33.537 143.01,34.225 143.192,34.863 C143.395,35.526 143.713,36.198 144.111,36.805 L144.244,36.986 C144.411,37.216 144.569,37.432 144.746,37.614 L144.889,37.756 L145.005,37.865 L145.058,38.123 C144.921,38.482 144.763,38.788 144.574,39.059 C144.293,39.436 143.938,39.787 143.54,40.08 L143.347,40.203 C143.207,40.294 143.063,40.387 142.906,40.453 C142.712,40.557 142.502,40.645 142.301,40.708 C142.229,40.733 142.156,40.757 142.082,40.779 C142.071,40.784 142.059,40.789 142.048,40.794 C141.865,40.893 141.653,40.983 141.445,41.049 C141.627,41.138 141.907,41.258 142.288,41.372 C142.517,41.446 142.763,41.503 143.023,41.542 C143.231,41.586 143.441,41.599 143.665,41.612 L143.884,41.626 C144.234,41.579 144.579,41.5 144.92,41.402 C145.567,41.205 146.226,40.894 146.82,40.504 L146.992,40.377 C147.207,40.22 147.422,40.064 147.602,39.888 L147.744,39.746 L147.858,39.629 C147.934,39.555 148.034,39.515 148.137,39.515 L148.279,39.541 C148.43,39.599 148.573,39.66 148.707,39.726 L148.783,39.649 L148.883,39.544 L149.056,39.473 L149.142,39.489 C149.5,39.625 149.805,39.784 150.079,39.973 C150.458,40.255 150.809,40.612 151.1,41.007 L151.219,41.194 C151.311,41.336 151.406,41.482 151.473,41.641 C151.479,41.653 151.486,41.666 151.493,41.678 L151.493,41.674 C151.534,41.48 151.544,41.277 151.556,41.063 L151.571,40.823 C151.574,40.201 151.483,39.529 151.305,38.905 C151.108,38.259 150.796,37.599 150.406,37.006 L150.28,36.835 C150.123,36.619 149.968,36.403 149.79,36.223 L149.651,36.083 L149.531,35.968 C149.422,35.857 149.388,35.692 149.443,35.546 C149.585,35.175 149.75,34.857 149.946,34.576 C150.24,34.181 150.608,33.819 151.016,33.518 L151.212,33.394 C151.365,33.294 151.522,33.196 151.681,33.129 C151.869,33.027 152.089,32.934 152.302,32.868 C152.489,32.802 152.688,32.745 152.879,32.701 C152.727,32.639 152.539,32.569 152.315,32.502 C152.094,32.43 151.858,32.376 151.602,32.338 C151.386,32.292 151.186,32.282 150.974,32.269 L150.725,32.253 C150.087,32.297 149.433,32.343 148.808,32.52 C148.773,32.531 148.739,32.542 148.704,32.553 C148.373,32.709 148.049,32.89 147.743,33.091 L147.565,33.221 C147.334,33.39 147.116,33.549 146.935,33.725 L146.79,33.871 L146.682,33.985 L146.424,34.038 C146.352,34.011 146.282,33.982 146.214,33.953 C146.183,33.98 146.154,34.008 146.125,34.036 L145.985,34.175 L145.871,34.294 C145.796,34.369 145.694,34.408 145.591,34.408 C145.543,34.408 145.495,34.399 145.45,34.382 C145.078,34.24 144.761,34.075 144.479,33.879 C144.086,33.588 143.724,33.221 143.422,32.811 L143.297,32.613 C143.197,32.461 143.098,32.305 143.032,32.146 C143.018,32.121 143.005,32.096 142.992,32.07 M143.596,30.242 L143.581,30.269 C143.531,30.356 143.456,30.502 143.371,30.709 C143.403,30.861 143.453,31.052 143.53,31.274 C143.587,31.455 143.662,31.629 143.754,31.804 C143.818,31.95 143.895,32.064 143.968,32.179 L144.087,32.367 C144.321,32.683 144.626,32.992 144.946,33.229 C145.087,33.328 145.241,33.416 145.415,33.499 C145.064,33.226 144.739,32.891 144.467,32.52 L144.345,32.329 C144.255,32.19 144.161,32.045 144.094,31.888 C143.993,31.697 143.904,31.487 143.839,31.282 C143.718,30.934 143.629,30.562 143.599,30.266 L143.596,30.242" id="Fill-46" fill="#389591" sketch:type="MSShapeGroup"></path>
            <path d="M142.082,40.779 C141.804,40.863 141.522,40.924 141.286,40.949 L141.263,40.952 L141.288,40.966 C141.328,40.989 141.381,41.017 141.445,41.049 C141.653,40.983 141.865,40.893 142.048,40.794 C142.059,40.789 142.071,40.784 142.082,40.779 M148.137,39.515 C148.034,39.515 147.934,39.555 147.858,39.629 L147.744,39.746 L147.602,39.888 C147.422,40.064 147.207,40.22 146.992,40.377 L146.82,40.504 C146.226,40.894 145.567,41.205 144.92,41.402 C144.579,41.5 144.234,41.579 143.884,41.626 L143.912,41.628 C144.569,41.627 145.245,41.537 145.882,41.355 C146.547,41.151 147.22,40.834 147.824,40.436 L147.994,40.312 C148.228,40.141 148.448,39.98 148.633,39.801 L148.707,39.726 C148.573,39.66 148.43,39.599 148.279,39.541 L148.137,39.515 M151.655,31.901 C150.985,31.915 150.322,31.991 149.686,32.173 C149.358,32.272 149.027,32.401 148.704,32.553 C148.739,32.542 148.773,32.531 148.808,32.52 C149.433,32.343 150.087,32.297 150.725,32.253 L150.974,32.269 C151.186,32.282 151.386,32.292 151.602,32.338 C151.858,32.376 152.094,32.43 152.315,32.502 C152.539,32.569 152.727,32.639 152.879,32.701 C152.688,32.745 152.489,32.802 152.302,32.868 C152.089,32.934 151.869,33.027 151.681,33.129 C151.522,33.196 151.365,33.294 151.212,33.394 L151.016,33.518 C150.608,33.819 150.24,34.181 149.946,34.576 C149.75,34.857 149.585,35.175 149.443,35.546 C149.388,35.692 149.422,35.857 149.531,35.968 L149.651,36.083 L149.79,36.223 C149.968,36.403 150.123,36.619 150.28,36.835 L150.406,37.006 C150.796,37.599 151.108,38.259 151.305,38.905 C151.483,39.529 151.574,40.201 151.571,40.823 L151.556,41.063 C151.544,41.277 151.534,41.48 151.493,41.674 L151.493,41.678 C151.586,41.858 151.668,42.055 151.728,42.247 C151.825,42.526 151.901,42.82 151.944,43.077 C151.995,42.939 152.043,42.796 152.086,42.651 C152.169,42.396 152.234,42.12 152.278,41.829 C152.325,41.601 152.341,41.363 152.355,41.108 L152.371,40.855 C152.375,40.131 152.272,39.381 152.073,38.678 C151.851,37.954 151.507,37.224 151.062,36.547 L150.926,36.363 C150.746,36.116 150.565,35.869 150.377,35.679 L150.291,35.588 C150.384,35.383 150.483,35.205 150.596,35.044 C150.652,34.968 150.713,34.893 150.777,34.819 C150.844,34.695 150.917,34.579 150.995,34.468 C151.274,34.09 151.631,33.74 152.027,33.447 L152.218,33.326 C152.358,33.236 152.502,33.141 152.659,33.075 C152.855,32.971 153.066,32.882 153.267,32.819 C153.584,32.708 153.924,32.625 154.207,32.588 C154.192,32.554 154.172,32.522 154.149,32.492 C153.968,32.401 153.68,32.274 153.278,32.155 C153.048,32.081 152.804,32.025 152.544,31.985 C152.338,31.941 152.129,31.93 151.908,31.917 L151.655,31.901 M143.371,30.709 C143.309,30.862 143.241,31.048 143.175,31.269 C143.101,31.498 143.044,31.743 143.005,32.003 C143.001,32.025 142.996,32.047 142.992,32.07 C143.005,32.096 143.018,32.121 143.032,32.146 C143.098,32.305 143.197,32.461 143.297,32.613 L143.422,32.811 C143.724,33.221 144.086,33.588 144.479,33.879 C144.761,34.075 145.078,34.24 145.45,34.382 C145.495,34.399 145.543,34.408 145.591,34.408 C145.694,34.408 145.796,34.369 145.871,34.294 L145.985,34.175 L146.125,34.036 C146.154,34.008 146.183,33.98 146.214,33.953 C145.943,33.836 145.704,33.705 145.488,33.554 C145.463,33.536 145.439,33.517 145.415,33.499 C145.241,33.416 145.087,33.328 144.946,33.229 C144.626,32.992 144.321,32.683 144.087,32.367 L143.968,32.179 C143.895,32.064 143.818,31.95 143.754,31.804 C143.662,31.629 143.587,31.455 143.53,31.274 C143.453,31.052 143.403,30.861 143.371,30.709" id="Fill-47" fill="#067B75" sketch:type="MSShapeGroup"></path>
            <path d="M152.793,33.55 C152.718,33.572 152.638,33.597 152.554,33.627 C152.372,33.685 152.197,33.758 152.023,33.851 C151.874,33.915 151.76,33.991 151.646,34.066 L151.459,34.183 C151.219,34.362 150.982,34.582 150.777,34.819 C150.68,34.995 150.592,35.187 150.509,35.403 L150.563,35.663 L150.672,35.767 L150.822,35.916 C150.997,36.095 151.155,36.311 151.322,36.539 L151.457,36.723 C151.857,37.332 152.174,38.006 152.374,38.666 C152.557,39.302 152.651,39.989 152.648,40.636 L152.632,40.883 C152.618,41.106 152.606,41.317 152.565,41.51 L152.562,41.524 C152.523,41.782 152.467,42.028 152.393,42.258 C152.238,42.777 152.071,43.106 151.985,43.259 L151.972,43.284 L151.969,43.263 C151.963,43.204 151.954,43.141 151.944,43.077 C151.848,43.335 151.74,43.575 151.629,43.77 L151.589,43.842 C151.621,43.877 151.663,43.904 151.711,43.916 L151.939,43.975 L152,43.982 L152.214,43.856 L152.411,43.496 C152.575,43.206 152.734,42.817 152.859,42.403 C152.939,42.153 153,41.885 153.043,41.605 C153.091,41.377 153.104,41.151 153.118,40.911 L153.135,40.656 C153.139,39.947 153.038,39.212 152.842,38.528 C152.627,37.821 152.289,37.104 151.857,36.442 L151.715,36.251 C151.545,36.018 151.369,35.779 151.179,35.584 L151.024,35.429 C151.135,35.167 151.253,34.949 151.391,34.753 C151.638,34.419 151.958,34.104 152.298,33.853 L152.483,33.735 C152.582,33.671 152.682,33.605 152.793,33.55 M151.676,31.413 L151.631,31.413 C151.361,31.413 151.088,31.428 150.816,31.458 L151.022,31.471 C151.276,31.487 151.515,31.502 151.745,31.551 C152.02,31.592 152.3,31.656 152.553,31.74 C152.974,31.866 153.376,32.029 153.673,32.196 L154.032,32.395 C154.078,32.42 154.117,32.453 154.149,32.492 C154.201,32.519 154.245,32.542 154.28,32.561 L154.306,32.576 L154.282,32.579 C154.258,32.582 154.232,32.585 154.207,32.588 C154.241,32.667 154.249,32.757 154.227,32.845 L154.168,33.073 C154.167,33.078 154.165,33.082 154.164,33.087 C154.224,33.077 154.281,33.069 154.336,33.064 L154.728,33.018 C154.827,33.006 154.91,32.934 154.936,32.836 L154.994,32.608 C155.022,32.502 154.974,32.389 154.877,32.335 L154.516,32.136 C154.227,31.972 153.836,31.813 153.423,31.69 C153.174,31.609 152.902,31.546 152.631,31.506 C152.403,31.457 152.177,31.443 151.937,31.43 L151.676,31.413 M142.677,31.23 C142.612,31.448 142.56,31.682 142.526,31.917 C142.477,32.145 142.464,32.373 142.449,32.615 L142.433,32.872 C142.429,33.58 142.53,34.315 142.725,35.001 C142.942,35.712 143.28,36.427 143.711,37.084 L143.851,37.275 C144.021,37.507 144.197,37.748 144.388,37.944 L144.542,38.099 C144.435,38.357 144.316,38.576 144.178,38.775 C144.122,38.85 144.063,38.923 144.001,38.996 C143.933,39.119 143.86,39.236 143.783,39.347 C143.49,39.742 143.122,40.104 142.714,40.405 L142.514,40.531 C142.373,40.623 142.229,40.713 142.082,40.779 C142.156,40.757 142.229,40.733 142.301,40.708 C142.502,40.645 142.712,40.557 142.906,40.453 C143.063,40.387 143.207,40.294 143.347,40.203 L143.54,40.08 C143.938,39.787 144.293,39.436 144.574,39.059 C144.763,38.788 144.921,38.482 145.058,38.123 L145.005,37.865 L144.889,37.756 L144.746,37.614 C144.569,37.432 144.411,37.216 144.244,36.986 L144.111,36.805 C143.713,36.198 143.395,35.526 143.192,34.863 C143.01,34.225 142.917,33.537 142.92,32.893 L142.937,32.643 C142.948,32.444 142.959,32.255 142.992,32.07 C142.906,31.898 142.828,31.709 142.77,31.524 C142.737,31.428 142.706,31.329 142.677,31.23 M143.57,29.546 C143.484,29.546 143.399,29.591 143.354,29.67 L143.24,29.878 C143.257,29.916 143.269,29.956 143.274,29.999 L143.319,30.39 C143.325,30.451 143.34,30.561 143.371,30.709 C143.456,30.502 143.531,30.356 143.581,30.269 L143.596,30.242 L143.599,30.266 C143.629,30.562 143.718,30.934 143.839,31.282 C143.904,31.487 143.993,31.697 144.094,31.888 C144.161,32.045 144.255,32.19 144.345,32.329 L144.467,32.52 C144.739,32.891 145.064,33.226 145.415,33.499 C145.44,33.51 145.466,33.522 145.492,33.534 L145.581,33.449 C145.663,33.369 145.754,33.29 145.852,33.212 C145.825,33.194 145.798,33.176 145.772,33.158 C145.439,32.91 145.122,32.589 144.872,32.249 L144.755,32.064 C144.677,31.943 144.596,31.822 144.534,31.679 C144.439,31.496 144.36,31.313 144.302,31.128 C144.191,30.808 144.111,30.474 144.083,30.212 L144.037,29.819 C144.026,29.72 143.953,29.637 143.856,29.611 L143.628,29.553 C143.609,29.548 143.589,29.546 143.57,29.546" id="Fill-48" fill="#389591" sketch:type="MSShapeGroup"></path>
            <path d="M144.001,38.996 C143.786,39.246 143.534,39.48 143.27,39.675 L143.081,39.794 C142.954,39.877 142.833,39.955 142.698,40.013 C142.511,40.112 142.328,40.189 142.147,40.245 C141.829,40.357 141.496,40.436 141.233,40.465 L140.839,40.51 C140.739,40.522 140.656,40.594 140.631,40.691 L140.572,40.919 C140.545,41.026 140.593,41.139 140.69,41.193 L141.051,41.392 C141.342,41.557 141.732,41.715 142.144,41.837 C142.391,41.918 142.663,41.982 142.935,42.022 C143.165,42.07 143.393,42.084 143.637,42.099 L143.891,42.116 L143.906,42.116 C144.608,42.116 145.341,42.017 146.021,41.823 C146.074,41.806 146.128,41.789 146.182,41.771 C146.557,41.597 146.925,41.392 147.278,41.159 L147.464,41.024 C147.711,40.843 147.956,40.661 148.147,40.474 L148.236,40.389 C148.337,40.434 148.431,40.481 148.52,40.53 C148.677,40.412 148.83,40.289 148.964,40.159 L149.119,40.005 C149.186,40.033 149.249,40.061 149.311,40.09 C149.29,40.075 149.27,40.059 149.249,40.044 C149.082,39.928 148.903,39.822 148.707,39.726 L148.633,39.801 C148.448,39.98 148.228,40.141 147.994,40.312 L147.824,40.436 C147.22,40.834 146.547,41.151 145.882,41.355 C145.245,41.537 144.569,41.627 143.912,41.628 L143.884,41.626 C143.657,41.657 143.428,41.674 143.197,41.674 C143.133,41.674 143.068,41.672 143.004,41.67 L142.755,41.653 C142.543,41.641 142.343,41.631 142.126,41.585 C141.869,41.547 141.635,41.493 141.414,41.421 C141.189,41.354 141.002,41.284 140.85,41.222 C141.041,41.178 141.239,41.121 141.427,41.055 C141.433,41.053 141.439,41.051 141.445,41.049 C141.381,41.017 141.328,40.989 141.288,40.966 L141.263,40.952 L141.286,40.949 C141.522,40.924 141.804,40.863 142.082,40.779 C142.229,40.713 142.373,40.623 142.514,40.531 L142.714,40.405 C143.122,40.104 143.49,39.742 143.783,39.347 C143.86,39.236 143.933,39.119 144.001,38.996 M150.816,31.458 C150.386,31.505 149.958,31.588 149.547,31.705 C148.836,31.922 148.119,32.26 147.463,32.692 L147.278,32.827 C147.043,32.998 146.801,33.176 146.604,33.368 L146.448,33.524 C146.224,33.429 146.029,33.327 145.852,33.212 C145.754,33.29 145.663,33.369 145.581,33.449 L145.492,33.534 C145.466,33.522 145.44,33.51 145.415,33.499 C145.439,33.517 145.463,33.536 145.488,33.554 C145.704,33.705 145.943,33.836 146.214,33.953 C146.374,33.809 146.555,33.679 146.735,33.547 L146.909,33.419 C147.472,33.05 148.092,32.751 148.704,32.553 C149.027,32.401 149.358,32.272 149.686,32.173 C150.322,31.991 150.985,31.915 151.655,31.901 L151.908,31.917 C152.129,31.93 152.338,31.941 152.544,31.985 C152.804,32.025 153.048,32.081 153.278,32.155 C153.68,32.274 153.968,32.401 154.149,32.492 C154.117,32.453 154.078,32.42 154.032,32.395 L153.673,32.196 C153.376,32.029 152.974,31.866 152.553,31.74 C152.3,31.656 152.02,31.592 151.745,31.551 C151.515,31.502 151.276,31.487 151.022,31.471 L150.816,31.458 M143.24,29.878 L143.155,30.031 C142.992,30.319 142.834,30.709 142.71,31.124 C142.699,31.159 142.688,31.194 142.677,31.23 C142.706,31.329 142.737,31.428 142.77,31.524 C142.828,31.709 142.906,31.898 142.992,32.07 C142.996,32.047 143.001,32.025 143.005,32.003 C143.044,31.743 143.101,31.498 143.175,31.269 C143.241,31.048 143.309,30.862 143.371,30.709 C143.34,30.561 143.325,30.451 143.319,30.39 L143.274,29.999 C143.269,29.956 143.257,29.916 143.24,29.878" id="Fill-49" fill="#067B75" sketch:type="MSShapeGroup"></path>
            <path d="M141.445,41.049 C141.439,41.051 141.433,41.053 141.427,41.055 C141.239,41.121 141.041,41.178 140.85,41.222 C141.002,41.284 141.189,41.354 141.414,41.421 C141.635,41.493 141.869,41.547 142.126,41.585 C142.343,41.631 142.543,41.641 142.755,41.653 L143.004,41.67 C143.068,41.672 143.133,41.674 143.197,41.674 C143.428,41.674 143.657,41.657 143.884,41.626 L143.665,41.612 C143.441,41.599 143.231,41.586 143.023,41.542 C142.763,41.503 142.517,41.446 142.288,41.372 C141.907,41.258 141.627,41.138 141.445,41.049 M148.236,40.389 L148.147,40.474 C147.956,40.661 147.711,40.843 147.464,41.024 L147.278,41.159 C146.925,41.392 146.557,41.597 146.182,41.771 C146.841,41.553 147.499,41.234 148.104,40.836 L148.281,40.706 C148.36,40.648 148.441,40.59 148.52,40.53 C148.431,40.481 148.337,40.434 148.236,40.389 M149.056,39.473 L148.883,39.544 L148.783,39.649 L148.707,39.726 C148.903,39.822 149.082,39.928 149.249,40.044 C149.27,40.059 149.29,40.075 149.311,40.09 C149.488,40.175 149.646,40.266 149.794,40.369 C150.129,40.618 150.444,40.938 150.694,41.277 L150.809,41.459 C150.893,41.589 150.974,41.711 151.032,41.85 C151.13,42.032 151.207,42.215 151.265,42.401 C151.276,42.432 151.286,42.464 151.297,42.496 C151.305,42.468 151.314,42.44 151.322,42.412 C151.395,42.191 151.45,41.956 151.488,41.7 L151.493,41.678 C151.486,41.666 151.479,41.653 151.473,41.641 C151.406,41.482 151.311,41.336 151.219,41.194 L151.1,41.007 C150.809,40.612 150.458,40.255 150.079,39.973 C149.805,39.784 149.5,39.625 149.142,39.489 L149.056,39.473 M148.704,32.553 C148.092,32.751 147.472,33.05 146.909,33.419 L146.735,33.547 C146.555,33.679 146.374,33.809 146.214,33.953 C146.282,33.982 146.352,34.011 146.424,34.038 L146.682,33.985 L146.79,33.871 L146.935,33.725 C147.116,33.549 147.334,33.39 147.565,33.221 L147.743,33.091 C148.049,32.89 148.373,32.709 148.704,32.553" id="Fill-50" fill="#389591" sketch:type="MSShapeGroup"></path>
            <path d="M151.493,41.678 L151.488,41.7 C151.45,41.956 151.395,42.191 151.322,42.412 C151.314,42.44 151.305,42.468 151.297,42.496 C151.392,42.787 151.459,43.082 151.485,43.315 L151.529,43.708 C151.535,43.759 151.557,43.805 151.589,43.842 L151.629,43.77 C151.74,43.575 151.848,43.335 151.944,43.077 C151.901,42.82 151.825,42.526 151.728,42.247 C151.668,42.055 151.586,41.858 151.493,41.678 M154.207,32.588 C153.924,32.625 153.584,32.708 153.267,32.819 C153.066,32.882 152.855,32.971 152.659,33.075 C152.502,33.141 152.358,33.236 152.218,33.326 L152.027,33.447 C151.631,33.74 151.274,34.09 150.995,34.468 C150.917,34.579 150.844,34.695 150.777,34.819 C150.982,34.582 151.219,34.362 151.459,34.183 L151.646,34.066 C151.76,33.991 151.874,33.915 152.023,33.851 C152.197,33.758 152.372,33.685 152.554,33.627 C152.638,33.597 152.718,33.572 152.793,33.55 C152.818,33.538 152.842,33.526 152.868,33.515 C153.056,33.416 153.239,33.339 153.42,33.282 C153.673,33.194 153.935,33.125 154.164,33.087 C154.165,33.082 154.167,33.078 154.168,33.073 L154.227,32.845 C154.249,32.757 154.241,32.667 154.207,32.588" id="Fill-51" fill="#067B75" sketch:type="MSShapeGroup"></path>
            <path d="M147.692,37.174 C147.574,37.632 147.108,37.907 146.651,37.789 C146.194,37.672 145.919,37.206 146.037,36.748 C146.154,36.291 146.62,36.016 147.077,36.134 C147.534,36.251 147.809,36.717 147.692,37.174" id="Fill-52" fill="#DAF6F2" sketch:type="MSShapeGroup"></path>
            <path d="M146.866,38.217 C146.762,38.217 146.656,38.203 146.552,38.177 C145.882,38.003 145.478,37.318 145.649,36.649 C145.822,35.98 146.502,35.575 147.177,35.746 C147.501,35.829 147.773,36.034 147.944,36.323 C148.115,36.612 148.162,36.949 148.079,37.275 C147.996,37.599 147.791,37.871 147.502,38.042 C147.307,38.157 147.088,38.217 146.866,38.217 L146.866,38.217 Z M146.864,36.507 C146.662,36.507 146.477,36.644 146.424,36.849 C146.361,37.09 146.509,37.339 146.752,37.401 C146.99,37.465 147.242,37.317 147.304,37.075 L147.304,37.074 C147.335,36.957 147.317,36.835 147.256,36.731 C147.193,36.625 147.095,36.552 146.978,36.521 L146.864,36.507 L146.864,36.507 Z" id="Fill-53" fill="#067B75" sketch:type="MSShapeGroup"></path>
            <path d="M73.867,16.942 C73.746,16.942 73.627,16.938 73.51,16.931 C72.968,16.91 72.44,16.839 72.034,16.728 L71.538,16.601 C71.363,16.554 71.24,16.395 71.24,16.214 L71.24,15.921 C71.24,15.755 71.343,15.607 71.498,15.547 L71.955,15.372 C72.101,15.319 72.48,15.161 72.971,14.834 C73.175,14.707 73.367,14.561 73.552,14.392 C73.709,14.27 73.828,14.137 73.947,14.008 L74.133,13.81 C74.453,13.415 74.737,12.944 74.927,12.475 C75.022,12.221 75.092,11.949 75.142,11.636 L74.959,11.526 C74.663,11.347 74.373,11.107 74.093,10.877 L73.869,10.694 C73.134,10.026 72.498,9.26 72.012,8.465 C71.558,7.687 71.205,6.825 70.989,5.963 L70.928,5.643 C70.868,5.338 70.815,5.05 70.802,4.762 C70.766,4.422 70.757,4.07 70.777,3.74 C70.799,3.196 70.87,2.668 70.98,2.266 L71.108,1.771 C71.152,1.595 71.312,1.471 71.494,1.471 L71.787,1.471 C71.953,1.471 72.101,1.573 72.161,1.729 L72.336,2.187 C72.391,2.331 72.549,2.714 72.875,3.203 C72.999,3.403 73.145,3.594 73.317,3.784 C73.438,3.941 73.57,4.059 73.699,4.177 L73.898,4.363 C74.29,4.682 74.761,4.965 75.233,5.158 C75.488,5.253 75.761,5.323 76.072,5.372 L76.184,5.189 C76.362,4.894 76.603,4.601 76.836,4.317 L77.014,4.099 C77.682,3.364 78.448,2.729 79.245,2.243 C80.019,1.789 80.882,1.436 81.745,1.221 L82.054,1.161 C82.358,1.102 82.644,1.045 82.946,1.033 C83.288,0.997 83.642,0.989 83.97,1.009 C84.507,1.029 85.034,1.101 85.443,1.209 L85.937,1.338 C86.113,1.383 86.237,1.542 86.237,1.725 L86.237,2.018 C86.237,2.183 86.135,2.331 85.98,2.39 L85.523,2.568 C85.219,2.68 84.851,2.875 84.506,3.105 C84.305,3.229 84.115,3.377 83.926,3.548 C83.769,3.669 83.651,3.8 83.534,3.928 L83.345,4.128 C83.025,4.522 82.743,4.994 82.55,5.464 C82.456,5.717 82.385,5.995 82.336,6.303 L82.518,6.413 C82.811,6.59 83.098,6.826 83.376,7.055 L83.608,7.244 C84.345,7.915 84.981,8.681 85.465,9.476 C85.917,10.247 86.271,11.11 86.488,11.977 L86.549,12.291 C86.606,12.589 86.661,12.869 86.675,13.165 C86.712,13.523 86.721,13.87 86.7,14.198 C86.679,14.739 86.608,15.266 86.499,15.673 L86.37,16.168 C86.325,16.344 86.166,16.468 85.983,16.468 L85.69,16.468 C85.525,16.468 85.377,16.367 85.317,16.212 L85.141,15.753 C85.087,15.607 84.93,15.228 84.602,14.737 C84.479,14.536 84.332,14.345 84.16,14.155 C84.04,14 83.909,13.883 83.781,13.766 L83.58,13.575 C83.186,13.256 82.714,12.973 82.245,12.781 C81.99,12.686 81.717,12.616 81.405,12.566 L81.293,12.751 C81.118,13.041 80.882,13.329 80.653,13.607 L80.464,13.839 C79.798,14.572 79.032,15.207 78.233,15.697 C77.456,16.151 76.594,16.503 75.732,16.719 L75.411,16.781 C75.111,16.839 74.829,16.895 74.531,16.906 C74.312,16.93 74.088,16.942 73.867,16.942 M72.495,16.015 C72.735,16.063 73.088,16.114 73.549,16.132 C73.845,16.148 74.153,16.14 74.473,16.11 C74.746,16.096 74.994,16.047 75.257,15.995 L75.563,15.937 C76.327,15.746 77.116,15.422 77.823,15.009 C78.551,14.563 79.257,13.978 79.856,13.318 L80.036,13.099 C80.256,12.831 80.463,12.578 80.62,12.317 L80.751,12.098 L80.846,11.928 C80.926,11.794 81.072,11.717 81.234,11.737 C81.726,11.793 82.139,11.887 82.535,12.037 C83.088,12.262 83.63,12.586 84.113,12.98 L84.323,13.177 C84.485,13.326 84.648,13.479 84.774,13.644 C84.957,13.844 85.133,14.074 85.276,14.303 C85.473,14.6 85.651,14.922 85.783,15.215 C85.832,14.973 85.883,14.619 85.901,14.158 C85.919,13.861 85.911,13.555 85.878,13.237 L85.876,13.211 C85.866,12.96 85.815,12.71 85.763,12.444 L85.707,12.145 C85.512,11.378 85.19,10.588 84.778,9.885 C84.336,9.161 83.75,8.456 83.088,7.852 L82.868,7.673 C82.6,7.452 82.347,7.245 82.087,7.088 L81.871,6.96 L81.697,6.863 C81.563,6.781 81.488,6.63 81.506,6.475 C81.56,5.995 81.657,5.57 81.805,5.173 C82.031,4.619 82.356,4.077 82.75,3.595 L82.945,3.386 C83.095,3.223 83.248,3.061 83.414,2.934 C83.611,2.752 83.843,2.576 84.073,2.432 C84.368,2.235 84.69,2.057 84.985,1.925 C84.743,1.876 84.389,1.826 83.929,1.808 C83.629,1.789 83.325,1.796 83.005,1.83 C82.728,1.843 82.476,1.894 82.208,1.947 L81.914,2.002 C81.149,2.194 80.358,2.518 79.655,2.93 C78.929,3.373 78.223,3.959 77.621,4.62 L77.454,4.826 C77.23,5.099 77.018,5.356 76.858,5.622 L76.728,5.84 L76.632,6.011 C76.552,6.145 76.416,6.222 76.244,6.202 C75.761,6.149 75.336,6.05 74.942,5.903 C74.386,5.676 73.844,5.35 73.365,4.958 L73.158,4.767 C72.994,4.615 72.83,4.462 72.702,4.295 C72.521,4.096 72.345,3.865 72.202,3.637 C72.006,3.341 71.826,3.018 71.693,2.725 C71.645,2.965 71.595,3.317 71.576,3.78 C71.559,4.076 71.566,4.384 71.599,4.704 C71.611,4.976 71.661,5.226 71.713,5.489 L71.771,5.795 C71.963,6.557 72.286,7.348 72.7,8.054 C73.143,8.779 73.729,9.484 74.389,10.087 L74.601,10.259 C74.871,10.481 75.127,10.693 75.391,10.852 L75.611,10.981 L75.779,11.075 C75.914,11.156 75.99,11.308 75.972,11.465 C75.915,11.956 75.82,12.37 75.672,12.766 C75.447,13.317 75.123,13.86 74.728,14.344 L74.536,14.55 C74.385,14.714 74.231,14.877 74.065,15.005 C73.87,15.184 73.64,15.36 73.405,15.506 C73.11,15.703 72.788,15.883 72.495,16.015" id="Fill-54" fill="#067B75" sketch:type="MSShapeGroup"></path>
            <path d="M83.121,4.425 C82.895,4.749 82.696,5.107 82.55,5.464 C82.456,5.717 82.385,5.995 82.336,6.303 L82.518,6.413 C82.811,6.59 83.098,6.826 83.376,7.055 L83.608,7.244 C84.345,7.915 84.981,8.681 85.465,9.476 C85.917,10.247 86.271,11.11 86.488,11.977 L86.549,12.291 C86.606,12.589 86.661,12.869 86.675,13.165 C86.712,13.523 86.721,13.87 86.7,14.198 C86.694,14.37 86.682,14.54 86.665,14.706 C86.713,14.809 86.754,14.908 86.789,15.001 L86.867,15.203 L86.923,14.986 C86.979,14.772 87.077,14.319 87.104,13.643 C87.122,13.341 87.115,13.025 87.08,12.696 L87.079,12.68 C87.069,12.431 87.018,12.172 86.964,11.896 L86.906,11.594 C86.708,10.804 86.379,9.999 85.96,9.284 C85.508,8.543 84.913,7.826 84.24,7.214 L84.027,7.04 C83.75,6.812 83.488,6.597 83.214,6.43 L82.99,6.299 L82.824,6.205 C82.743,6.156 82.697,6.064 82.708,5.969 C82.762,5.493 82.854,5.09 82.998,4.704 C83.036,4.611 83.078,4.517 83.121,4.425 M83.6,1.797 C83.407,1.797 83.209,1.808 83.005,1.83 C82.728,1.843 82.476,1.894 82.208,1.947 L81.914,2.002 C81.19,2.184 80.443,2.483 79.769,2.864 C79.336,3.202 78.925,3.583 78.553,3.993 L78.383,4.2 C78.153,4.478 77.937,4.742 77.768,5.018 L77.637,5.243 L77.544,5.407 C77.5,5.483 77.419,5.525 77.328,5.525 C77.321,5.525 77.314,5.525 77.308,5.524 C77.184,5.51 77.066,5.494 76.952,5.474 C76.919,5.524 76.887,5.573 76.858,5.622 L76.728,5.84 L76.632,6.011 C76.56,6.131 76.444,6.205 76.297,6.205 C76.279,6.205 76.262,6.204 76.244,6.202 C75.761,6.149 75.336,6.05 74.942,5.903 C74.386,5.676 73.844,5.35 73.365,4.958 L73.158,4.767 C72.994,4.615 72.83,4.462 72.702,4.295 C72.625,4.21 72.548,4.119 72.475,4.025 C72.479,4.082 72.484,4.139 72.49,4.196 C72.502,4.461 72.553,4.721 72.607,4.996 L72.664,5.299 C72.861,6.086 73.191,6.89 73.61,7.609 C74.065,8.352 74.66,9.068 75.331,9.679 L75.539,9.849 C75.818,10.078 76.08,10.295 76.356,10.463 L76.582,10.594 L76.746,10.687 C76.828,10.737 76.874,10.83 76.863,10.924 C76.809,11.402 76.716,11.805 76.572,12.188 C76.354,12.723 76.038,13.251 75.654,13.722 L75.46,13.929 C75.321,14.079 75.179,14.233 75.016,14.359 C74.814,14.542 74.591,14.712 74.369,14.851 C74.231,14.943 74.089,15.03 73.946,15.11 C73.779,15.252 73.594,15.389 73.405,15.506 C73.362,15.535 73.319,15.563 73.275,15.591 C73.497,15.649 73.94,15.74 74.589,15.765 C74.694,15.771 74.801,15.774 74.909,15.774 C75.112,15.774 75.32,15.764 75.535,15.741 C75.8,15.73 76.059,15.679 76.335,15.625 L76.638,15.567 C76.681,15.556 76.725,15.545 76.769,15.533 C77.131,15.382 77.486,15.205 77.823,15.009 C78.551,14.563 79.257,13.978 79.856,13.318 L80.036,13.099 C80.256,12.831 80.463,12.578 80.62,12.317 L80.751,12.098 L80.846,11.928 C80.918,11.808 81.042,11.734 81.185,11.734 C81.201,11.734 81.218,11.735 81.234,11.737 C81.445,11.761 81.641,11.792 81.828,11.831 L81.933,11.651 L82.027,11.486 C82.07,11.414 82.146,11.367 82.229,11.367 C82.24,11.367 82.252,11.367 82.263,11.369 C82.739,11.423 83.141,11.515 83.528,11.659 C84.063,11.877 84.59,12.193 85.062,12.577 L85.268,12.772 C85.418,12.911 85.573,13.053 85.697,13.216 C85.766,13.291 85.832,13.369 85.896,13.45 C85.891,13.379 85.885,13.308 85.878,13.237 L85.876,13.211 C85.866,12.96 85.815,12.71 85.763,12.444 L85.707,12.145 C85.512,11.378 85.19,10.588 84.778,9.885 C84.336,9.161 83.75,8.456 83.088,7.852 L82.868,7.673 C82.6,7.452 82.347,7.245 82.087,7.088 L81.871,6.96 L81.697,6.863 C81.563,6.781 81.488,6.63 81.506,6.475 C81.56,5.995 81.657,5.57 81.805,5.173 C82.031,4.619 82.356,4.077 82.75,3.595 L82.945,3.386 C83.095,3.223 83.248,3.061 83.414,2.934 C83.611,2.752 83.843,2.576 84.073,2.432 C84.368,2.235 84.69,2.057 84.985,1.925 C84.743,1.876 84.389,1.826 83.929,1.808 C83.82,1.801 83.711,1.797 83.6,1.797 M72.704,1.69 L72.649,1.907 C72.612,2.042 72.56,2.272 72.519,2.595 C72.605,2.765 72.721,2.972 72.875,3.203 C72.999,3.403 73.145,3.594 73.317,3.784 C73.438,3.941 73.57,4.059 73.699,4.177 L73.898,4.363 C74.29,4.682 74.761,4.965 75.233,5.158 C75.488,5.253 75.761,5.323 76.072,5.372 L76.136,5.267 C76.105,5.256 76.074,5.245 76.043,5.233 C75.508,5.015 74.98,4.698 74.509,4.313 L74.306,4.123 C74.155,3.984 73.999,3.842 73.873,3.677 C73.693,3.478 73.523,3.256 73.382,3.031 C73.128,2.652 72.908,2.233 72.781,1.892 L72.704,1.69 M85.11,1.134 C85.227,1.157 85.339,1.182 85.443,1.209 L85.937,1.338 C86.037,1.364 86.121,1.426 86.174,1.509 C86.231,1.485 86.286,1.462 86.34,1.442 L86.541,1.365 L86.324,1.31 C86.126,1.256 85.717,1.167 85.11,1.134" id="Fill-55" fill="#389591" sketch:type="MSShapeGroup"></path>
            <path d="M73.946,15.11 C73.696,15.251 73.448,15.369 73.23,15.45 L73.03,15.527 L73.246,15.583 C73.255,15.585 73.265,15.588 73.275,15.591 C73.319,15.563 73.362,15.535 73.405,15.506 C73.594,15.389 73.779,15.252 73.946,15.11 M81.185,11.734 C81.042,11.734 80.918,11.808 80.846,11.928 L80.751,12.098 L80.62,12.317 C80.463,12.578 80.256,12.831 80.036,13.099 L79.856,13.318 C79.257,13.978 78.551,14.563 77.823,15.009 C77.486,15.205 77.131,15.382 76.769,15.533 C77.516,15.333 78.272,15.017 78.948,14.621 C79.688,14.169 80.406,13.574 81.018,12.902 L81.192,12.687 C81.42,12.411 81.635,12.15 81.802,11.875 L81.828,11.831 C81.641,11.792 81.445,11.761 81.234,11.737 C81.218,11.735 81.201,11.734 81.185,11.734 M72.519,2.595 C72.496,2.783 72.476,3.001 72.467,3.25 C72.452,3.499 72.454,3.758 72.475,4.025 C72.548,4.119 72.625,4.21 72.702,4.295 C72.83,4.462 72.994,4.615 73.158,4.767 L73.365,4.958 C73.844,5.35 74.386,5.676 74.942,5.903 C75.336,6.05 75.761,6.149 76.244,6.202 C76.262,6.204 76.279,6.205 76.297,6.205 C76.444,6.205 76.56,6.131 76.632,6.011 L76.728,5.84 L76.858,5.622 C76.887,5.573 76.919,5.524 76.952,5.474 C76.659,5.425 76.393,5.357 76.136,5.267 L76.072,5.372 C75.761,5.323 75.488,5.253 75.233,5.158 C74.761,4.965 74.29,4.682 73.898,4.363 L73.699,4.177 C73.57,4.059 73.438,3.941 73.317,3.784 C73.145,3.594 72.999,3.403 72.875,3.203 C72.721,2.972 72.605,2.765 72.519,2.595 M84.654,1.117 C84.453,1.117 84.247,1.129 84.035,1.152 C83.77,1.163 83.511,1.214 83.236,1.267 L82.933,1.326 C82.146,1.522 81.341,1.852 80.622,2.271 C80.332,2.449 80.046,2.647 79.769,2.864 C80.443,2.483 81.19,2.184 81.914,2.002 L82.208,1.947 C82.476,1.894 82.728,1.843 83.005,1.83 C83.209,1.808 83.407,1.797 83.6,1.797 C83.711,1.797 83.82,1.801 83.929,1.808 C84.389,1.826 84.743,1.876 84.985,1.925 C84.69,2.057 84.368,2.235 84.073,2.432 C83.843,2.576 83.611,2.752 83.414,2.934 C83.248,3.061 83.095,3.223 82.945,3.386 L82.75,3.595 C82.356,4.077 82.031,4.619 81.805,5.173 C81.657,5.57 81.56,5.995 81.506,6.475 C81.488,6.63 81.563,6.781 81.697,6.863 L81.871,6.96 L82.087,7.088 C82.347,7.245 82.6,7.452 82.868,7.673 L83.088,7.852 C83.75,8.456 84.336,9.161 84.778,9.885 C85.19,10.588 85.512,11.378 85.707,12.145 L85.763,12.444 C85.815,12.71 85.866,12.96 85.876,13.211 L85.878,13.237 C85.885,13.308 85.891,13.379 85.896,13.45 C86.003,13.584 86.103,13.723 86.19,13.862 C86.374,14.138 86.539,14.434 86.665,14.706 C86.682,14.54 86.694,14.37 86.7,14.198 C86.721,13.87 86.712,13.523 86.675,13.165 C86.661,12.869 86.606,12.589 86.549,12.291 L86.488,11.977 C86.271,11.11 85.917,10.247 85.465,9.476 C84.981,8.681 84.345,7.915 83.608,7.244 L83.376,7.055 C83.098,6.826 82.811,6.59 82.518,6.413 L82.336,6.303 C82.385,5.995 82.456,5.717 82.55,5.464 C82.696,5.107 82.895,4.749 83.121,4.425 C83.329,3.986 83.601,3.559 83.918,3.17 L84.109,2.967 C84.247,2.817 84.39,2.66 84.555,2.535 C84.753,2.354 84.976,2.183 85.2,2.043 C85.521,1.829 85.868,1.639 86.174,1.509 C86.121,1.426 86.037,1.364 85.937,1.338 L85.443,1.209 C85.339,1.182 85.227,1.157 85.11,1.134 C85.068,1.132 85.025,1.13 84.981,1.128 C84.873,1.121 84.764,1.117 84.654,1.117" id="Fill-56" fill="#067B75" sketch:type="MSShapeGroup"></path>
            <path d="M71.977,3.274 C71.961,3.581 71.97,3.909 72.005,4.231 C72.015,4.519 72.07,4.796 72.128,5.089 L72.187,5.401 C72.4,6.249 72.747,7.098 73.193,7.859 C73.672,8.645 74.298,9.398 75.014,10.049 L75.23,10.226 C75.509,10.455 75.798,10.693 76.094,10.873 L76.35,11.024 L76.358,11.028 C76.308,11.396 76.23,11.714 76.118,12.011 C75.971,12.373 75.771,12.735 75.537,13.07 C75.325,13.515 75.05,13.949 74.728,14.344 L74.536,14.55 C74.385,14.714 74.231,14.877 74.065,15.005 C74.026,15.041 73.987,15.076 73.946,15.11 C74.089,15.03 74.231,14.943 74.369,14.851 C74.591,14.712 74.814,14.542 75.016,14.359 C75.179,14.233 75.321,14.079 75.46,13.929 L75.654,13.722 C76.038,13.251 76.354,12.723 76.572,12.188 C76.716,11.805 76.809,11.402 76.863,10.924 C76.874,10.83 76.828,10.737 76.746,10.687 L76.582,10.594 L76.356,10.463 C76.08,10.295 75.818,10.078 75.539,9.849 L75.331,9.679 C74.66,9.068 74.065,8.352 73.61,7.609 C73.191,6.89 72.861,6.086 72.664,5.299 L72.607,4.996 C72.553,4.721 72.502,4.461 72.49,4.196 C72.484,4.139 72.479,4.082 72.475,4.025 C72.377,3.899 72.284,3.768 72.202,3.637 C72.124,3.519 72.048,3.397 71.977,3.274 M84.949,2.836 C84.802,2.917 84.652,3.008 84.506,3.105 C84.305,3.229 84.115,3.377 83.926,3.548 C83.769,3.669 83.651,3.8 83.534,3.928 L83.345,4.128 C83.268,4.223 83.193,4.322 83.121,4.425 C83.078,4.517 83.036,4.611 82.998,4.704 C82.854,5.09 82.762,5.493 82.708,5.969 C82.697,6.064 82.743,6.156 82.824,6.205 L82.99,6.299 L83.214,6.43 C83.488,6.597 83.75,6.812 84.027,7.04 L84.24,7.214 C84.913,7.826 85.508,8.543 85.96,9.284 C86.379,9.999 86.708,10.804 86.906,11.594 L86.964,11.896 C87.018,12.172 87.069,12.431 87.079,12.68 L87.08,12.696 C87.115,13.025 87.122,13.341 87.104,13.643 C87.077,14.319 86.979,14.772 86.923,14.986 L86.867,15.203 L86.789,15.001 C86.754,14.908 86.713,14.809 86.665,14.706 C86.632,15.045 86.579,15.363 86.51,15.632 L86.51,15.633 C86.546,15.726 86.637,15.789 86.738,15.789 L87.03,15.789 C87.142,15.789 87.238,15.714 87.267,15.605 L87.395,15.109 C87.501,14.712 87.571,14.197 87.59,13.667 C87.61,13.347 87.602,13.007 87.566,12.653 C87.554,12.369 87.499,12.094 87.443,11.804 L87.383,11.491 C87.17,10.641 86.824,9.792 86.378,9.033 C85.901,8.251 85.276,7.496 84.558,6.844 L84.336,6.663 C84.058,6.434 83.77,6.198 83.477,6.02 L83.224,5.87 L83.212,5.864 C83.263,5.497 83.341,5.181 83.452,4.882 C83.65,4.398 83.941,3.912 84.28,3.495 L84.467,3.297 C84.597,3.156 84.72,3.022 84.866,2.91 C84.894,2.884 84.922,2.86 84.949,2.836 M72.833,1.104 L72.54,1.104 C72.429,1.104 72.332,1.179 72.304,1.287 L72.179,1.776 L72.336,2.187 C72.365,2.263 72.423,2.406 72.519,2.595 C72.56,2.272 72.612,2.042 72.649,1.907 L72.704,1.69 L72.781,1.892 C72.908,2.233 73.128,2.652 73.382,3.031 C73.523,3.256 73.693,3.478 73.873,3.677 C73.999,3.842 74.155,3.984 74.306,4.123 L74.509,4.313 C74.98,4.698 75.508,5.015 76.043,5.233 C76.074,5.245 76.105,5.256 76.136,5.267 L76.184,5.189 C76.253,5.074 76.332,4.96 76.416,4.847 C76.35,4.826 76.285,4.803 76.221,4.779 C75.737,4.582 75.251,4.291 74.834,3.951 L74.636,3.765 C74.494,3.635 74.36,3.512 74.248,3.365 C74.074,3.172 73.921,2.973 73.791,2.767 C73.554,2.411 73.352,2.031 73.237,1.719 L73.061,1.26 C73.024,1.166 72.934,1.104 72.833,1.104 M84.66,0.63 C84.444,0.63 84.221,0.643 84,0.666 C83.713,0.677 83.435,0.731 83.142,0.789 L82.83,0.848 C82.399,0.956 81.966,1.1 81.545,1.273 C81.612,1.255 81.679,1.237 81.745,1.221 L82.054,1.161 C82.358,1.102 82.644,1.045 82.946,1.033 C83.167,1.01 83.394,0.998 83.614,0.998 C83.735,0.998 83.854,1.002 83.97,1.009 C84.37,1.024 84.765,1.068 85.11,1.134 C85.717,1.167 86.126,1.256 86.324,1.31 L86.541,1.365 L86.34,1.442 C86.286,1.462 86.231,1.485 86.174,1.509 C86.214,1.572 86.237,1.646 86.237,1.725 L86.237,2.014 C86.333,1.97 86.426,1.931 86.513,1.898 L86.972,1.722 C87.065,1.685 87.128,1.595 87.128,1.494 L87.128,1.201 C87.128,1.09 87.053,0.993 86.945,0.965 L86.448,0.838 C86.053,0.731 85.539,0.661 85.006,0.641 C84.893,0.634 84.777,0.63 84.66,0.63" id="Fill-57" fill="#389591" sketch:type="MSShapeGroup"></path>
            <path d="M75.537,13.07 C75.459,13.182 75.377,13.291 75.292,13.396 L75.101,13.599 C74.972,13.739 74.85,13.872 74.704,13.984 C74.508,14.161 74.308,14.314 74.105,14.44 C73.75,14.678 73.369,14.879 73.058,14.994 L72.599,15.171 C72.505,15.207 72.443,15.298 72.443,15.398 L72.443,15.691 C72.443,15.803 72.518,15.9 72.626,15.928 L72.66,15.937 C72.862,15.837 73.073,15.719 73.275,15.591 C73.265,15.588 73.255,15.585 73.246,15.583 L73.03,15.527 L73.23,15.45 C73.448,15.369 73.696,15.251 73.946,15.11 C73.987,15.076 74.026,15.041 74.065,15.005 C74.231,14.877 74.385,14.714 74.536,14.55 L74.728,14.344 C75.05,13.949 75.325,13.515 75.537,13.07 M72.179,1.776 L72.177,1.784 C72.07,2.179 72,2.692 71.98,3.225 C71.979,3.242 71.978,3.258 71.977,3.274 C72.048,3.397 72.124,3.519 72.202,3.637 C72.284,3.768 72.377,3.899 72.475,4.025 C72.454,3.758 72.452,3.499 72.467,3.25 C72.476,3.001 72.496,2.783 72.519,2.595 C72.423,2.406 72.365,2.263 72.336,2.187 L72.179,1.776" id="Fill-58" fill="#067B75" sketch:type="MSShapeGroup"></path>
            <path d="M76.769,15.533 C76.725,15.545 76.681,15.556 76.638,15.567 L76.335,15.625 C76.059,15.679 75.8,15.73 75.535,15.741 C75.32,15.764 75.112,15.774 74.909,15.774 C74.801,15.774 74.694,15.771 74.589,15.765 C73.94,15.74 73.497,15.649 73.275,15.591 C73.073,15.719 72.862,15.837 72.66,15.937 L73.122,16.054 C73.219,16.081 73.324,16.105 73.433,16.127 C73.471,16.129 73.51,16.13 73.549,16.132 C73.651,16.137 73.754,16.14 73.858,16.14 C74.058,16.14 74.263,16.13 74.473,16.11 C74.746,16.096 74.994,16.047 75.257,15.995 L75.563,15.937 C75.963,15.837 76.37,15.7 76.769,15.533 M81.405,12.566 L81.293,12.751 C81.118,13.041 80.882,13.329 80.653,13.607 L80.464,13.839 C80.046,14.298 79.589,14.719 79.11,15.09 C79.14,15.073 79.169,15.056 79.199,15.039 C79.981,14.561 80.735,13.937 81.388,13.219 L81.569,12.997 C81.661,12.885 81.754,12.772 81.844,12.656 C81.706,12.621 81.56,12.591 81.405,12.566 M82.229,11.367 C82.146,11.367 82.07,11.414 82.027,11.486 L81.933,11.651 L81.828,11.831 C81.997,11.867 82.159,11.91 82.317,11.961 L82.362,11.885 L82.367,11.873 C82.734,11.924 83.051,12.002 83.351,12.114 C83.834,12.31 84.32,12.601 84.736,12.94 L84.937,13.131 C85.078,13.26 85.211,13.382 85.322,13.528 C85.5,13.724 85.652,13.923 85.78,14.126 C85.819,14.185 85.857,14.245 85.894,14.305 C85.897,14.257 85.899,14.208 85.901,14.158 C85.915,13.928 85.913,13.692 85.896,13.45 C85.832,13.369 85.766,13.291 85.697,13.216 C85.573,13.053 85.418,12.911 85.268,12.772 L85.062,12.577 C84.59,12.193 84.063,11.877 83.528,11.659 C83.141,11.515 82.739,11.423 82.263,11.369 C82.252,11.367 82.24,11.367 82.229,11.367 M79.769,2.864 C79.731,2.886 79.693,2.908 79.655,2.93 C78.929,3.373 78.223,3.959 77.621,4.62 L77.454,4.826 C77.272,5.048 77.097,5.26 76.952,5.474 C77.066,5.494 77.184,5.51 77.308,5.524 C77.314,5.525 77.321,5.525 77.328,5.525 C77.419,5.525 77.5,5.483 77.544,5.407 L77.637,5.243 L77.768,5.018 C77.937,4.742 78.153,4.478 78.383,4.2 L78.553,3.993 C78.925,3.583 79.336,3.202 79.769,2.864" id="Fill-59" fill="#389591" sketch:type="MSShapeGroup"></path>
            <path d="M85.896,13.45 C85.913,13.692 85.915,13.928 85.901,14.158 C85.899,14.208 85.897,14.257 85.894,14.305 C86.081,14.606 86.237,14.914 86.333,15.174 L86.51,15.632 C86.579,15.363 86.632,15.045 86.665,14.706 C86.539,14.434 86.374,14.138 86.19,13.862 C86.103,13.723 86.003,13.584 85.896,13.45 M81.828,11.831 L81.802,11.875 C81.635,12.15 81.42,12.411 81.192,12.687 L81.018,12.902 C80.406,13.574 79.688,14.169 78.948,14.621 C78.272,15.017 77.516,15.333 76.769,15.533 C76.37,15.7 75.963,15.837 75.563,15.937 L75.257,15.995 C74.994,16.047 74.746,16.096 74.473,16.11 C74.263,16.13 74.058,16.14 73.858,16.14 C73.754,16.14 73.651,16.137 73.549,16.132 C73.51,16.13 73.471,16.129 73.433,16.127 C73.771,16.193 74.162,16.236 74.565,16.251 C74.68,16.259 74.798,16.263 74.918,16.263 C75.132,16.263 75.352,16.25 75.57,16.226 C75.858,16.216 76.135,16.162 76.428,16.103 L76.74,16.044 C77.558,15.84 78.374,15.511 79.11,15.09 C79.589,14.719 80.046,14.298 80.464,13.839 L80.653,13.607 C80.882,13.329 81.118,13.041 81.293,12.751 L81.405,12.566 C81.56,12.591 81.706,12.621 81.844,12.656 C81.978,12.486 82.106,12.313 82.212,12.138 L82.317,11.961 C82.159,11.91 81.997,11.867 81.828,11.831 M86.174,1.509 C85.868,1.639 85.521,1.829 85.2,2.043 C84.976,2.183 84.753,2.354 84.555,2.535 C84.39,2.66 84.247,2.817 84.109,2.967 L83.918,3.17 C83.601,3.559 83.329,3.986 83.121,4.425 C83.193,4.322 83.268,4.223 83.345,4.128 L83.534,3.928 C83.651,3.8 83.769,3.669 83.926,3.548 C84.115,3.377 84.305,3.229 84.506,3.105 C84.652,3.008 84.802,2.917 84.949,2.836 C85.117,2.691 85.288,2.563 85.465,2.452 C85.721,2.282 85.99,2.129 86.237,2.014 L86.237,1.725 C86.237,1.646 86.214,1.572 86.174,1.509 M83.614,0.998 C83.394,0.998 83.167,1.01 82.946,1.033 C82.644,1.045 82.358,1.102 82.054,1.161 L81.745,1.221 C81.679,1.237 81.612,1.255 81.545,1.273 C81.14,1.44 80.745,1.635 80.372,1.853 C79.587,2.333 78.833,2.959 78.182,3.675 L78.006,3.89 C77.776,4.17 77.538,4.459 77.358,4.755 L77.208,5.011 L77.203,5.02 C76.915,4.98 76.657,4.923 76.416,4.847 C76.332,4.96 76.253,5.074 76.184,5.189 L76.136,5.267 C76.393,5.357 76.659,5.425 76.952,5.474 C77.097,5.26 77.272,5.048 77.454,4.826 L77.621,4.62 C78.223,3.959 78.929,3.373 79.655,2.93 C79.693,2.908 79.731,2.886 79.769,2.864 C80.046,2.647 80.332,2.449 80.622,2.271 C81.341,1.852 82.146,1.522 82.933,1.326 L83.236,1.267 C83.511,1.214 83.77,1.163 84.035,1.152 C84.247,1.129 84.453,1.117 84.654,1.117 C84.764,1.117 84.873,1.121 84.981,1.128 C85.025,1.13 85.068,1.132 85.11,1.134 C84.765,1.068 84.37,1.024 83.97,1.009 C83.854,1.002 83.735,0.998 83.614,0.998" id="Fill-60" fill="#067B75" sketch:type="MSShapeGroup"></path>
            <path d="M79.802,8.97 C79.802,9.557 79.326,10.033 78.739,10.033 C78.151,10.033 77.675,9.557 77.675,8.97 C77.675,8.382 78.151,7.906 78.739,7.906 C79.326,7.906 79.802,8.382 79.802,8.97" id="Fill-61" fill="#DAF6F2" sketch:type="MSShapeGroup"></path>
            <path d="M78.738,10.434 C77.932,10.434 77.274,9.776 77.274,8.97 C77.274,8.163 77.932,7.506 78.738,7.506 C79.545,7.506 80.202,8.163 80.202,8.97 C80.202,9.776 79.545,10.434 78.738,10.434 L78.738,10.434 Z M78.738,8.307 C78.372,8.307 78.075,8.604 78.075,8.97 C78.075,9.336 78.372,9.633 78.738,9.633 C79.105,9.633 79.401,9.336 79.401,8.97 C79.401,8.604 79.105,8.307 78.738,8.307 L78.738,8.307 Z" id="Fill-62" fill="#067B75" sketch:type="MSShapeGroup"></path>
            <path d="M5.408,49.456 C5.257,49.456 5.115,49.369 5.048,49.228 L4.959,49.043 C4.887,48.894 4.915,48.716 5.028,48.595 L5.264,48.345 C5.338,48.268 5.526,48.059 5.729,47.715 C5.817,47.576 5.891,47.431 5.954,47.274 C6.017,47.147 6.049,47.034 6.083,46.924 L6.143,46.735 C6.219,46.41 6.253,46.037 6.233,45.693 C6.219,45.536 6.188,45.375 6.14,45.2 L6.064,45.191 C5.832,45.169 5.572,45.107 5.31,45.043 L5.112,44.995 C4.424,44.791 3.777,44.494 3.217,44.132 C2.683,43.773 2.189,43.326 1.779,42.836 L1.641,42.649 C1.506,42.468 1.38,42.296 1.281,42.112 C1.151,41.901 1.038,41.677 0.95,41.462 C0.75,41.004 0.661,40.654 0.621,40.442 L0.551,40.091 C0.515,39.912 0.606,39.731 0.771,39.652 L0.958,39.563 C1.106,39.491 1.284,39.52 1.405,39.634 L1.654,39.87 C1.731,39.943 1.936,40.128 2.285,40.335 C2.423,40.421 2.568,40.495 2.727,40.559 C2.854,40.622 2.966,40.654 3.075,40.687 L3.266,40.747 C3.59,40.823 3.964,40.861 4.306,40.837 C4.463,40.823 4.626,40.792 4.799,40.745 L4.808,40.669 C4.831,40.436 4.892,40.174 4.957,39.912 L5.004,39.717 C5.209,39.03 5.505,38.384 5.867,37.823 C6.229,37.286 6.675,36.792 7.164,36.385 L7.356,36.243 C7.535,36.108 7.705,35.984 7.887,35.887 C8.098,35.756 8.325,35.641 8.54,35.555 C8.993,35.357 9.344,35.267 9.556,35.227 L9.909,35.156 C10.084,35.126 10.268,35.212 10.347,35.376 L10.436,35.561 C10.507,35.71 10.48,35.888 10.367,36.008 L10.131,36.26 C10.057,36.337 9.872,36.542 9.665,36.89 C9.577,37.029 9.504,37.174 9.44,37.331 C9.377,37.458 9.345,37.572 9.311,37.684 L9.253,37.868 C9.176,38.194 9.14,38.568 9.162,38.912 C9.176,39.068 9.206,39.229 9.255,39.405 L9.331,39.414 C9.563,39.436 9.823,39.497 10.084,39.562 L10.283,39.61 C10.971,39.814 11.618,40.112 12.177,40.473 C12.714,40.834 13.208,41.28 13.615,41.77 L13.749,41.949 C13.883,42.129 14.008,42.3 14.107,42.481 C14.247,42.71 14.36,42.933 14.446,43.145 C14.642,43.597 14.734,43.947 14.774,44.161 L14.844,44.514 C14.879,44.693 14.789,44.872 14.626,44.951 L14.441,45.041 C14.291,45.111 14.113,45.087 13.992,44.973 L13.739,44.735 C13.663,44.661 13.457,44.477 13.11,44.271 C12.971,44.182 12.826,44.109 12.669,44.046 C12.54,43.982 12.429,43.95 12.319,43.917 L12.129,43.858 C11.805,43.781 11.431,43.747 11.088,43.768 C10.931,43.781 10.77,43.812 10.596,43.86 L10.586,43.936 C10.563,44.17 10.501,44.431 10.438,44.695 L10.391,44.889 C10.186,45.576 9.889,46.222 9.528,46.783 C9.166,47.318 8.719,47.814 8.231,48.22 L8.039,48.361 C7.86,48.496 7.689,48.621 7.507,48.719 C7.297,48.847 7.072,48.962 6.856,49.05 C6.499,49.205 6.134,49.323 5.837,49.379 L5.486,49.448 L5.408,49.456 M1.554,40.815 C1.59,40.915 1.634,41.028 1.687,41.15 C1.763,41.337 1.856,41.522 1.976,41.714 C2.068,41.886 2.172,42.023 2.281,42.17 L2.411,42.345 C2.755,42.756 3.191,43.151 3.658,43.464 C4.149,43.782 4.725,44.046 5.317,44.222 L5.5,44.266 C5.723,44.321 5.945,44.376 6.161,44.396 L6.33,44.411 L6.48,44.421 C6.634,44.436 6.766,44.541 6.817,44.689 C6.935,45.026 7.003,45.326 7.03,45.632 C7.057,46.067 7.015,46.521 6.911,46.957 L6.848,47.158 C6.801,47.312 6.751,47.468 6.683,47.603 C6.614,47.779 6.517,47.967 6.411,48.134 C6.348,48.24 6.279,48.345 6.209,48.446 C6.31,48.41 6.423,48.367 6.546,48.312 C6.731,48.237 6.918,48.143 7.109,48.024 C7.279,47.933 7.415,47.829 7.561,47.721 L7.74,47.588 C8.149,47.246 8.544,46.81 8.86,46.342 C9.177,45.852 9.44,45.275 9.618,44.682 L9.66,44.505 C9.715,44.279 9.772,44.056 9.792,43.838 L9.807,43.666 L9.816,43.524 C9.83,43.368 9.935,43.235 10.083,43.183 C10.421,43.065 10.721,42.997 11.027,42.97 C11.463,42.944 11.916,42.986 12.352,43.09 L12.552,43.151 C12.707,43.2 12.863,43.249 13,43.319 C13.174,43.387 13.362,43.484 13.528,43.589 C13.634,43.652 13.74,43.721 13.841,43.791 C13.805,43.689 13.761,43.577 13.708,43.455 C13.632,43.268 13.538,43.082 13.42,42.892 L13.406,42.87 C13.327,42.718 13.219,42.577 13.107,42.427 L12.983,42.26 C12.642,41.85 12.204,41.455 11.737,41.141 C11.246,40.823 10.67,40.559 10.077,40.382 L9.894,40.338 C9.671,40.284 9.45,40.229 9.235,40.208 L9.061,40.193 L8.919,40.185 C8.763,40.17 8.629,40.065 8.577,39.917 C8.46,39.579 8.392,39.279 8.365,38.973 C8.338,38.537 8.38,38.083 8.486,37.647 L8.546,37.451 C8.593,37.295 8.643,37.138 8.712,37.001 C8.781,36.826 8.878,36.637 8.984,36.471 C9.047,36.365 9.116,36.26 9.186,36.159 C9.084,36.196 8.972,36.24 8.85,36.293 C8.662,36.368 8.477,36.463 8.286,36.58 C8.116,36.671 7.98,36.776 7.834,36.884 L7.654,37.017 C7.244,37.359 6.85,37.796 6.535,38.264 C6.218,38.755 5.954,39.331 5.777,39.922 L5.735,40.103 C5.68,40.326 5.623,40.55 5.603,40.768 L5.588,40.94 L5.579,41.08 C5.565,41.236 5.461,41.37 5.314,41.421 C4.984,41.537 4.675,41.607 4.368,41.635 C3.933,41.664 3.478,41.621 3.042,41.515 L2.843,41.453 C2.687,41.405 2.531,41.356 2.394,41.286 C2.223,41.218 2.034,41.122 1.868,41.018 C1.761,40.954 1.656,40.886 1.554,40.815" id="Fill-63" fill="#067B75" sketch:type="MSShapeGroup"></path>
            <path d="M1.77,39.737 C1.787,39.814 1.813,39.915 1.851,40.039 C1.958,40.123 2.101,40.226 2.285,40.335 C2.423,40.421 2.568,40.495 2.727,40.559 C2.854,40.622 2.966,40.654 3.075,40.687 L3.266,40.747 C3.524,40.808 3.814,40.844 4.094,40.844 C4.166,40.844 4.237,40.842 4.306,40.837 C4.329,40.835 4.352,40.833 4.375,40.83 C4.11,40.815 3.843,40.776 3.581,40.713 L3.389,40.652 C3.244,40.608 3.097,40.562 2.969,40.497 C2.79,40.425 2.61,40.333 2.453,40.233 C2.203,40.086 1.956,39.907 1.77,39.737 M9.182,39.076 C9.199,39.181 9.223,39.29 9.255,39.405 L9.331,39.414 C9.563,39.436 9.823,39.497 10.084,39.562 L10.283,39.61 C10.971,39.814 11.618,40.112 12.177,40.473 C12.714,40.834 13.208,41.28 13.615,41.77 L13.749,41.949 C13.883,42.129 14.008,42.3 14.107,42.481 C14.247,42.71 14.36,42.933 14.446,43.145 C14.507,43.287 14.559,43.419 14.601,43.539 C14.611,43.548 14.621,43.557 14.631,43.565 C14.596,43.4 14.519,43.119 14.354,42.742 C14.276,42.548 14.176,42.354 14.056,42.157 L14.049,42.145 C13.968,41.995 13.858,41.847 13.74,41.691 L13.613,41.517 C13.254,41.087 12.806,40.682 12.328,40.361 C11.823,40.033 11.232,39.762 10.627,39.582 L10.436,39.536 C10.195,39.478 9.969,39.423 9.753,39.403 L9.576,39.387 L9.435,39.377 C9.341,39.368 9.26,39.304 9.229,39.215 C9.212,39.168 9.197,39.122 9.182,39.076 M9.186,36.159 C9.084,36.196 8.972,36.24 8.85,36.293 C8.662,36.368 8.477,36.463 8.286,36.58 C8.116,36.671 7.98,36.776 7.834,36.884 L7.654,37.017 C7.244,37.359 6.85,37.796 6.535,38.264 C6.491,38.332 6.447,38.403 6.405,38.475 C6.3,38.719 6.208,38.971 6.131,39.227 L6.085,39.421 C6.026,39.659 5.971,39.885 5.951,40.101 L5.936,40.281 L5.928,40.416 C5.919,40.511 5.856,40.592 5.766,40.624 C5.715,40.642 5.664,40.658 5.614,40.674 C5.609,40.706 5.606,40.737 5.603,40.768 L5.588,40.94 L5.579,41.08 C5.565,41.236 5.461,41.37 5.314,41.421 C4.984,41.537 4.675,41.607 4.368,41.635 C4.279,41.641 4.189,41.644 4.098,41.644 C3.747,41.644 3.389,41.599 3.042,41.515 L2.843,41.453 C2.706,41.411 2.567,41.367 2.443,41.31 C2.51,41.411 2.583,41.51 2.66,41.612 L2.788,41.786 C3.149,42.217 3.597,42.622 4.074,42.944 C4.581,43.272 5.171,43.541 5.775,43.722 L5.968,43.768 C6.207,43.826 6.433,43.882 6.649,43.902 L6.825,43.917 L6.967,43.927 C7.061,43.936 7.141,43.999 7.173,44.088 C7.284,44.405 7.35,44.702 7.378,44.995 C7.403,45.41 7.363,45.849 7.262,46.272 L7.202,46.462 C7.158,46.609 7.111,46.755 7.046,46.884 C6.975,47.058 6.885,47.237 6.783,47.398 C6.771,47.419 6.759,47.44 6.746,47.46 C6.727,47.51 6.706,47.558 6.683,47.603 C6.626,47.745 6.552,47.896 6.47,48.037 C6.632,47.992 6.849,47.92 7.112,47.806 C7.304,47.728 7.498,47.628 7.695,47.507 C7.858,47.42 8.005,47.31 8.161,47.193 L8.176,47.182 C8.425,46.925 8.658,46.64 8.86,46.342 C9.177,45.852 9.44,45.275 9.618,44.682 L9.66,44.505 C9.715,44.279 9.772,44.056 9.792,43.838 L9.807,43.666 L9.816,43.524 C9.83,43.368 9.935,43.235 10.083,43.183 C10.215,43.137 10.34,43.099 10.463,43.068 L10.466,43.028 L10.475,42.885 C10.484,42.791 10.548,42.711 10.638,42.68 C10.964,42.566 11.252,42.501 11.544,42.475 C11.624,42.47 11.705,42.468 11.786,42.468 C12.131,42.468 12.479,42.51 12.82,42.591 L13.011,42.651 C13.126,42.686 13.241,42.722 13.347,42.767 C13.277,42.653 13.193,42.543 13.107,42.427 L12.983,42.26 C12.642,41.85 12.204,41.455 11.737,41.141 C11.246,40.823 10.67,40.559 10.077,40.382 L9.894,40.338 C9.671,40.284 9.45,40.229 9.235,40.208 L9.061,40.193 L8.919,40.185 C8.763,40.17 8.629,40.065 8.577,39.917 C8.46,39.579 8.392,39.279 8.365,38.973 C8.338,38.537 8.38,38.083 8.486,37.647 L8.546,37.451 C8.593,37.295 8.643,37.138 8.712,37.001 C8.781,36.826 8.878,36.637 8.984,36.471 C9.047,36.365 9.116,36.26 9.186,36.159" id="Fill-64" fill="#389591" sketch:type="MSShapeGroup"></path>
            <path d="M6.746,47.46 C6.605,47.689 6.442,47.911 6.287,48.082 C6.338,48.072 6.398,48.057 6.47,48.037 C6.552,47.896 6.626,47.745 6.683,47.603 C6.706,47.558 6.727,47.51 6.746,47.46 M10.463,43.068 C10.34,43.099 10.215,43.137 10.083,43.183 C9.935,43.235 9.83,43.368 9.816,43.524 L9.807,43.666 L9.792,43.838 C9.772,44.056 9.715,44.279 9.66,44.505 L9.618,44.682 C9.44,45.275 9.177,45.852 8.86,46.342 C8.658,46.64 8.425,46.925 8.176,47.182 L8.335,47.065 C8.765,46.706 9.17,46.258 9.492,45.779 C9.82,45.272 10.09,44.682 10.27,44.078 L10.316,43.883 C10.375,43.645 10.431,43.419 10.451,43.203 L10.463,43.068 M1.851,40.039 C1.896,40.184 1.959,40.36 2.047,40.563 C2.125,40.754 2.225,40.949 2.346,41.147 C2.376,41.203 2.408,41.257 2.443,41.31 C2.567,41.367 2.706,41.411 2.843,41.453 L3.042,41.515 C3.389,41.599 3.747,41.644 4.098,41.644 C4.189,41.644 4.279,41.641 4.368,41.635 C4.675,41.607 4.984,41.537 5.314,41.421 C5.461,41.37 5.565,41.236 5.579,41.08 L5.588,40.94 L5.603,40.768 C5.606,40.737 5.609,40.706 5.614,40.674 C5.353,40.756 5.104,40.806 4.858,40.83 C4.777,40.834 4.695,40.837 4.614,40.837 C4.534,40.837 4.454,40.834 4.375,40.83 C4.352,40.833 4.329,40.835 4.306,40.837 C4.237,40.842 4.166,40.844 4.094,40.844 C3.814,40.844 3.524,40.808 3.266,40.747 L3.075,40.687 C2.966,40.654 2.854,40.622 2.727,40.559 C2.568,40.495 2.423,40.421 2.285,40.335 C2.101,40.226 1.958,40.123 1.851,40.039 M10.114,35.222 C9.947,35.259 9.663,35.336 9.29,35.498 C9.096,35.577 8.902,35.677 8.708,35.797 C8.543,35.885 8.394,35.996 8.237,36.113 L8.067,36.24 C7.635,36.6 7.23,37.048 6.909,37.526 C6.72,37.817 6.55,38.138 6.405,38.475 C6.447,38.403 6.491,38.332 6.535,38.264 C6.85,37.796 7.244,37.359 7.654,37.017 L7.834,36.884 C7.98,36.776 8.116,36.671 8.286,36.58 C8.477,36.463 8.662,36.368 8.85,36.293 C8.972,36.24 9.084,36.196 9.186,36.159 C9.116,36.26 9.047,36.365 8.984,36.471 C8.878,36.637 8.781,36.826 8.712,37.001 C8.643,37.138 8.593,37.295 8.546,37.451 L8.486,37.647 C8.38,38.083 8.338,38.537 8.365,38.973 C8.392,39.279 8.46,39.579 8.577,39.917 C8.629,40.065 8.763,40.17 8.919,40.185 L9.061,40.193 L9.235,40.208 C9.45,40.229 9.671,40.284 9.894,40.338 L10.077,40.382 C10.67,40.559 11.246,40.823 11.737,41.141 C12.204,41.455 12.642,41.85 12.983,42.26 L13.107,42.427 C13.193,42.543 13.277,42.653 13.347,42.767 C13.376,42.779 13.405,42.793 13.433,42.806 C13.609,42.877 13.788,42.969 13.948,43.07 C14.186,43.211 14.419,43.379 14.601,43.539 C14.559,43.419 14.507,43.287 14.446,43.145 C14.36,42.933 14.247,42.71 14.107,42.481 C14.008,42.3 13.883,42.129 13.749,41.949 L13.615,41.77 C13.208,41.28 12.714,40.834 12.177,40.473 C11.618,40.112 10.971,39.814 10.283,39.61 L10.084,39.562 C9.823,39.497 9.563,39.436 9.331,39.414 L9.255,39.405 C9.223,39.29 9.199,39.181 9.182,39.076 C9.098,38.807 9.047,38.56 9.023,38.308 C8.999,37.894 9.039,37.456 9.14,37.033 L9.199,36.842 C9.244,36.696 9.29,36.549 9.356,36.42 C9.427,36.243 9.519,36.064 9.62,35.905 C9.768,35.654 9.946,35.407 10.114,35.222" id="Fill-65" fill="#067B75" sketch:type="MSShapeGroup"></path>
            <path d="M10.838,43.803 C10.76,43.818 10.679,43.837 10.596,43.86 L10.586,43.936 C10.563,44.17 10.501,44.431 10.438,44.695 L10.391,44.889 C10.3,45.193 10.192,45.489 10.067,45.773 C10.346,45.292 10.576,44.758 10.741,44.203 L10.79,43.999 C10.806,43.934 10.822,43.869 10.838,43.803 M1.654,40.882 C1.73,41.052 1.821,41.223 1.923,41.388 C2.02,41.572 2.141,41.733 2.27,41.905 L2.403,42.085 C2.803,42.565 3.286,43.001 3.806,43.35 C4.354,43.706 4.987,43.996 5.651,44.193 L5.852,44.242 C6.098,44.301 6.352,44.363 6.591,44.385 L6.763,44.402 C6.81,44.554 6.844,44.698 6.867,44.839 C6.955,45.117 7.007,45.372 7.03,45.632 C7.057,46.067 7.015,46.521 6.911,46.957 L6.848,47.158 C6.817,47.26 6.784,47.363 6.746,47.46 C6.759,47.44 6.771,47.419 6.783,47.398 C6.885,47.237 6.975,47.058 7.046,46.884 C7.111,46.755 7.158,46.609 7.202,46.462 L7.262,46.272 C7.363,45.849 7.403,45.41 7.378,44.995 C7.35,44.702 7.284,44.405 7.173,44.088 C7.141,43.999 7.061,43.936 6.967,43.927 L6.825,43.917 L6.649,43.902 C6.433,43.882 6.207,43.826 5.968,43.768 L5.775,43.722 C5.171,43.541 4.581,43.272 4.074,42.944 C3.597,42.622 3.149,42.217 2.788,41.786 L2.66,41.612 C2.583,41.51 2.51,41.411 2.443,41.31 C2.426,41.302 2.411,41.294 2.394,41.286 C2.223,41.218 2.034,41.122 1.868,41.018 C1.796,40.974 1.724,40.929 1.654,40.882 M1.635,39.03 C1.599,39.03 1.563,39.038 1.528,39.055 L1.342,39.143 C1.241,39.191 1.187,39.302 1.208,39.41 L1.234,39.538 C1.297,39.555 1.356,39.588 1.405,39.634 L1.654,39.87 C1.691,39.904 1.756,39.964 1.851,40.039 C1.813,39.915 1.787,39.814 1.77,39.737 C1.956,39.907 2.203,40.086 2.453,40.233 C2.61,40.333 2.79,40.425 2.969,40.497 C3.097,40.562 3.244,40.608 3.389,40.652 L3.581,40.713 C3.843,40.776 4.11,40.815 4.375,40.83 C4.51,40.814 4.651,40.785 4.799,40.745 L4.808,40.669 C4.819,40.564 4.837,40.453 4.86,40.339 C4.846,40.34 4.833,40.342 4.819,40.343 C4.755,40.346 4.69,40.348 4.625,40.348 C4.322,40.348 4.007,40.313 3.718,40.245 L3.531,40.185 C3.413,40.149 3.293,40.114 3.171,40.054 C3.001,39.984 2.848,39.907 2.709,39.817 C2.352,39.606 2.132,39.41 2.052,39.333 L1.8,39.097 C1.753,39.053 1.694,39.03 1.635,39.03 M9.73,36.784 C9.709,36.818 9.687,36.853 9.665,36.89 C9.577,37.029 9.504,37.174 9.44,37.331 C9.377,37.458 9.345,37.572 9.311,37.684 L9.253,37.868 C9.176,38.194 9.14,38.568 9.162,38.912 C9.167,38.966 9.174,39.021 9.182,39.076 C9.197,39.122 9.212,39.168 9.229,39.215 C9.26,39.304 9.341,39.368 9.435,39.377 L9.576,39.387 L9.753,39.403 C9.969,39.423 10.195,39.478 10.436,39.536 L10.627,39.582 C11.232,39.762 11.823,40.033 12.328,40.361 C12.806,40.682 13.254,41.087 13.613,41.517 L13.74,41.691 C13.858,41.847 13.968,41.995 14.049,42.145 L14.056,42.157 C14.176,42.354 14.276,42.548 14.354,42.742 C14.519,43.119 14.596,43.4 14.631,43.565 C14.621,43.557 14.611,43.548 14.601,43.539 C14.695,43.803 14.746,44.014 14.774,44.161 L14.796,44.272 C14.823,44.27 14.85,44.262 14.875,44.25 L15.061,44.16 C15.16,44.111 15.215,44.002 15.193,43.894 L15.123,43.541 C15.07,43.256 14.956,42.902 14.804,42.553 C14.718,42.342 14.607,42.125 14.475,41.909 C14.378,41.729 14.258,41.568 14.131,41.399 L13.998,41.219 C13.6,40.74 13.116,40.303 12.596,39.953 C12.049,39.599 11.416,39.308 10.752,39.112 L10.551,39.063 C10.305,39.003 10.051,38.94 9.812,38.918 L9.638,38.901 C9.57,38.678 9.528,38.473 9.51,38.271 C9.488,37.912 9.524,37.522 9.607,37.169 L9.666,36.984 C9.686,36.918 9.706,36.851 9.73,36.784 M10.491,34.653 C10.475,34.653 10.459,34.655 10.442,34.659 L10.089,34.729 C9.799,34.784 9.446,34.898 9.101,35.049 C8.887,35.136 8.669,35.248 8.466,35.374 C8.281,35.472 8.118,35.594 7.946,35.723 L7.768,35.854 C7.606,35.989 7.45,36.133 7.3,36.284 L7.356,36.243 C7.535,36.108 7.705,35.984 7.887,35.887 C8.098,35.756 8.325,35.641 8.54,35.555 C8.993,35.357 9.344,35.267 9.556,35.227 L9.909,35.156 C9.932,35.152 9.956,35.15 9.979,35.15 C10.132,35.15 10.278,35.234 10.347,35.376 L10.436,35.561 C10.439,35.569 10.442,35.576 10.445,35.584 C10.47,35.555 10.495,35.528 10.519,35.503 L10.757,35.251 C10.826,35.177 10.843,35.068 10.799,34.978 L10.709,34.792 C10.668,34.708 10.581,34.653 10.491,34.653" id="Fill-66" fill="#389591" sketch:type="MSShapeGroup"></path>
            <path d="M11.284,42.963 C11.198,42.963 11.112,42.965 11.027,42.97 C10.84,42.987 10.655,43.019 10.463,43.068 L10.451,43.203 C10.431,43.419 10.375,43.645 10.316,43.883 L10.27,44.078 C10.09,44.682 9.82,45.272 9.492,45.779 C9.17,46.258 8.765,46.706 8.335,47.065 L8.176,47.182 C8.035,47.328 7.889,47.464 7.74,47.588 L7.561,47.721 C7.415,47.829 7.279,47.933 7.109,48.024 C6.918,48.143 6.731,48.237 6.546,48.312 C6.423,48.367 6.31,48.41 6.209,48.446 C6.279,48.345 6.348,48.24 6.411,48.134 C6.431,48.102 6.451,48.07 6.47,48.037 C6.398,48.057 6.338,48.072 6.287,48.082 C6.442,47.911 6.605,47.689 6.746,47.46 C6.784,47.363 6.817,47.26 6.848,47.158 L6.911,46.957 C7.015,46.521 7.057,46.067 7.03,45.632 C7.007,45.372 6.955,45.117 6.867,44.839 C6.878,44.904 6.886,44.969 6.892,45.033 C6.914,45.393 6.878,45.781 6.794,46.135 L6.735,46.319 C6.7,46.438 6.664,46.559 6.603,46.682 C6.535,46.848 6.457,47.002 6.367,47.144 C6.156,47.501 5.958,47.722 5.882,47.801 L5.647,48.052 C5.577,48.125 5.559,48.234 5.603,48.325 L5.693,48.51 C5.733,48.596 5.819,48.649 5.912,48.649 L5.959,48.645 L6.313,48.574 C6.596,48.521 6.949,48.407 7.301,48.255 C7.512,48.169 7.731,48.057 7.937,47.929 C8.12,47.832 8.282,47.711 8.453,47.583 L8.633,47.449 C9.111,47.052 9.549,46.568 9.9,46.047 C9.957,45.958 10.013,45.866 10.067,45.773 C10.192,45.489 10.3,45.193 10.391,44.889 L10.438,44.695 C10.501,44.431 10.563,44.17 10.586,43.936 L10.596,43.86 C10.679,43.837 10.76,43.818 10.838,43.803 C10.881,43.621 10.919,43.437 10.935,43.262 L10.95,43.091 C11.15,43.029 11.334,42.99 11.514,42.969 C11.437,42.964 11.36,42.963 11.284,42.963 M1.234,39.538 L1.279,39.765 C1.333,40.053 1.447,40.405 1.598,40.751 C1.615,40.795 1.634,40.838 1.654,40.882 C1.724,40.929 1.796,40.974 1.868,41.018 C2.034,41.122 2.223,41.218 2.394,41.286 C2.411,41.294 2.426,41.302 2.443,41.31 C2.408,41.257 2.376,41.203 2.346,41.147 C2.225,40.949 2.125,40.754 2.047,40.563 C1.959,40.36 1.896,40.184 1.851,40.039 C1.756,39.964 1.691,39.904 1.654,39.87 L1.405,39.634 C1.356,39.588 1.297,39.555 1.234,39.538" id="Fill-67" fill="#067B75" sketch:type="MSShapeGroup"></path>
            <path d="M8.176,47.182 L8.161,47.193 C8.005,47.31 7.858,47.42 7.695,47.507 C7.498,47.628 7.304,47.728 7.112,47.806 C6.849,47.92 6.632,47.992 6.47,48.037 C6.451,48.07 6.431,48.102 6.411,48.134 C6.348,48.24 6.279,48.345 6.209,48.446 C6.31,48.41 6.423,48.367 6.546,48.312 C6.731,48.237 6.918,48.143 7.109,48.024 C7.279,47.933 7.415,47.829 7.561,47.721 L7.74,47.588 C7.889,47.464 8.035,47.328 8.176,47.182 M11.786,42.468 C11.705,42.468 11.624,42.47 11.544,42.475 C11.252,42.501 10.964,42.566 10.638,42.68 C10.548,42.711 10.484,42.791 10.475,42.885 L10.466,43.028 L10.463,43.068 C10.655,43.019 10.84,42.987 11.027,42.97 C11.112,42.965 11.198,42.963 11.284,42.963 C11.36,42.963 11.437,42.964 11.514,42.969 C11.537,42.966 11.56,42.964 11.582,42.961 C11.648,42.958 11.715,42.956 11.784,42.956 C12.081,42.956 12.395,42.99 12.684,43.059 L12.868,43.117 C12.988,43.153 13.107,43.189 13.23,43.25 C13.398,43.319 13.552,43.396 13.693,43.486 C13.706,43.494 13.719,43.501 13.731,43.509 C13.724,43.491 13.716,43.474 13.708,43.455 C13.632,43.268 13.538,43.082 13.42,42.892 L13.406,42.87 C13.388,42.835 13.368,42.801 13.347,42.767 C13.241,42.722 13.126,42.686 13.011,42.651 L12.82,42.591 C12.479,42.51 12.131,42.468 11.786,42.468 M6.405,38.475 C6.146,38.916 5.929,39.413 5.777,39.922 L5.735,40.103 C5.688,40.294 5.639,40.486 5.614,40.674 C5.664,40.658 5.715,40.642 5.766,40.624 C5.856,40.592 5.919,40.511 5.928,40.416 L5.936,40.281 L5.951,40.101 C5.971,39.885 6.026,39.659 6.085,39.421 L6.131,39.227 C6.208,38.971 6.3,38.719 6.405,38.475" id="Fill-68" fill="#389591" sketch:type="MSShapeGroup"></path>
            <path d="M13.347,42.767 C13.368,42.801 13.388,42.835 13.406,42.87 L13.42,42.892 C13.538,43.082 13.632,43.268 13.708,43.455 C13.716,43.474 13.724,43.491 13.731,43.509 C13.968,43.652 14.192,43.82 14.351,43.97 L14.6,44.207 C14.648,44.251 14.709,44.274 14.77,44.274 C14.778,44.274 14.787,44.273 14.796,44.272 L14.774,44.161 C14.746,44.014 14.695,43.803 14.601,43.539 C14.419,43.379 14.186,43.211 13.948,43.07 C13.788,42.969 13.609,42.877 13.433,42.806 C13.405,42.793 13.376,42.779 13.347,42.767 M9.979,35.15 C9.956,35.15 9.932,35.152 9.909,35.156 L9.556,35.227 C9.344,35.267 8.993,35.357 8.54,35.555 C8.325,35.641 8.098,35.756 7.887,35.887 C7.705,35.984 7.535,36.108 7.356,36.243 L7.3,36.284 C7.005,36.583 6.734,36.912 6.502,37.257 C6.15,37.803 5.859,38.434 5.66,39.101 L5.611,39.304 C5.551,39.55 5.489,39.804 5.467,40.042 L5.451,40.214 C5.244,40.278 5.049,40.318 4.86,40.339 C4.837,40.453 4.819,40.564 4.808,40.669 L4.799,40.745 C4.651,40.785 4.51,40.814 4.375,40.83 C4.454,40.834 4.534,40.837 4.614,40.837 C4.695,40.837 4.777,40.834 4.858,40.83 C5.104,40.806 5.353,40.756 5.614,40.674 C5.639,40.486 5.688,40.294 5.735,40.103 L5.777,39.922 C5.929,39.413 6.146,38.916 6.405,38.475 C6.55,38.138 6.72,37.817 6.909,37.526 C7.23,37.048 7.635,36.6 8.067,36.24 L8.237,36.113 C8.394,35.996 8.543,35.885 8.708,35.797 C8.902,35.677 9.096,35.577 9.29,35.498 C9.663,35.336 9.947,35.259 10.114,35.222 C9.946,35.407 9.768,35.654 9.62,35.905 C9.519,36.064 9.427,36.243 9.356,36.42 C9.29,36.549 9.244,36.696 9.199,36.842 L9.14,37.033 C9.039,37.456 8.999,37.894 9.023,38.308 C9.047,38.56 9.098,38.807 9.182,39.076 C9.174,39.021 9.167,38.966 9.162,38.912 C9.14,38.568 9.176,38.194 9.253,37.868 L9.311,37.684 C9.345,37.572 9.377,37.458 9.44,37.331 C9.504,37.174 9.577,37.029 9.665,36.89 C9.687,36.853 9.709,36.818 9.73,36.784 C9.75,36.73 9.772,36.676 9.799,36.622 C9.867,36.454 9.946,36.301 10.035,36.161 C10.162,35.946 10.308,35.741 10.445,35.584 C10.442,35.576 10.439,35.569 10.436,35.561 L10.347,35.376 C10.278,35.234 10.132,35.15 9.979,35.15" id="Fill-69" fill="#067B75" sketch:type="MSShapeGroup"></path>
            <path d="M8.371,41.978 C8.55,42.35 8.394,42.797 8.021,42.976 C7.65,43.155 7.203,42.999 7.024,42.627 C6.844,42.255 7.001,41.808 7.373,41.629 C7.745,41.45 8.192,41.606 8.371,41.978" id="Fill-70" fill="#DAF6F2" sketch:type="MSShapeGroup"></path>
            <path d="M7.699,43.45 C7.271,43.45 6.86,43.21 6.663,42.8 C6.389,42.229 6.63,41.542 7.2,41.269 C7.476,41.136 7.788,41.12 8.076,41.219 C8.366,41.32 8.599,41.528 8.731,41.806 C9.005,42.375 8.765,43.061 8.195,43.337 C8.035,43.414 7.865,43.45 7.699,43.45 L7.699,43.45 Z M7.697,41.954 L7.547,41.989 C7.374,42.072 7.301,42.28 7.384,42.454 C7.467,42.627 7.677,42.7 7.849,42.616 C8.021,42.533 8.094,42.324 8.011,42.151 L7.811,41.975 L7.697,41.954 L7.697,41.954 Z" id="Fill-71" fill="#067B75" sketch:type="MSShapeGroup"></path>
            <path d="M79.49,119.293 C57.211,119.293 39.086,101.168 39.086,78.89 C39.086,56.61 57.211,38.485 79.49,38.485 C101.769,38.485 119.894,56.61 119.894,78.89 C119.894,101.168 101.769,119.293 79.49,119.293 L79.49,119.293 Z M79.49,39.485 C57.763,39.485 40.086,57.162 40.086,78.89 C40.086,100.617 57.763,118.293 79.49,118.293 C101.218,118.293 118.894,100.617 118.894,78.89 C118.894,57.162 101.218,39.485 79.49,39.485 L79.49,39.485 Z" id="Fill-72" fill="#067B75" sketch:type="MSShapeGroup"></path>
            <path d="M30.236,36.738 L24.946,36.738 C24.726,36.738 24.546,36.559 24.546,36.338 C24.546,36.117 24.726,35.938 24.946,35.938 L30.236,35.938 C30.457,35.938 30.637,36.117 30.637,36.338 C30.637,36.559 30.457,36.738 30.236,36.738" id="Fill-73" fill="#067B75" sketch:type="MSShapeGroup"></path>
            <path d="M27.592,39.383 C27.371,39.383 27.191,39.203 27.191,38.982 L27.191,33.692 C27.191,33.472 27.371,33.292 27.592,33.292 C27.813,33.292 27.992,33.472 27.992,33.692 L27.992,38.982 C27.992,39.203 27.813,39.383 27.592,39.383" id="Fill-74" fill="#067B75" sketch:type="MSShapeGroup"></path>
            <path d="M135.42,53.723 L131.727,53.723 C131.506,53.723 131.326,53.543 131.326,53.322 C131.326,53.102 131.506,52.922 131.727,52.922 L135.42,52.922 C135.641,52.922 135.82,53.102 135.82,53.322 C135.82,53.543 135.641,53.723 135.42,53.723" id="Fill-75" fill="#067B75" sketch:type="MSShapeGroup"></path>
            <path d="M133.573,55.569 C133.353,55.569 133.173,55.39 133.173,55.169 L133.173,51.476 C133.173,51.255 133.353,51.075 133.573,51.075 C133.794,51.075 133.974,51.255 133.974,51.476 L133.974,55.169 C133.974,55.39 133.794,55.569 133.573,55.569" id="Fill-76" fill="#067B75" sketch:type="MSShapeGroup"></path>
            <path d="M61.496,22.78 C61.275,22.78 61.096,22.601 61.096,22.38 L61.096,21.02 C61.096,20.799 61.275,20.619 61.496,20.619 C61.717,20.619 61.897,20.799 61.897,21.02 L61.897,22.38 C61.897,22.601 61.717,22.78 61.496,22.78" id="Fill-77" fill="#067B75" sketch:type="MSShapeGroup"></path>
            <path d="M61.496,27.606 C61.275,27.606 61.096,27.426 61.096,27.205 L61.096,25.845 C61.096,25.624 61.275,25.444 61.496,25.444 C61.717,25.444 61.897,25.624 61.897,25.845 L61.897,27.205 C61.897,27.426 61.717,27.606 61.496,27.606" id="Fill-78" fill="#067B75" sketch:type="MSShapeGroup"></path>
            <path d="M64.65,24.574 L63.29,24.574 C63.069,24.574 62.89,24.395 62.89,24.174 C62.89,23.953 63.069,23.774 63.29,23.774 L64.65,23.774 C64.871,23.774 65.051,23.953 65.051,24.174 C65.051,24.395 64.871,24.574 64.65,24.574" id="Fill-79" fill="#067B75" sketch:type="MSShapeGroup"></path>
            <path d="M59.794,24.574 L58.434,24.574 C58.213,24.574 58.033,24.395 58.033,24.174 C58.033,23.953 58.213,23.774 58.434,23.774 L59.794,23.774 C60.015,23.774 60.194,23.953 60.194,24.174 C60.194,24.395 60.015,24.574 59.794,24.574" id="Fill-80" fill="#067B75" sketch:type="MSShapeGroup"></path>
            <path d="M62.809,23.262 C62.706,23.262 62.604,23.223 62.525,23.145 C62.369,22.988 62.369,22.734 62.525,22.578 L63.487,21.616 C63.644,21.46 63.897,21.46 64.054,21.616 C64.21,21.772 64.21,22.026 64.054,22.183 L63.092,23.145 C63.014,23.223 62.911,23.262 62.809,23.262" id="Fill-81" fill="#067B75" sketch:type="MSShapeGroup"></path>
            <path d="M63.771,26.727 C63.668,26.727 63.566,26.688 63.487,26.608 L62.525,25.646 C62.369,25.489 62.369,25.236 62.526,25.08 C62.681,24.924 62.936,24.923 63.092,25.081 L64.054,26.044 C64.21,26.2 64.21,26.453 64.053,26.61 C63.976,26.688 63.873,26.727 63.771,26.727" id="Fill-82" fill="#067B75" sketch:type="MSShapeGroup"></path>
            <path d="M60.173,23.262 C60.07,23.262 59.968,23.223 59.89,23.145 L58.928,22.183 C58.772,22.026 58.772,21.772 58.928,21.616 C59.084,21.46 59.338,21.46 59.494,21.616 L60.456,22.578 C60.612,22.734 60.612,22.988 60.456,23.145 C60.378,23.223 60.275,23.262 60.173,23.262" id="Fill-83" fill="#067B75" sketch:type="MSShapeGroup"></path>
            <path d="M59.211,26.727 C59.108,26.727 59.006,26.688 58.929,26.61 C58.772,26.453 58.772,26.2 58.928,26.044 L59.89,25.081 C60.046,24.923 60.301,24.924 60.455,25.08 C60.612,25.236 60.612,25.489 60.456,25.646 L59.494,26.608 C59.416,26.688 59.314,26.727 59.211,26.727" id="Fill-84" fill="#067B75" sketch:type="MSShapeGroup"></path>
            <path d="M113.266,30.77 C111.922,30.77 110.829,29.677 110.829,28.333 C110.829,26.989 111.922,25.897 113.266,25.897 C114.609,25.897 115.702,26.989 115.702,28.333 C115.702,29.677 114.609,30.77 113.266,30.77 L113.266,30.77 Z M113.266,26.697 C112.363,26.697 111.63,27.431 111.63,28.333 C111.63,29.235 112.363,29.969 113.266,29.969 C114.168,29.969 114.901,29.235 114.901,28.333 C114.901,27.431 114.168,26.697 113.266,26.697 L113.266,26.697 Z" id="Fill-85" fill="#067B75" sketch:type="MSShapeGroup"></path>
            <path d="M21.267,53.874 C19.923,53.874 18.829,52.78 18.829,51.437 C18.829,50.093 19.923,49 21.267,49 C22.61,49 23.703,50.093 23.703,51.437 C23.703,52.78 22.61,53.874 21.267,53.874 L21.267,53.874 Z M21.267,49.801 C20.364,49.801 19.63,50.534 19.63,51.437 C19.63,52.339 20.364,53.073 21.267,53.073 C22.169,53.073 22.902,52.339 22.902,51.437 C22.902,50.534 22.169,49.801 21.267,49.801 L21.267,49.801 Z" id="Fill-86" fill="#DAF6F2" sketch:type="MSShapeGroup"></path>
            <path d="M120.553,36.375 C120.415,36.375 120.303,36.263 120.303,36.125 L120.303,35.16 C120.303,35.022 120.415,34.91 120.553,34.91 C120.69,34.91 120.803,35.022 120.803,35.16 L120.803,36.125 C120.803,36.263 120.69,36.375 120.553,36.375" id="Fill-87" fill="#DAF6F2" sketch:type="MSShapeGroup"></path>
            <path d="M120.553,39.795 C120.415,39.795 120.303,39.683 120.303,39.545 L120.303,38.581 C120.303,38.443 120.415,38.331 120.553,38.331 C120.69,38.331 120.803,38.443 120.803,38.581 L120.803,39.545 C120.803,39.683 120.69,39.795 120.553,39.795" id="Fill-88" fill="#DAF6F2" sketch:type="MSShapeGroup"></path>
            <path d="M122.789,37.646 L121.824,37.646 C121.687,37.646 121.574,37.534 121.574,37.397 C121.574,37.259 121.687,37.147 121.824,37.147 L122.789,37.147 C122.927,37.147 123.039,37.259 123.039,37.397 C123.039,37.534 122.927,37.646 122.789,37.646" id="Fill-89" fill="#DAF6F2" sketch:type="MSShapeGroup"></path>
            <path d="M119.347,37.646 L118.382,37.646 C118.244,37.646 118.132,37.534 118.132,37.397 C118.132,37.259 118.244,37.147 118.382,37.147 L119.347,37.147 C119.484,37.147 119.597,37.259 119.597,37.397 C119.597,37.534 119.484,37.646 119.347,37.646" id="Fill-90" fill="#DAF6F2" sketch:type="MSShapeGroup"></path>
            <path d="M121.483,36.716 L121.307,36.643 C121.209,36.545 121.209,36.387 121.307,36.289 L121.988,35.607 C122.086,35.51 122.244,35.51 122.342,35.607 C122.44,35.705 122.44,35.863 122.342,35.961 L121.66,36.643 L121.483,36.716" id="Fill-91" fill="#DAF6F2" sketch:type="MSShapeGroup"></path>
            <path d="M122.165,39.172 L121.988,39.099 L121.307,38.416 C121.209,38.318 121.209,38.16 121.307,38.062 C121.405,37.965 121.564,37.965 121.66,38.062 L122.342,38.745 C122.44,38.843 122.44,39.001 122.342,39.099 L122.165,39.172" id="Fill-92" fill="#DAF6F2" sketch:type="MSShapeGroup"></path>
            <path d="M119.615,36.716 L119.438,36.643 L118.756,35.961 C118.658,35.863 118.658,35.705 118.756,35.607 C118.853,35.511 119.011,35.509 119.109,35.607 L119.792,36.289 C119.89,36.387 119.89,36.545 119.792,36.643 L119.615,36.716" id="Fill-93" fill="#DAF6F2" sketch:type="MSShapeGroup"></path>
            <path d="M118.933,39.172 L118.756,39.099 C118.658,39.001 118.658,38.843 118.756,38.745 L119.438,38.062 C119.536,37.965 119.694,37.965 119.792,38.062 C119.89,38.16 119.89,38.318 119.792,38.416 L119.109,39.099 L118.933,39.172" id="Fill-94" fill="#DAF6F2" sketch:type="MSShapeGroup"></path>
        </g>
    </g>
</svg>