<?xml version="1.0" encoding="utf-8"?>
<!-- Generator: Adobe Illustrator 22.1.0, SVG Export Plug-In . SVG Version: 6.00 Build 0)  -->
<svg version="1.1" id="Layer_1" xmlns="http://www.w3.org/2000/svg" xmlns:xlink="http://www.w3.org/1999/xlink" x="0px" y="0px"
	 viewBox="0 0 750 126" style="enable-background:new 0 0 750 126;" xml:space="preserve">
<style type="text/css">
	.st0{fill:#1D4F63;}
	.st1{fill:#A4E0DA;}
	.st2{fill:#3EAFA7;}
	.st3{display:none;}
	.st4{display:inline;}
	.st5{fill:#FF335F;}
	
		.st6{display:inline;opacity:0.5;fill:none;stroke:#FF335F;stroke-width:1.1245;stroke-linecap:round;stroke-miterlimit:10;stroke-dasharray:7.4966;enable-background:new    ;}
	.st7{display:inline;opacity:0.5;fill:#B2D07D;enable-background:new    ;}
</style>
<g id="Logo">
	<g>
		<path class="st0" d="M639.9,55.4c-7.5,6.1-23.6,10.8-48.3,13.9c-0.6,0.1-1,0.6-1,1.2c1.3,14.3,10,20.1,22.7,21.1
			c11.8,0.9,20.1-2.4,24.8-5.1c1.1-0.6,2.2-0.2,2,1.1l-1.4,7.2c0,0.2-0.1,0.4-0.3,0.6c-2.5,2.8-7.8,5.1-10.6,5.8
			c-2.8,0.7-9.2,1.7-13.5,1.7c-27.9,0-41-20.2-38.6-44.3c0.9-8.9,4-16.6,9.3-23c6.7-8.1,15.4-12.1,25.9-12.1c8.9,0,16,2.9,21.5,8.8
			c5.3,5.7,8,13.1,8.1,21.9C640.4,54.7,640.2,55.1,639.9,55.4z M624.6,49.6c0.3-0.2,0.5-0.6,0.5-0.9c-0.2-4.2-1.5-7.7-4-10.4
			c-2.6-2.9-6-4.3-10.4-4.3c-6.2,0-11.2,2.8-15,8.3c-3.2,4.6-5,9.9-5.4,15.9c0,0.7,0.5,1.3,1.2,1.1c4.8-0.7,10.3-1.9,16.7-3.7
			C615.7,53.6,621.1,51.6,624.6,49.6z"/>
		<path class="st0" d="M496.6,101.1h-11.8c-0.5,0-1-0.4-1.1-0.9c-0.6-2.4-1-3.3-1.3-6.4c-0.1-0.9-1.2-1.4-1.9-0.7
			c-6,6.4-14.5,9.7-25.5,9.7c-6.5,0-11.9-1.9-16.1-5.7c-4.5-4.1-6.8-9.3-6.8-15.7c0-7.7,2.9-14.2,8.8-19.3
			c6.8-5.9,17.1-8.8,30.9-8.8c2.2,0,4.5,0.1,6.7,0.2c0.7,0,1.2-0.5,1.2-1.2c-0.2-6-1.4-10.4-3.6-13.2c-2.7-3.3-7.3-5-13.6-5
			c-5.3,0-12,2.3-20.1,6.8c-0.7,0.4-1.7-0.1-1.7-0.9V29.4c0-1.2,0.3-1.6,0.8-1.8c8.2-2.9,15.5-4.4,21.9-4.4
			c15.2,0,24.7,5.5,28.5,16.4c1.3,3.7,2,9.5,2.1,17.4c0.3,15,0.5,22.7,0.6,23.1c0.4,8.6,1.5,14.1,3.2,19.3
			C497.9,100.4,497.4,101.1,496.6,101.1z M480,72.3v-6.9c0-0.5-0.3-1-0.8-1.1c-2.8-0.7-5.9-1.1-9.2-1.1c-6.4,0-11.8,1.2-16.1,3.5
			c-5.5,2.9-8.2,7.4-8.2,13.3c0,7.6,4.2,11.5,12.5,11.5c6,0,11.3-2.3,15.7-6.9C478,80.2,480,76.1,480,72.3z"/>
		<path class="st0" d="M183.3,31.7c0,17.9-9,28.2-26.9,30.9c-3.4,0.6-11,0.9-22.7,0.9c-0.6,0-1.1,0.5-1.1,1.1V100
			c0,0.6-0.5,1.1-1.1,1.1h-11.9c-0.6,0-1.1-0.5-1.1-1.1V4.5c0-0.6,0.5-1.1,1.1-1.1c5.4,0,19,0,21.8,0h8.4c9.8,0,17.8,2.3,23.7,6.8
			C180,15.2,183.3,22.4,183.3,31.7z M168.9,32.5c0-6.2-2.2-10.9-6.5-14.1c-3.9-2.9-9.1-4.4-15.6-4.4c-3.3,0-7.7,0.1-13.3,0.4
			c-0.6,0-1.1,0.5-1.1,1.1V52c0,0.6,0.5,1.1,1.1,1.1H145C161,53,168.9,46.2,168.9,32.5z"/>
		<path class="st0" d="M330.1,63.4c0,11.6-3.1,20.9-9.3,28.1c-6.6,7.6-15.5,11.4-26.8,11.4c-11.4,0-20.3-3.8-26.8-11.4
			c-6.2-7.1-9.3-16.5-9.3-28.1c0-11.4,3.1-20.7,9.4-28.1c6.7-7.9,15.7-11.8,26.8-11.8c11.8,0,20.9,3.7,27.2,11.2
			C327.2,41.6,330.1,51.2,330.1,63.4z M315.1,62.7c0-9.3-2.2-16.8-6.5-22.3c-3.1-4.1-8-6.3-13.1-6.6c-8-0.5-14.1,2.8-18.1,9.7
			c-3.2,5.5-4.9,12.1-4.9,20s1.6,14.6,4.7,19.8c3.7,6.5,9.2,9.7,16.6,9.7c7.6,0,13.2-3.3,16.8-10C313.6,77.6,315.1,70.9,315.1,62.7z
			"/>
		<path class="st0" d="M411.9,97.5c0,18.5-11,27.7-32.9,27.7c-3.2,0-7-0.8-11.4-2.5c-0.4-0.2-0.7-0.5-0.7-1
			c-0.1-2.3-0.4-5.3-0.8-9.2c-0.1-0.9,0.8-1.5,1.5-1.1c1.5,0.7,3.3,1.3,5.6,1.8c3.2,0.8,6,1.2,8.3,1.2c11.1,0,16.6-5.7,16.6-17.1
			v-5.1c-3.6,4-8.8,6-15.5,6c-10.7,0-19-3.4-24.8-10.1c-5.6-6.4-8.5-15-8.5-25.9c0-12,3.3-21.5,10.1-28.4c6.7-6.9,16-10.3,27.9-10.3
			c4.2,0,12.1,1,23.6,2.9c0.5,0.1,1,0.6,1,1.1L411.9,97.5z M397.7,72.5V37c0-0.4-0.2-0.8-0.6-1c-2.7-1.5-6.2-2.3-10.4-2.3
			c-7.7,0-13.5,3.1-17.6,9.3c-3.4,5.4-5.1,12.1-5.1,20.2c0,7,1.5,12.7,4.6,16.9c3.5,4.8,8.6,7.2,15.4,7.2
			C387.3,87.4,397.7,84,397.7,72.5z"/>
		<path class="st0" d="M556.6,36h-15.9c-0.6,0-1.1,0.5-1.1,1.1v37.1c0.4,7.6,0.6,11.5,1.8,13.6c1.6,2.9,3.9,4.4,8.3,4.4
			c1.7,0,4.3-0.5,6.6-1.1c0.8-0.2,1.5,0.4,1.4,1.2l-1.6,8.5c0,0.3-0.2,0.7-0.5,0.8c-1.1,0.6-3.1,1.4-5.7,1.4c-8.9,0-15.2-1.9-19-5.8
			c-3.7-3.8-5.4-10.3-5.4-19.2V37.2c0-0.6-0.5-1.1-1.1-1.1h-10.9c-0.7,0-1.2-0.6-1.1-1.3l1.6-8.7c0.1-0.5,0.6-0.9,1.1-0.9h9.3
			c0.6,0,1.1-0.5,1.1-1.1V8.3c0-0.5,0.3-0.9,0.8-1.1l11.8-3.3c0.7-0.2,1.4,0.3,1.4,1.1v19.1c0,0.6,0.5,1.1,1.1,1.1h15.9
			c0.6,0,1.1,0.5,1.1,1.1v8.6C557.7,35.5,557.2,36,556.6,36z"/>
		<path class="st0" d="M245.1,37.6c0,0.7-0.6,1.2-1.3,1.1c-2.5-0.5-4.8-0.8-7.2-0.6c-3.1,0.3-6.1,1.3-9.1,3.9
			c-2.5,2.2-4.5,4.9-6,8.1c-1.8,4-2.6,8.5-2.6,13.4v36.6c0,0.6-0.5,1.1-1.1,1.1h-11.9c-0.6,0-1.1-0.5-1.1-1.1V27.5
			c0-0.5,0.4-1,0.9-1.1l11.9-2.8c0.7-0.2,1.4,0.4,1.4,1.1V33c0,0.7,0.8,1,1.3,0.5c2.6-3.1,9.6-9.1,23.9-8.2c0.6,0,1.1,0.5,1.1,1.1
			C245.1,28.8,245.1,34.9,245.1,37.6z"/>
		<path class="st1" d="M2,83.7c-0.6,0.4-1,1-1,1.7v18.2c0,1.2,1.4,2,2.4,1.4l67-40.3c0.3-0.2,0.5-0.4,0.7-0.7L53,53L2,83.7z"/>
		<path class="st2" d="M71.4,43.1c0-0.3-0.1-0.7-0.3-1c-0.2-0.3-0.4-0.6-0.7-0.7L3.5,1.1C2.4,0.5,1,1.3,1,2.5v18.1
			c0,0.7,0.4,1.4,1,1.7l69.2,41.6c0.1-0.1,0.1-0.1,0.3-0.1V53L71.4,43.1z"/>
		<path class="st2" d="M669.1,101.4V87.6c0-0.8,0.7-1.5,1.5-1.5h76.9c0.8,0,1.5,0.7,1.5,1.5v13.8c0,0.8-0.7,1.5-1.5,1.5h-76.9
			C669.8,102.9,669.1,102.2,669.1,101.4z"/>
	</g>
</g>
<g id="Padding" class="st3">
	<g class="st4">
		<g>
			<path class="st5" d="M-162.8-63.9h1.9v4.4l-0.1,2.2c1-1,2.1-1.8,3.6-1.8c2.3,0,3.3,1.5,3.3,4.3v6.9h-1.9v-6.7
				c0-2-0.6-2.9-2.1-2.9c-1.1,0-1.9,0.6-3,1.7v7.9h-1.9v-16H-162.8z"/>
		</g>
	</g>
	<g class="st4">
		<g>
			<path class="st5" d="M-43.6-142h1.9v4.4l-0.1,2.2c1-1,2.1-1.8,3.6-1.8c2.3,0,3.3,1.5,3.3,4.3v6.9h-1.9v-6.7c0-2-0.6-2.9-2.1-2.9
				c-1.1,0-1.9,0.6-3,1.7v7.9h-1.9v-16H-43.6z"/>
		</g>
	</g>
	<line class="st6" x1="-189.5" y1="0.9" x2="896.7" y2="0.9"/>
	<line class="st6" x1="-189.5" y1="105.8" x2="896.7" y2="105.8"/>
	<line class="st6" x1="749.1" y1="-104.1" x2="749.1" y2="246.4"/>
	<line class="st6" x1="0.9" y1="-105.1" x2="0.9" y2="245.4"/>
	<g class="st4">
		<g>
			<path class="st5" d="M-162.8,45.6h1.9V50l-0.1,2.2c1-1,2.1-1.8,3.6-1.8c2.3,0,3.3,1.5,3.3,4.3v6.9h-1.9v-6.7c0-2-0.6-2.9-2.1-2.9
				c-1.1,0-1.9,0.6-3,1.7v7.9h-1.9v-16H-162.8z"/>
		</g>
	</g>
	<g class="st4">
		<g>
			<path class="st5" d="M-162.8,141.6h1.9v4.4l-0.1,2.2c1-1,2.1-1.8,3.6-1.8c2.3,0,3.3,1.5,3.3,4.3v6.9h-1.9v-6.7
				c0-2-0.6-2.9-2.1-2.9c-1.1,0-1.9,0.6-3,1.7v7.9h-1.9v-16H-162.8z"/>
		</g>
	</g>
	<rect x="309.8" y="-78.6" class="st7" width="79.4" height="79.4"/>
	<rect x="749.5" y="13.6" class="st7" width="79.4" height="79.4"/>
	<rect x="-79.1" y="13.6" class="st7" width="79.4" height="79.4"/>
	<rect x="309.8" y="106" class="st7" width="79.4" height="79.4"/>
</g>
</svg>
