<?xml version="1.0" encoding="utf-8"?>
<!-- Generator: Adobe Illustrator 22.1.0, SVG Export Plug-In . SVG Version: 6.00 Build 0)  -->
<svg version="1.1" xmlns="http://www.w3.org/2000/svg" xmlns:xlink="http://www.w3.org/1999/xlink" x="0px" y="0px"
	 viewBox="0 0 1570 155" style="enable-background:new 0 0 1570 155;" xml:space="preserve">
<style type="text/css">
	.st0{fill:#1D4F63;}
	.st1{fill:#9AC0F7;}
	.st2{fill:#4F8DF2;}
	.st3{fill:none;stroke:#1D4F63;stroke-width:1.5;stroke-miterlimit:10;}
	.st4{display:none;}
	
		.st5{display:inline;opacity:0.5;fill:none;stroke:#FF335F;stroke-width:1.1245;stroke-linecap:round;stroke-miterlimit:10;stroke-dasharray:7.4966;enable-background:new    ;}
	.st6{display:inline;opacity:0.5;fill:#B2D07D;enable-background:new    ;}
</style>
<g id="Layer_1">
	<g>
		<g>
			<path class="st0" d="M642.3,79.2c-7.5,6.1-23.6,10.8-48.3,13.9c-0.6,0.1-1,0.6-1,1.2c1.3,14.3,10,20.1,22.7,21.1
				c11.8,0.9,20.1-2.4,24.7-5.1c1.1-0.6,2.2-0.2,2,1.1l-1.4,7.2c0,0.2-0.1,0.4-0.3,0.6c-2.5,2.8-7.8,5.1-10.6,5.8s-9.2,1.7-13.5,1.7
				c-27.9,0-41-20.2-38.6-44.3c0.9-8.9,4-16.6,9.3-23c6.7-8.1,15.4-12.1,25.9-12.1c8.9,0,16,2.9,21.5,8.8c5.3,5.7,8,13.1,8.1,21.9
				C642.9,78.5,642.7,78.9,642.3,79.2z M627.1,73.4c0.3-0.2,0.5-0.6,0.5-0.9c-0.2-4.2-1.5-7.7-4-10.4c-2.6-2.9-6-4.3-10.4-4.3
				c-6.2,0-11.2,2.8-15,8.3c-3.2,4.6-5,9.9-5.4,15.9c0,0.7,0.5,1.3,1.2,1.1c4.8-0.7,10.3-1.9,16.7-3.7
				C618.1,77.4,623.6,75.4,627.1,73.4z"/>
			<path class="st0" d="M499.1,124.9h-11.8c-0.5,0-1-0.4-1.1-0.9c-0.6-2.4-1-3.3-1.3-6.4c-0.1-0.9-1.2-1.4-1.9-0.7
				c-6,6.4-14.5,9.7-25.5,9.7c-6.5,0-11.9-1.9-16.1-5.7c-4.5-4.1-6.8-9.3-6.8-15.7c0-7.7,2.9-14.2,8.8-19.3
				c6.8-5.9,17.1-8.8,30.9-8.8c2.2,0,4.5,0.1,6.7,0.2c0.7,0,1.2-0.5,1.2-1.2c-0.2-6-1.4-10.4-3.6-13.2c-2.7-3.3-7.3-5-13.6-5
				c-5.3,0-12,2.3-20.1,6.8c-0.7,0.4-1.7-0.1-1.7-0.9V53.2c0-1.2,0.3-1.6,0.8-1.8c8.2-2.9,15.5-4.4,21.9-4.4
				c15.2,0,24.7,5.5,28.5,16.4c1.3,3.7,2,9.5,2.1,17.4c0.3,15,0.5,22.7,0.6,23.1c0.4,8.6,1.5,14.1,3.2,19.3
				C500.4,124.2,499.8,124.9,499.1,124.9z M482.5,96.1v-6.9c0-0.5-0.3-1-0.8-1.1c-2.8-0.7-5.9-1.1-9.2-1.1c-6.4,0-11.8,1.2-16.1,3.5
				c-5.5,2.9-8.2,7.4-8.2,13.3c0,7.6,4.2,11.5,12.5,11.5c6,0,11.3-2.3,15.7-6.9C480.4,104,482.5,99.9,482.5,96.1z"/>
			<path class="st0" d="M185.8,55.5c0,17.9-9,28.2-26.9,30.9c-3.4,0.6-11,0.9-22.7,0.9c-0.6,0-1.1,0.5-1.1,1.1v35.4
				c0,0.6-0.5,1.1-1.1,1.1h-11.9c-0.6,0-1.1-0.5-1.1-1.1V28.3c0-0.6,0.5-1.1,1.1-1.1c5.4,0,19,0,21.8,0h8.4c9.8,0,17.8,2.3,23.7,6.8
				C182.5,39,185.8,46.2,185.8,55.5z M171.4,56.3c0-6.2-2.2-10.9-6.5-14.1c-3.9-2.9-9.1-4.4-15.6-4.4c-3.3,0-7.7,0.1-13.3,0.4
				c-0.6,0-1.1,0.5-1.1,1.1v36.5c0,0.6,0.5,1.1,1.1,1.1h11.4C163.5,76.9,171.4,70,171.4,56.3z"/>
			<path class="st0" d="M332.6,87.2c0,11.6-3.1,20.9-9.3,28.1c-6.6,7.6-15.5,11.4-26.8,11.4c-11.4,0-20.3-3.8-26.8-11.4
				c-6.2-7.1-9.3-16.5-9.3-28.1c0-11.4,3.1-20.7,9.4-28.1c6.7-7.9,15.7-11.8,26.8-11.8c11.8,0,20.9,3.7,27.2,11.2
				C329.7,65.4,332.6,75,332.6,87.2z M317.6,86.5c0-9.3-2.2-16.8-6.5-22.3c-3.1-4.1-8-6.3-13.1-6.6c-8-0.5-14.1,2.8-18.1,9.7
				c-3.2,5.5-4.9,12.1-4.9,20s1.6,14.6,4.7,19.8c3.7,6.5,9.2,9.7,16.6,9.7c7.6,0,13.2-3.3,16.8-10
				C316.1,101.4,317.6,94.7,317.6,86.5z"/>
			<path class="st0" d="M414.3,121.3c0,18.5-11,27.7-32.9,27.7c-3.2,0-7-0.8-11.4-2.5c-0.4-0.2-0.7-0.5-0.7-1
				c-0.1-2.3-0.4-5.3-0.8-9.2c-0.1-0.9,0.8-1.5,1.5-1.1c1.5,0.7,3.3,1.3,5.6,1.8c3.2,0.8,6,1.2,8.3,1.2c11.1,0,16.6-5.7,16.6-17.1
				V116c-3.6,4-8.8,6-15.5,6c-10.7,0-19-3.4-24.8-10.1c-5.6-6.4-8.5-15-8.5-25.9c0-12,3.3-21.5,10.1-28.4c6.7-6.9,16-10.3,27.9-10.3
				c4.2,0,12.1,1,23.6,2.9c0.5,0.1,1,0.6,1,1.1L414.3,121.3z M400.2,96.3V60.8c0-0.4-0.2-0.8-0.6-1c-2.7-1.5-6.2-2.3-10.4-2.3
				c-7.7,0-13.5,3.1-17.6,9.3c-3.4,5.4-5.1,12.1-5.1,20.2c0,7,1.5,12.7,4.6,16.9c3.5,4.8,8.6,7.2,15.4,7.2
				C389.8,111.2,400.2,107.8,400.2,96.3z"/>
			<path class="st0" d="M559.1,59.8h-15.9c-0.6,0-1.1,0.5-1.1,1.1V98c0.4,7.6,0.6,11.5,1.8,13.6c1.6,2.9,3.9,4.4,8.3,4.4
				c1.7,0,4.3-0.5,6.6-1.1c0.8-0.2,1.5,0.4,1.4,1.2l-1.6,8.5c0,0.3-0.2,0.7-0.5,0.8c-1.1,0.6-3.1,1.4-5.7,1.4
				c-8.9,0-15.2-1.9-19-5.8c-3.7-3.8-5.4-10.3-5.4-19.2V61c0-0.6-0.5-1.1-1.1-1.1H516c-0.7,0-1.2-0.6-1.1-1.3l1.6-8.7
				c0.1-0.5,0.6-0.9,1.1-0.9h9.3c0.6,0,1.1-0.5,1.1-1.1V32.1c0-0.5,0.3-0.9,0.8-1.1l11.8-3.3c0.7-0.2,1.4,0.3,1.4,1.1v19.1
				c0,0.6,0.5,1.1,1.1,1.1H559c0.6,0,1.1,0.5,1.1,1.1v8.7C560.2,59.3,559.7,59.8,559.1,59.8z"/>
			<path class="st0" d="M247.6,61.4c0,0.7-0.6,1.2-1.3,1.1c-2.5-0.5-4.8-0.8-7.2-0.6c-3.1,0.3-6.1,1.3-9.1,3.9
				c-2.5,2.2-4.5,4.9-6,8.1c-1.8,4-2.6,8.5-2.6,13.4v36.6c0,0.6-0.5,1.1-1.1,1.1h-11.9c-0.6,0-1.1-0.5-1.1-1.1V51.3
				c0-0.5,0.4-1,0.9-1.1l11.9-2.8c0.7-0.2,1.4,0.4,1.4,1.1v8.3c0,0.7,0.8,1,1.3,0.5c2.6-3.1,9.6-9.1,23.9-8.2c0.6,0,1.1,0.5,1.1,1.1
				C247.6,52.7,247.6,58.7,247.6,61.4z"/>
			<path class="st1" d="M4.5,107.5c-0.6,0.4-1,1-1,1.7v18.2c0,1.2,1.4,2,2.4,1.4l67-40.3c0.3-0.2,0.5-0.4,0.7-0.7L55.5,76.9
				L4.5,107.5z"/>
			<path class="st2" d="M74,66.9c0-0.3-0.1-0.7-0.3-1c-0.2-0.3-0.4-0.6-0.7-0.7L6,24.9c-1.1-0.6-2.5,0.1-2.5,1.4v18.1
				c0,0.7,0.4,1.4,1,1.7l69.2,41.6c0.1-0.1,0.1-0.1,0.3-0.1V76.8V66.9z"/>
			<path class="st2" d="M671.6,125.2v-13.8c0-0.8,0.7-1.5,1.5-1.5H750c0.8,0,1.5,0.7,1.5,1.5v13.8c0,0.8-0.7,1.5-1.5,1.5h-76.9
				C672.3,126.7,671.6,126,671.6,125.2z"/>
		</g>
		<line class="st3" x1="831.4" y1="3.6" x2="831.4" y2="151.4"/>
		<g>
			<path class="st0" d="M905.5,61.9l8.9-0.6h20.4v5.2h-29.4v-4.6H905.5z M914.3,47.2c0-12.7,5.7-19.2,15.8-19.2c3,0,6.4,0.9,9.3,2.1
				l-1.6,4.8c-2.6-1.2-5.3-1.8-7.6-1.8c-6.8,0-10,5.3-10,14.5v77.5h-5.8v-78H914.3z"/>
			<path class="st0" d="M944.9,93.4c0-21.3,13.4-33.6,28.6-33.6c15.4,0,28.6,12.2,28.6,33.6c0,21.1-13.4,33.3-28.6,33.3
				C958.3,126.8,944.9,114.5,944.9,93.4z M996,93.4c0-16.8-9.5-28.4-22.4-28.4s-22.4,11.7-22.4,28.4c0,16.8,9.5,28.2,22.4,28.2
				C986.5,121.6,996,110.1,996,93.4z"/>
			<path class="st0" d="M1023.3,62l5.8-1.3v9.8c5.2-9.9,15.6-12,20.3-10.2l-0.1,4.7c-1-0.1-3-0.6-6.3,0.2c-5,1.2-10.2,7-13.2,12.6
				c-0.4,0.9-0.7,1.9-0.7,2.9v44.5h-5.8L1023.3,62L1023.3,62z"/>
			<path class="st0" d="M1096.6,37.7h23.7c17.6,0,28.8,6.6,28.8,21.3c0,9.1-4.7,16.4-13.5,19.1v0.6c11.3,1.9,19,9,19,21.1
				c0,16.8-12.8,25.5-32.5,25.5h-25.4V37.7H1096.6z M1117.9,76.1c18,0,25.2-6.3,25.2-16.6c0-12.2-8.5-16.7-24.5-16.7h-15.8v33.4h15
				V76.1z M1120.4,120c17.4,0,28.1-6.3,28.1-20.3c0-12.6-10.2-18.5-28.1-18.5h-17.6v38.9h17.6V120z"/>
			<path class="st0" d="M1173.6,102.3v-41h5.8v40.2c0,13.5,4.3,20,14.5,20c7.6,0,13.1-3.9,20.5-13V61.3h5.8v63.7h-4.9l-0.7-10.7
				h-0.3c-6.3,7.3-12.9,12.2-21.7,12.2C1179.8,126.8,1173.6,118.8,1173.6,102.3z"/>
			<path class="st0" d="M1300.4,40.8c0-3.3,2.5-5.2,5.4-5.2c2.9,0,5.4,1.9,5.4,5.2c0,3-2.5,5.2-5.4,5.2
				C1302.9,46,1300.4,43.8,1300.4,40.8z M1302.8,61.3h5.8v63.7h-5.8V61.3z"/>
			<path class="st0" d="M1335.1,61.3h4.9l0.7,9.9h0.3c6.5-6.5,13.1-11.4,22-11.4c13.1,0,19.3,8,19.3,24.5v40.8h-5.8V85
				c0-13.5-4.3-20-14.5-20c-7.6,0-13.1,4-20.9,12v48.1h-5.8V61.3H1335.1z"/>
			<path class="st0" d="M1521.6,117.9l2.6-4.8c5.2,4.7,12,8.6,21.1,8.6c10,0,15.3-5.8,15.3-12.6c0-8-8.3-11.4-15.6-14.1
				c-9.7-3.4-20.3-7.3-20.3-18.2c0-9.2,7.3-16.9,20.5-16.9c6.8,0,13.6,2.8,18.2,6.6l-2.5,4.8c-3.9-3.5-9.5-6.4-15.9-6.4
				c-10,0-14.5,5.7-14.5,11.6c0,7.3,7.5,10,15.1,12.9c9.9,3.8,20.9,7,20.9,19.4c0,9.7-7.6,18-21.4,18
				C1535.5,126.8,1527.3,122.8,1521.6,117.9z"/>
			<g>
				<path class="st0" d="M1432.5,126.8c-13,0-22.3-7.5-26.6-14.3c-5.4-8.4-7.6-21.4-2.9-33.8c5.2-13.5,17.2-19,26.3-19
					c7.2,0,13.7,3.4,17.5,8.9c4.5,6.3,4.9,12.3,5.3,15.7c-3.9,4.7-36.5,12.7-45.9,13.5c1.6,14.5,13.6,23.7,26.1,24.1
					c8.5,0.3,15.4-2.7,17.4-4.2l-1.2,5.7C1445.1,125.5,1438.2,126.8,1432.5,126.8z M1429.5,64.7c-7.3,0-17.3,5.5-21.3,15.8
					c-1.5,3.8-2.1,8-2.2,12c10.7-1.5,33.8-6.5,41.1-10.7C1444.8,71,1436.9,64.7,1429.5,64.7z"/>
			</g>
			<path class="st0" d="M1465.8,117.9l2.6-4.8c5.2,4.7,12,8.6,21.1,8.6c10,0,15.3-5.8,15.3-12.6c0-8-8.3-11.4-15.6-14.1
				c-9.7-3.4-20.3-7.3-20.3-18.2c0-9.2,7.3-16.9,20.5-16.9c6.8,0,13.6,2.8,18.2,6.6l-2.5,4.8c-3.9-3.5-9.5-6.4-15.9-6.4
				c-10,0-14.5,5.7-14.5,11.6c0,7.3,7.5,10,15.1,12.9c9.9,3.8,20.9,7,20.9,19.4c0,9.7-7.6,18-21.4,18
				C1479.7,126.8,1471.5,122.8,1465.8,117.9z"/>
			<path class="st0" d="M1239,117.9l2.6-4.8c5.2,4.7,12,8.6,21.1,8.6c10,0,15.3-5.8,15.3-12.6c0-8-8.3-11.4-15.6-14.1
				c-9.7-3.4-20.3-7.3-20.3-18.2c0-9.2,7.3-16.9,20.5-16.9c6.8,0,13.6,2.8,18.2,6.6l-2.5,4.8c-3.9-3.5-9.5-6.4-15.9-6.4
				c-10,0-14.5,5.7-14.5,11.6c0,7.3,7.5,10,15.1,12.9c9.9,3.8,20.9,7,20.9,19.4c0,9.7-7.6,18-21.4,18
				C1253,126.8,1244.8,122.8,1239,117.9z"/>
		</g>
	</g>
	<g id="Padding" class="st4">
		<line class="st5" x1="-182.4" y1="25.1" x2="1597.2" y2="25.1"/>
		<line class="st5" x1="-182.4" y1="129.9" x2="1597.2" y2="129.9"/>
		<line class="st5" x1="1450.3" y1="-79.9" x2="1450.3" y2="270.6"/>
		<line class="st5" x1="8" y1="-80.9" x2="8" y2="269.6"/>
		<rect x="689.5" y="-54.5" class="st6" width="79.4" height="79.4"/>
		<rect x="689.5" y="130.1" class="st6" width="79.4" height="79.4"/>
		<rect x="-71.1" y="36.6" class="st6" width="79.4" height="79.4"/>
		<rect x="1449.5" y="38.1" class="st6" width="79.4" height="79.4"/>
	</g>
</g>
<g id="Layer_3">
</g>
</svg>
