<?xml version="1.0" encoding="UTF-8" standalone="no"?>
<svg width="126px" height="108px" viewBox="0 0 126 108" version="1.1" xmlns="http://www.w3.org/2000/svg" xmlns:xlink="http://www.w3.org/1999/xlink" xmlns:sketch="http://www.bohemiancoding.com/sketch/ns">
    <!-- Generator: Sketch 3.3.3 (12081) - http://www.bohemiancoding.com/sketch -->
    <title>study</title>
    <desc>Created with Sketch.</desc>
    <defs></defs>
    <g id="Page-1" stroke="none" stroke-width="1" fill="none" fill-rule="evenodd" sketch:type="MSPage">
        <g id="lesson-icons" sketch:type="MSArtboardGroup" transform="translate(-1016.000000, -48.000000)">
            <g id="study" sketch:type="MSLayerGroup" transform="translate(1016.000000, 48.000000)">
                <path d="M110.926,60.02 C110.926,85.89 89.955,106.861 64.084,106.861 C38.214,106.861 17.243,85.89 17.243,60.02 C17.243,34.149 38.214,13.178 64.084,13.178 C89.955,13.178 110.926,34.149 110.926,60.02" id="Fill-1" fill="#EF598D" sketch:type="MSShapeGroup"></path>
                <path d="M93.979,41.246 L35.046,41.246 C34.136,41.246 33.397,41.985 33.397,42.895 L33.397,95.446 C41.535,102.271 52.023,106.861 63.476,106.861 C75.928,106.861 87.238,102.574 95.628,94.648 L95.628,42.895 C95.628,41.985 94.888,41.246 93.979,41.246" id="Fill-2" fill="#FFFFFF" sketch:type="MSShapeGroup"></path>
                <path d="M34.08,41.558 L33.397,41.558 L33.397,42.895 C33.397,42.345 33.666,41.858 34.08,41.558 M95.628,41.558 L94.944,41.558 C95.358,41.858 95.628,42.345 95.628,42.895 L95.628,53.161 L95.628,41.558" id="Fill-3" fill="#F0467F" sketch:type="MSShapeGroup"></path>
                <path d="M94.944,41.558 L34.08,41.558 C33.666,41.858 33.397,42.345 33.397,42.895 L33.397,53.161 L95.628,53.161 L95.628,42.895 C95.628,42.345 95.358,41.858 94.944,41.558" id="Fill-4" fill="#F888AD" sketch:type="MSShapeGroup"></path>
                <path d="M90.885,9.422 C90.885,9.994 90.421,10.458 89.848,10.458 C89.276,10.458 88.812,9.994 88.812,9.422 C88.812,8.85 89.276,8.386 89.848,8.386 C90.421,8.386 90.885,8.85 90.885,9.422" id="Fill-5" fill="#E1326D" sketch:type="MSShapeGroup"></path>
                <path d="M16.595,27.213 C16.595,27.785 16.132,28.249 15.559,28.249 C14.987,28.249 14.523,27.785 14.523,27.213 C14.523,26.64 14.987,26.177 15.559,26.177 C16.132,26.177 16.595,26.64 16.595,27.213" id="Fill-6" fill="#E1326D" sketch:type="MSShapeGroup"></path>
                <path d="M66.161,13.178 C66.161,14.108 65.407,14.861 64.478,14.861 C63.548,14.861 62.794,14.108 62.794,13.178 C62.794,12.248 63.548,11.494 64.478,11.494 C65.407,11.494 66.161,12.248 66.161,13.178" id="Fill-7" fill="#E1326D" sketch:type="MSShapeGroup"></path>
                <path d="M18.926,60.02 C18.926,60.949 18.172,61.703 17.243,61.703 C16.313,61.703 15.559,60.949 15.559,60.02 C15.559,59.09 16.313,58.336 17.243,58.336 C18.172,58.336 18.926,59.09 18.926,60.02" id="Fill-8" fill="#E1326D" sketch:type="MSShapeGroup"></path>
                <path d="M112.609,60.02 C112.609,60.949 111.856,61.703 110.926,61.703 C109.996,61.703 109.243,60.949 109.243,60.02 C109.243,59.09 109.996,58.336 110.926,58.336 C111.856,58.336 112.609,59.09 112.609,60.02" id="Fill-9" fill="#E1326D" sketch:type="MSShapeGroup"></path>
                <path d="M10.573,38.512 L5.111,38.512 C4.835,38.512 4.611,38.288 4.611,38.012 C4.611,37.735 4.835,37.512 5.111,37.512 L10.573,37.512 C10.849,37.512 11.073,37.735 11.073,38.012 C11.073,38.288 10.849,38.512 10.573,38.512" id="Fill-10" fill="#E1326D" sketch:type="MSShapeGroup"></path>
                <path d="M7.842,41.243 C7.565,41.243 7.342,41.019 7.342,40.743 L7.342,35.28 C7.342,35.004 7.565,34.78 7.842,34.78 C8.118,34.78 8.342,35.004 8.342,35.28 L8.342,40.743 C8.342,41.019 8.118,41.243 7.842,41.243" id="Fill-11" fill="#E1326D" sketch:type="MSShapeGroup"></path>
                <path d="M123.53,77.891 L118.067,77.891 C117.791,77.891 117.567,77.667 117.567,77.391 C117.567,77.114 117.791,76.891 118.067,76.891 L123.53,76.891 C123.806,76.891 124.03,77.114 124.03,77.391 C124.03,77.667 123.806,77.891 123.53,77.891" id="Fill-12" fill="#E1326D" sketch:type="MSShapeGroup"></path>
                <path d="M120.799,80.622 C120.522,80.622 120.299,80.398 120.299,80.122 L120.299,74.66 C120.299,74.384 120.522,74.16 120.799,74.16 C121.075,74.16 121.299,74.384 121.299,74.66 L121.299,80.122 C121.299,80.398 121.075,80.622 120.799,80.622" id="Fill-13" fill="#E1326D" sketch:type="MSShapeGroup"></path>
                <path d="M45.581,2.913 C45.305,2.913 45.081,2.689 45.081,2.413 L45.081,1.008 C45.081,0.731 45.305,0.508 45.581,0.508 C45.857,0.508 46.081,0.731 46.081,1.008 L46.081,2.413 C46.081,2.689 45.857,2.913 45.581,2.913" id="Fill-14" fill="#E1326D" sketch:type="MSShapeGroup"></path>
                <path d="M45.581,7.896 C45.305,7.896 45.081,7.672 45.081,7.395 L45.081,5.99 C45.081,5.714 45.305,5.49 45.581,5.49 C45.857,5.49 46.081,5.714 46.081,5.99 L46.081,7.395 C46.081,7.672 45.857,7.896 45.581,7.896" id="Fill-15" fill="#E1326D" sketch:type="MSShapeGroup"></path>
                <path d="M48.839,4.766 L47.434,4.766 C47.157,4.766 46.934,4.542 46.934,4.266 C46.934,3.989 47.157,3.766 47.434,3.766 L48.839,3.766 C49.115,3.766 49.339,3.989 49.339,4.266 C49.339,4.542 49.115,4.766 48.839,4.766" id="Fill-16" fill="#E1326D" sketch:type="MSShapeGroup"></path>
                <path d="M43.824,4.766 L42.419,4.766 C42.143,4.766 41.919,4.542 41.919,4.266 C41.919,3.989 42.143,3.766 42.419,3.766 L43.824,3.766 C44.1,3.766 44.324,3.989 44.324,4.266 C44.324,4.542 44.1,4.766 43.824,4.766" id="Fill-17" fill="#E1326D" sketch:type="MSShapeGroup"></path>
                <path d="M46.936,3.41 C46.808,3.41 46.681,3.361 46.583,3.264 C46.388,3.068 46.388,2.752 46.583,2.557 L47.576,1.562 C47.771,1.367 48.088,1.367 48.283,1.562 C48.478,1.758 48.478,2.074 48.283,2.27 L47.29,3.264 C47.192,3.361 47.064,3.41 46.936,3.41" id="Fill-18" fill="#E1326D" sketch:type="MSShapeGroup"></path>
                <path d="M47.93,6.986 C47.802,6.986 47.674,6.937 47.576,6.84 L46.583,5.847 C46.388,5.651 46.388,5.335 46.583,5.14 C46.778,4.944 47.095,4.944 47.29,5.14 L48.283,6.133 C48.478,6.328 48.478,6.645 48.283,6.84 C48.185,6.937 48.058,6.986 47.93,6.986" id="Fill-19" fill="#E1326D" sketch:type="MSShapeGroup"></path>
                <path d="M44.216,3.41 C44.088,3.41 43.96,3.361 43.862,3.264 L42.868,2.27 C42.673,2.074 42.673,1.758 42.868,1.562 C43.063,1.367 43.38,1.367 43.575,1.562 L44.569,2.557 C44.765,2.752 44.765,3.068 44.569,3.264 C44.472,3.361 44.344,3.41 44.216,3.41" id="Fill-20" fill="#E1326D" sketch:type="MSShapeGroup"></path>
                <path d="M43.222,6.986 C43.094,6.986 42.966,6.937 42.868,6.84 C42.673,6.645 42.673,6.328 42.868,6.133 L43.862,5.14 C44.058,4.944 44.374,4.944 44.569,5.14 C44.765,5.335 44.765,5.651 44.569,5.847 L43.575,6.84 C43.478,6.937 43.35,6.986 43.222,6.986" id="Fill-21" fill="#E1326D" sketch:type="MSShapeGroup"></path>
                <path d="M99.036,11.162 C97.601,11.162 96.434,9.994 96.434,8.56 C96.434,7.125 97.601,5.957 99.036,5.957 C100.471,5.957 101.639,7.125 101.639,8.56 C101.639,9.994 100.471,11.162 99.036,11.162 L99.036,11.162 Z M99.036,6.957 C98.152,6.957 97.433,7.676 97.433,8.56 C97.433,9.443 98.152,10.162 99.036,10.162 C99.92,10.162 100.639,9.443 100.639,8.56 C100.639,7.676 99.92,6.957 99.036,6.957 L99.036,6.957 Z" id="Fill-22" fill="#E1326D" sketch:type="MSShapeGroup"></path>
                <path d="M103.84,17.786 L98.378,17.786 C98.101,17.786 97.878,17.563 97.878,17.286 C97.878,17.01 98.101,16.786 98.378,16.786 L103.84,16.786 C104.116,16.786 104.34,17.01 104.34,17.286 C104.34,17.563 104.116,17.786 103.84,17.786" id="Fill-23" fill="#FFFFFF" sketch:type="MSShapeGroup"></path>
                <path d="M101.109,20.517 C100.833,20.517 100.609,20.293 100.609,20.017 L100.609,14.555 C100.609,14.278 100.833,14.055 101.109,14.055 C101.386,14.055 101.609,14.278 101.609,14.555 L101.609,20.017 C101.609,20.293 101.386,20.517 101.109,20.517" id="Fill-24" fill="#FFFFFF" sketch:type="MSShapeGroup"></path>
                <path d="M122.276,65.336 C122.056,65.336 121.876,65.156 121.876,64.935 L121.876,63.802 C121.876,63.581 122.056,63.401 122.276,63.401 C122.497,63.401 122.677,63.581 122.677,63.802 L122.677,64.935 C122.677,65.156 122.497,65.336 122.276,65.336" id="Fill-25" fill="#FFFFFF" sketch:type="MSShapeGroup"></path>
                <path d="M122.276,69.357 C122.056,69.357 121.876,69.178 121.876,68.957 L121.876,67.823 C121.876,67.603 122.056,67.423 122.276,67.423 C122.497,67.423 122.677,67.603 122.677,67.823 L122.677,68.957 C122.677,69.178 122.497,69.357 122.276,69.357" id="Fill-26" fill="#FFFFFF" sketch:type="MSShapeGroup"></path>
                <path d="M124.905,66.831 L123.771,66.831 C123.551,66.831 123.371,66.651 123.371,66.431 C123.371,66.21 123.551,66.03 123.771,66.03 L124.905,66.03 C125.126,66.03 125.306,66.21 125.306,66.431 C125.306,66.651 125.126,66.831 124.905,66.831" id="Fill-27" fill="#FFFFFF" sketch:type="MSShapeGroup"></path>
                <path d="M120.858,66.831 L119.725,66.831 C119.504,66.831 119.324,66.651 119.324,66.431 C119.324,66.21 119.504,66.03 119.725,66.03 L120.858,66.03 C121.079,66.03 121.259,66.21 121.259,66.431 C121.259,66.651 121.079,66.831 120.858,66.831" id="Fill-28" fill="#FFFFFF" sketch:type="MSShapeGroup"></path>
                <path d="M123.37,65.737 C123.267,65.737 123.165,65.698 123.087,65.619 C122.931,65.463 122.931,65.21 123.088,65.054 L123.891,64.252 C124.047,64.096 124.3,64.095 124.456,64.253 C124.612,64.409 124.612,64.662 124.455,64.818 L123.652,65.62 C123.574,65.698 123.473,65.737 123.37,65.737" id="Fill-29" fill="#FFFFFF" sketch:type="MSShapeGroup"></path>
                <path d="M124.173,68.624 C124.07,68.624 123.969,68.585 123.891,68.507 L123.088,67.705 C122.931,67.549 122.931,67.296 123.087,67.14 C123.243,66.982 123.496,66.982 123.652,67.139 L124.455,67.94 C124.612,68.097 124.612,68.35 124.456,68.506 C124.378,68.585 124.275,68.624 124.173,68.624" id="Fill-30" fill="#FFFFFF" sketch:type="MSShapeGroup"></path>
                <path d="M121.174,65.737 C121.071,65.737 120.969,65.698 120.891,65.62 L120.089,64.818 C119.933,64.662 119.933,64.408 120.089,64.252 C120.245,64.096 120.499,64.096 120.655,64.252 L121.457,65.054 C121.613,65.21 121.613,65.464 121.457,65.62 C121.379,65.698 121.276,65.737 121.174,65.737" id="Fill-31" fill="#FFFFFF" sketch:type="MSShapeGroup"></path>
                <path d="M120.372,68.624 C120.27,68.624 120.167,68.585 120.089,68.507 C119.933,68.351 119.933,68.097 120.089,67.94 L120.891,67.139 C121.047,66.982 121.301,66.982 121.457,67.139 C121.613,67.295 121.613,67.549 121.457,67.705 L120.655,68.507 C120.577,68.585 120.475,68.624 120.372,68.624" id="Fill-32" fill="#FFFFFF" sketch:type="MSShapeGroup"></path>
                <path d="M3.009,31.918 C1.573,31.918 0.405,30.75 0.405,29.315 C0.405,27.881 1.573,26.713 3.009,26.713 C4.443,26.713 5.611,27.881 5.611,29.315 C5.611,30.75 4.443,31.918 3.009,31.918 L3.009,31.918 Z M3.009,27.713 C2.125,27.713 1.405,28.432 1.405,29.315 C1.405,30.199 2.125,30.918 3.009,30.918 C3.893,30.918 4.611,30.199 4.611,29.315 C4.611,28.432 3.893,27.713 3.009,27.713 L3.009,27.713 Z" id="Fill-33" fill="#FFFFFF" sketch:type="MSShapeGroup"></path>
                <path d="M17.812,53.201 L17.733,53.195 C17.46,53.152 17.273,52.897 17.316,52.624 C20.484,32.435 36.161,16.636 56.326,13.311 C56.594,13.265 56.855,13.449 56.9,13.723 C56.945,13.995 56.761,14.252 56.488,14.297 C36.751,17.552 21.405,33.017 18.305,52.778 C18.266,53.025 18.053,53.201 17.812,53.201" id="Fill-34" fill="#E1326D" sketch:type="MSShapeGroup"></path>
                <path d="M64.084,107.361 C40.615,107.361 20.461,89.863 17.204,66.658 C17.166,66.385 17.356,66.132 17.63,66.094 C17.897,66.06 18.155,66.245 18.194,66.52 C21.382,89.233 41.11,106.361 64.084,106.361 C86.903,106.361 106.136,90.044 109.815,67.563 C109.86,67.289 110.118,67.105 110.39,67.15 C110.662,67.194 110.847,67.452 110.802,67.725 C107.043,90.691 87.395,107.361 64.084,107.361" id="Fill-35" fill="#E1326D" sketch:type="MSShapeGroup"></path>
                <path d="M110.427,53.661 C110.183,53.661 109.97,53.482 109.933,53.233 C106.989,33.168 91.559,17.511 71.537,14.273 C71.265,14.229 71.079,13.973 71.124,13.7 C71.167,13.427 71.425,13.235 71.697,13.287 C92.151,16.594 107.915,32.589 110.923,53.089 C110.963,53.361 110.773,53.616 110.5,53.656 L110.427,53.661" id="Fill-36" fill="#E1326D" sketch:type="MSShapeGroup"></path>
                <path d="M93.255,53.204 L34.058,53.204 C33.782,53.204 33.559,52.98 33.559,52.704 C33.559,52.428 33.782,52.204 34.058,52.204 L93.255,52.204 C93.531,52.204 93.755,52.428 93.755,52.704 C93.755,52.98 93.531,53.204 93.255,53.204" id="Fill-37" fill="#E1326D" sketch:type="MSShapeGroup"></path>
                <path d="M63.476,107.361 C52.737,107.361 41.941,103.266 33.075,95.828 C32.962,95.734 32.896,95.593 32.896,95.445 L32.896,42.895 C32.896,41.709 33.86,40.745 35.046,40.745 L93.979,40.745 C95.164,40.745 96.128,41.709 96.128,42.895 L96.128,94.648 C96.128,94.786 96.071,94.917 95.972,95.012 C87.542,102.976 76.001,107.361 63.476,107.361 L63.476,107.361 Z M33.896,95.212 C42.549,102.403 53.044,106.361 63.476,106.361 C75.667,106.361 86.898,102.126 95.128,94.433 L95.128,42.895 C95.128,42.261 94.612,41.745 93.979,41.745 L35.046,41.745 C34.412,41.745 33.896,42.261 33.896,42.895 L33.896,95.212 L33.896,95.212 Z" id="Fill-38" fill="#E1326D" sketch:type="MSShapeGroup"></path>
                <path d="M70.328,89.662 C71.282,80.841 78.115,76.188 81.617,75.798 C84.646,75.461 86.21,75.543 87.988,76.857 C88.176,76.996 88.41,76.98 88.533,76.772 L88.882,76.181 C88.982,76.012 88.959,75.785 88.826,75.647 C87.78,74.56 84.054,71.125 76.174,71.892 C64.732,73.006 55.603,88.199 54.416,106.055 C57.437,106.876 61.466,106.879 64.71,106.879 C67.778,106.879 70.622,106.675 73.493,105.938 C72.089,102.172 69.666,95.785 70.328,89.662" id="Fill-39" fill="#F66D9A" sketch:type="MSShapeGroup"></path>
                <path d="M63.638,107.379 C60.012,107.379 56.388,106.949 52.865,106.101 C52.627,106.043 52.466,105.821 52.483,105.577 C53.759,88.58 62.62,70.517 76.532,70.517 L76.671,70.516 C83.535,70.516 88.215,74.334 89.492,75.512 C89.825,75.818 89.885,76.316 89.633,76.692 L89.238,77.285 C89.091,77.506 88.856,77.651 88.597,77.685 C88.338,77.719 88.075,77.641 87.878,77.471 C87.213,76.896 85.361,75.589 82.486,75.902 C79.179,76.263 71.997,79.885 70.912,88.776 C70.176,94.819 72.654,101.882 74.197,105.554 C74.255,105.69 74.249,105.844 74.181,105.976 C74.113,106.107 73.991,106.202 73.848,106.234 C70.511,106.994 67.076,107.379 63.638,107.379 L63.638,107.379 Z M53.515,105.226 C59.911,106.704 66.651,106.755 73.046,105.388 C71.462,101.498 69.19,94.633 69.92,88.655 C71.036,79.509 78.153,75.369 82.377,74.908 C85.543,74.561 87.637,75.964 88.459,76.652 L88.761,76.197 C87.478,75.03 83.08,71.516 76.667,71.516 L76.536,71.517 C66.662,71.517 55.291,83.326 53.515,105.226 L53.515,105.226 Z" id="Fill-40" fill="#E1326D" sketch:type="MSShapeGroup"></path>
                <path d="M47.426,96.959 C47.204,96.941 47.007,97.103 46.98,97.324 L46.646,100.112 C46.619,100.34 46.781,100.547 47.009,100.575 L49.728,100.908 C49.949,100.935 50.151,100.785 50.189,100.566 L50.691,97.666 C50.733,97.425 50.558,97.199 50.313,97.18 L47.426,96.959" id="Fill-41" fill="#F2447E" sketch:type="MSShapeGroup"></path>
                <path d="M53.539,88.586 L54.383,86.581 C54.471,86.374 54.377,86.134 54.172,86.04 L51.696,84.914 C51.482,84.817 51.23,84.915 51.139,85.132 L50.231,87.298 C50.14,87.516 50.247,87.765 50.468,87.849 L53.007,88.813 C53.217,88.893 53.452,88.792 53.539,88.586" id="Fill-42" fill="#F2447E" sketch:type="MSShapeGroup"></path>
                <path d="M58.384,78.659 C58.56,78.776 58.796,78.743 58.933,78.581 L60.333,76.922 C60.494,76.731 60.452,76.442 60.244,76.305 L58.416,75.104 C58.245,74.991 58.016,75.021 57.878,75.173 L56.427,76.78 C56.256,76.969 56.293,77.265 56.505,77.406 L58.384,78.659" id="Fill-43" fill="#F2447E" sketch:type="MSShapeGroup"></path>
                <path d="M66.106,71.755 C66.235,71.912 66.459,71.952 66.635,71.851 L68.261,70.915 C68.49,70.783 68.54,70.474 68.365,70.277 L67.192,68.958 C67.066,68.816 66.859,68.777 66.69,68.865 L65.063,69.703 C64.827,69.825 64.764,70.134 64.934,70.338 L66.106,71.755" id="Fill-44" fill="#F2447E" sketch:type="MSShapeGroup"></path>
                <path d="M77.486,67.471 L75.269,67.368 C74.997,67.355 74.786,67.602 74.842,67.869 L75.094,69.089 C75.135,69.287 75.311,69.426 75.512,69.421 L77.641,69.37 C77.892,69.363 78.081,69.138 78.043,68.89 L77.878,67.824 C77.849,67.628 77.685,67.481 77.486,67.471" id="Fill-45" fill="#F2447E" sketch:type="MSShapeGroup"></path>
                <path d="M84.148,70.472 L84.134,70.739 C84.124,70.9 84.21,71.053 84.353,71.129 L85.8,71.904 C85.989,72.005 86.224,71.947 86.343,71.768 C86.467,71.582 86.422,71.332 86.242,71.2 L84.809,70.159 C84.542,69.964 84.167,70.143 84.148,70.472" id="Fill-46" fill="#F2447E" sketch:type="MSShapeGroup"></path>
                <path d="M83.929,76.982 C83.675,76.901 83.411,77.076 83.387,77.341 L83.37,77.527 C83.351,77.739 83.494,77.931 83.702,77.973 L84.795,78.196 C85.039,78.246 85.271,78.073 85.293,77.826 L85.299,77.762 C85.317,77.568 85.197,77.387 85.011,77.328 L83.929,76.982" id="Fill-47" fill="#F2447E" sketch:type="MSShapeGroup"></path>
                <path d="M80.247,78.353 L79.158,78.626 C78.893,78.692 78.763,78.989 78.893,79.229 L79.336,80.047 C79.459,80.275 79.757,80.336 79.96,80.176 L80.728,79.57 C80.856,79.469 80.914,79.301 80.873,79.143 L80.752,78.656 C80.697,78.433 80.47,78.297 80.247,78.353" id="Fill-48" fill="#F2447E" sketch:type="MSShapeGroup"></path>
                <path d="M77.163,84.358 L77.614,83.569 C77.692,83.432 77.686,83.263 77.599,83.131 L76.57,81.589 C76.429,81.377 76.133,81.34 75.944,81.511 L75.101,82.275 C74.93,82.429 74.916,82.692 75.071,82.863 L76.492,84.431 C76.683,84.641 77.022,84.604 77.163,84.358" id="Fill-49" fill="#F2447E" sketch:type="MSShapeGroup"></path>
                <path d="M73.969,87.096 L73.404,88.226 C73.318,88.398 73.361,88.605 73.506,88.729 L75.189,90.165 C75.425,90.367 75.791,90.248 75.864,89.946 L76.216,88.495 C76.255,88.335 76.195,88.166 76.063,88.065 L74.594,86.951 C74.386,86.793 74.086,86.863 73.969,87.096" id="Fill-50" fill="#F2447E" sketch:type="MSShapeGroup"></path>
                <path d="M73.602,95.274 L75.735,96.188 C76.02,96.311 76.334,96.09 76.315,95.78 L76.226,94.314 C76.217,94.168 76.133,94.039 76.004,93.971 L74.051,92.942 C73.783,92.801 73.459,92.985 73.441,93.287 L73.351,94.868 C73.341,95.043 73.441,95.205 73.602,95.274" id="Fill-51" fill="#F2447E" sketch:type="MSShapeGroup"></path>
                <path d="M74.631,102.386 C74.679,102.558 74.831,102.681 75.009,102.691 L77.815,102.85 C78.132,102.868 78.352,102.537 78.212,102.251 L77.27,100.317 C77.201,100.174 77.055,100.084 76.896,100.084 L74.539,100.084 C74.264,100.084 74.064,100.346 74.138,100.611 L74.631,102.386" id="Fill-52" fill="#F2447E" sketch:type="MSShapeGroup"></path>
                <path d="M44.411,67.459 L51.45,63.819 L51.588,63.821 L54.571,65.472 L54.641,65.64 L52.298,73.943 L52.109,74.041 L44.019,71.228 L43.922,71.072 L44.333,67.572 L44.411,67.459" id="Fill-53" fill="#F66D9A" sketch:type="MSShapeGroup"></path>
                <path d="M52.157,74.25 L52.045,74.231 L43.954,71.416 C43.8,71.362 43.705,71.212 43.724,71.05 L44.135,67.549 C44.148,67.435 44.217,67.335 44.318,67.281 L44.319,67.281 L51.357,63.641 C51.46,63.589 51.583,63.59 51.683,63.645 L54.668,65.297 C54.81,65.375 54.877,65.539 54.833,65.694 L52.49,73.998 L52.319,74.21 L52.157,74.25 L52.157,74.25 Z M44.126,71.053 L52.121,73.834 L54.436,65.626 L51.516,64.009 L44.528,67.623 L44.126,71.053 L44.126,71.053 Z" id="Fill-54" fill="#F2447E" sketch:type="MSShapeGroup"></path>
                <path d="M47.263,70.123 L45.879,70.839 C45.772,70.894 45.783,71.051 45.898,71.091 L50.504,72.686 L50.469,72.646 L47.263,70.123" id="Fill-55" fill="#FCCFDE" sketch:type="MSShapeGroup"></path>
                <path d="M48.231,69.623 L51.499,72.26 L51.235,68.069 L48.231,69.623" id="Fill-56" fill="#FCCFDE" sketch:type="MSShapeGroup"></path>
                <path d="M52.278,67.53 L52.186,67.69 L52.375,71.361 L53.603,66.844 L52.278,67.53" id="Fill-57" fill="#FCCFDE" sketch:type="MSShapeGroup"></path>
                <path d="M50.577,67.304 C50.685,67.248 50.673,67.091 50.558,67.051 L48.956,66.502 L48.386,68.437 L50.577,67.304" id="Fill-58" fill="#FCCFDE" sketch:type="MSShapeGroup"></path>
                <path d="M49.635,66.162 L51.148,66.68 L51.053,65.166 L49.616,65.91 C49.508,65.965 49.52,66.123 49.635,66.162" id="Fill-59" fill="#FCCFDE" sketch:type="MSShapeGroup"></path>
                <path d="M46.132,67.929 L47.101,68.711 L47.622,66.94 L46.155,67.699 L46.132,67.929" id="Fill-60" fill="#FCCFDE" sketch:type="MSShapeGroup"></path>
                <path d="M53.241,66.057 C53.339,66.006 53.341,65.867 53.245,65.814 L52.322,65.304 L52.397,66.493 L53.241,66.057" id="Fill-61" fill="#FCCFDE" sketch:type="MSShapeGroup"></path>
                <path d="M46.335,69.628 L46.359,69.399 L45.681,68.853 L45.542,70.039 L46.335,69.628" id="Fill-62" fill="#FCCFDE" sketch:type="MSShapeGroup"></path>
                <path d="M50.441,72.935 L50.327,72.916 L45.175,71.132 L45.174,71.131 C45.047,71.086 44.958,70.971 44.948,70.836 C44.938,70.701 45.01,70.575 45.13,70.513 L46.871,69.612 C46.983,69.553 47.129,69.563 47.233,69.645 L50.646,72.331 C50.778,72.435 50.814,72.61 50.733,72.758 C50.673,72.871 50.561,72.935 50.441,72.935 L50.441,72.935 Z M45.443,70.801 L50.107,72.416 L47.019,69.986 L45.443,70.801 L45.443,70.801 Z" id="Fill-63" fill="#F2447E" sketch:type="MSShapeGroup"></path>
                <path d="M51.435,72.751 L51.222,72.676 L47.447,69.629 L47.374,69.453 L47.481,69.296 L50.987,67.483 C51.087,67.431 51.207,67.431 51.308,67.489 C51.408,67.545 51.472,67.646 51.48,67.761 L51.77,72.393 C51.779,72.525 51.708,72.651 51.59,72.713 L51.435,72.751 L51.435,72.751 Z M47.937,69.511 L51.362,72.275 L51.087,67.883 L47.937,69.511 L47.937,69.511 Z" id="Fill-64" fill="#F2447E" sketch:type="MSShapeGroup"></path>
                <path d="M52.164,71.997 L52.125,71.995 C51.957,71.978 51.833,71.847 51.824,71.677 L51.603,67.388 C51.596,67.255 51.668,67.13 51.786,67.07 L53.399,66.235 C53.52,66.171 53.664,66.189 53.768,66.274 C53.871,66.358 53.915,66.496 53.879,66.625 L52.487,71.748 C52.446,71.899 52.316,71.997 52.164,71.997 L52.164,71.997 Z M52.005,67.407 L52.204,71.265 L53.456,66.656 L52.005,67.407 L52.005,67.407 Z" id="Fill-65" fill="#F2447E" sketch:type="MSShapeGroup"></path>
                <path d="M47.773,68.936 L47.558,68.859 C47.454,68.772 47.411,68.633 47.45,68.503 L48.08,66.363 L48.249,66.159 L48.513,66.14 L50.623,66.862 C50.751,66.906 50.841,67.021 50.85,67.156 C50.86,67.292 50.789,67.419 50.669,67.481 L47.929,68.899 L47.773,68.936 L47.773,68.936 Z M48.444,66.539 L47.875,68.476 L50.355,67.193 L48.444,66.539 L48.444,66.539 Z" id="Fill-66" fill="#F2447E" sketch:type="MSShapeGroup"></path>
                <path d="M51.066,66.921 L50.959,66.903 L48.912,66.203 C48.783,66.157 48.694,66.042 48.685,65.906 C48.675,65.772 48.746,65.646 48.866,65.583 L50.805,64.58 L50.807,64.579 C50.907,64.528 51.029,64.53 51.128,64.588 C51.226,64.645 51.29,64.746 51.296,64.86 L51.403,66.563 C51.41,66.676 51.361,66.783 51.271,66.851 L51.066,66.921 L51.066,66.921 Z M49.179,65.871 L50.999,66.494 L50.903,64.98 L49.179,65.871 L49.179,65.871 Z" id="Fill-67" fill="#F2447E" sketch:type="MSShapeGroup"></path>
                <path d="M46.941,69.125 L46.729,69.05 L45.348,67.935 C45.259,67.864 45.213,67.753 45.225,67.64 C45.235,67.526 45.303,67.427 45.404,67.373 L47.422,66.33 C47.542,66.27 47.686,66.284 47.792,66.369 C47.896,66.456 47.939,66.596 47.9,66.726 L47.265,68.883 C47.234,68.99 47.151,69.075 47.043,69.109 L46.941,69.125 L46.941,69.125 Z M45.674,67.685 L46.908,68.68 L47.475,66.753 L45.674,67.685 L45.674,67.685 Z" id="Fill-68" fill="#F2447E" sketch:type="MSShapeGroup"></path>
                <path d="M51.885,66.81 L51.718,66.766 C51.619,66.71 51.556,66.608 51.548,66.495 L51.454,65 C51.446,64.878 51.506,64.761 51.609,64.694 C51.714,64.628 51.844,64.624 51.953,64.683 L53.394,65.482 C53.503,65.541 53.57,65.655 53.568,65.78 C53.566,65.905 53.497,66.019 53.386,66.076 L52.04,66.772 L51.885,66.81 L51.885,66.81 Z M51.86,65.089 L51.94,66.373 L53.099,65.775 L51.86,65.089 L51.86,65.089 Z" id="Fill-69" fill="#F2447E" sketch:type="MSShapeGroup"></path>
                <path d="M45.006,70.368 L44.814,70.308 C44.711,70.236 44.656,70.115 44.671,69.99 L44.858,68.395 C44.872,68.272 44.952,68.168 45.065,68.122 C45.176,68.077 45.308,68.093 45.404,68.171 L46.537,69.086 C46.625,69.156 46.672,69.267 46.661,69.38 C46.65,69.494 46.583,69.594 46.481,69.648 L45.161,70.33 L45.006,70.368 L45.006,70.368 Z M45.242,68.554 L45.081,69.921 L46.211,69.337 L45.242,68.554 L45.242,68.554 Z" id="Fill-70" fill="#F2447E" sketch:type="MSShapeGroup"></path>
                <path d="M40.19,47.36 C40.19,47.932 39.726,48.396 39.153,48.396 C38.581,48.396 38.117,47.932 38.117,47.36 C38.117,46.787 38.581,46.323 39.153,46.323 C39.726,46.323 40.19,46.787 40.19,47.36" id="Fill-71" fill="#FBB6CD" sketch:type="MSShapeGroup"></path>
                <path d="M39.153,48.896 C38.306,48.896 37.617,48.206 37.617,47.359 C37.617,46.513 38.306,45.823 39.153,45.823 C40,45.823 40.689,46.513 40.689,47.359 C40.689,48.206 40,48.896 39.153,48.896 L39.153,48.896 Z M39.153,46.823 C38.857,46.823 38.617,47.063 38.617,47.359 C38.617,47.655 38.857,47.895 39.153,47.895 C39.449,47.895 39.689,47.655 39.689,47.359 C39.689,47.063 39.449,46.823 39.153,46.823 L39.153,46.823 Z" id="Fill-72" fill="#E1326D" sketch:type="MSShapeGroup"></path>
                <path d="M44.205,47.36 C44.205,47.932 43.741,48.396 43.169,48.396 C42.597,48.396 42.133,47.932 42.133,47.36 C42.133,46.787 42.597,46.323 43.169,46.323 C43.741,46.323 44.205,46.787 44.205,47.36" id="Fill-73" fill="#FBB6CD" sketch:type="MSShapeGroup"></path>
                <path d="M43.169,48.896 C42.322,48.896 41.633,48.206 41.633,47.359 C41.633,46.513 42.322,45.823 43.169,45.823 C44.016,45.823 44.705,46.513 44.705,47.359 C44.705,48.206 44.016,48.896 43.169,48.896 L43.169,48.896 Z M43.169,46.823 C42.873,46.823 42.633,47.063 42.633,47.359 C42.633,47.655 42.873,47.895 43.169,47.895 C43.465,47.895 43.705,47.655 43.705,47.359 C43.705,47.063 43.465,46.823 43.169,46.823 L43.169,46.823 Z" id="Fill-74" fill="#E1326D" sketch:type="MSShapeGroup"></path>
                <path d="M48.221,47.36 C48.221,47.932 47.757,48.396 47.185,48.396 C46.612,48.396 46.148,47.932 46.148,47.36 C46.148,46.787 46.612,46.323 47.185,46.323 C47.757,46.323 48.221,46.787 48.221,47.36" id="Fill-75" fill="#FBB6CD" sketch:type="MSShapeGroup"></path>
                <path d="M47.185,48.896 C46.338,48.896 45.648,48.206 45.648,47.359 C45.648,46.513 46.338,45.823 47.185,45.823 C48.031,45.823 48.721,46.513 48.721,47.359 C48.721,48.206 48.031,48.896 47.185,48.896 L47.185,48.896 Z M47.185,46.823 C46.889,46.823 46.648,47.063 46.648,47.359 C46.648,47.655 46.889,47.895 47.185,47.895 C47.48,47.895 47.721,47.655 47.721,47.359 C47.721,47.063 47.48,46.823 47.185,46.823 L47.185,46.823 Z" id="Fill-76" fill="#E1326D" sketch:type="MSShapeGroup"></path>
            </g>
        </g>
    </g>
</svg>